<svg width="180" height="44" viewBox="0 0 180 44" fill="none" xmlns="http://www.w3.org/2000/svg">
<path d="M51.3172 32.0775H63.1979V28.6023H54.94V12.3756H51.3172V32.0775Z" fill="#626262"/>
<path d="M70.3374 32.4879C71.7759 32.4879 73.0413 32.1595 74.1334 31.5028C75.2345 30.8369 76.0913 29.9203 76.7041 28.7528C77.3256 27.5761 77.6364 26.2216 77.6364 24.6893C77.6364 23.166 77.33 21.8207 76.7174 20.6531C76.1046 19.4765 75.2477 18.5553 74.1467 17.8894C73.0546 17.2235 71.7848 16.8906 70.3374 16.8906C68.9167 16.8906 67.6602 17.219 66.5681 17.8757C65.4759 18.5325 64.6191 19.4491 63.9974 20.6258C63.3759 21.7933 63.0651 23.1478 63.0651 24.6893C63.0651 26.2125 63.367 27.5625 63.9709 28.7391C64.5835 29.9066 65.436 30.8233 66.5281 31.4891C67.6204 32.155 68.8901 32.4879 70.3374 32.4879ZM70.3374 29.0127C69.2097 29.0127 68.3529 28.6251 67.7669 27.8498C67.1896 27.0654 66.9011 26.0119 66.9011 24.6893C66.9011 23.4032 67.1763 22.3633 67.7269 21.5698C68.2862 20.7672 69.1564 20.3658 70.3374 20.3658C71.4829 20.3658 72.3442 20.758 72.9214 21.5425C73.5074 22.3269 73.8004 23.3758 73.8004 24.6893C73.8004 25.9572 73.5119 26.9969 72.9346 27.8088C72.3664 28.6113 71.5006 29.0127 70.3374 29.0127Z" fill="#626262"/>
<path d="M84.8008 32.4879C85.4757 32.4879 86.0972 32.4058 86.6656 32.2416C87.2428 32.0775 87.7666 31.8448 88.2373 31.5438V33.0352C88.2551 33.5825 88.1173 34.0385 87.8243 34.4033C87.5402 34.7773 87.1584 35.0555 86.6789 35.238C86.1994 35.4295 85.6888 35.5253 85.1472 35.5253C84.641 35.5253 84.1704 35.4113 83.7354 35.1832C83.3091 34.9552 82.9805 34.6223 82.7497 34.1845L79.3933 35.8536C79.9438 36.8113 80.7296 37.5821 81.7508 38.1658C82.772 38.7587 83.8952 39.0552 85.1205 39.0552C86.1772 39.0552 87.1584 38.9092 88.0641 38.6173C88.9698 38.3346 89.7335 37.9014 90.355 37.3176C90.9854 36.7338 91.4161 35.9905 91.647 35.0875C91.7269 34.7682 91.7801 34.4444 91.8068 34.116C91.8423 33.7968 91.8601 33.4548 91.8601 33.0899V17.3011H88.6901V18.122C88.2017 17.7298 87.6467 17.4288 87.0252 17.219C86.4125 17.0001 85.7333 16.8906 84.9873 16.8906C83.611 16.8906 82.4123 17.2282 81.3912 17.9031C80.37 18.578 79.5753 19.5038 79.007 20.6805C78.4476 21.848 78.1679 23.1843 78.1679 24.6893C78.1679 26.1669 78.4432 27.494 78.9937 28.6707C79.5531 29.8473 80.33 30.7777 81.3245 31.4618C82.319 32.1458 83.4778 32.4879 84.8008 32.4879ZM85.3869 29.1769C84.6056 29.1769 83.9662 28.9762 83.4689 28.5749C82.9717 28.1736 82.6032 27.6355 82.3635 26.9605C82.1237 26.2763 82.0038 25.5193 82.0038 24.6893C82.0038 23.8683 82.1281 23.1205 82.3768 22.4455C82.6255 21.7613 83.0072 21.2187 83.5222 20.8173C84.0461 20.4068 84.7121 20.2016 85.5201 20.2016C86.6567 20.2016 87.4691 20.6167 87.9575 21.4467C88.4459 22.2676 88.6901 23.3485 88.6901 24.6893C88.6901 26.0301 88.4414 27.1155 87.9442 27.9455C87.4558 28.7665 86.6035 29.1769 85.3869 29.1769Z" fill="#626262"/>
<path d="M100.465 32.4879C101.903 32.4879 103.169 32.1595 104.261 31.5028C105.362 30.8369 106.219 29.9203 106.831 28.7528C107.453 27.5761 107.763 26.2216 107.763 24.6893C107.763 23.166 107.458 21.8207 106.845 20.6531C106.232 19.4765 105.375 18.5553 104.274 17.8894C103.182 17.2235 101.912 16.8906 100.465 16.8906C99.0442 16.8906 97.7877 17.219 96.6956 17.8757C95.6035 18.5325 94.7466 19.4491 94.1249 20.6258C93.5034 21.7933 93.1926 23.1478 93.1926 24.6893C93.1926 26.2125 93.4945 27.5625 94.0984 28.7391C94.711 29.9066 95.5635 30.8233 96.6556 31.4891C97.7478 32.155 99.0176 32.4879 100.465 32.4879ZM100.465 29.0127C99.3372 29.0127 98.4803 28.6251 97.8943 27.8498C97.3171 27.0654 97.0286 26.0119 97.0286 24.6893C97.0286 23.4032 97.3038 22.3633 97.8544 21.5698C98.4137 20.7672 99.2839 20.3658 100.465 20.3658C101.61 20.3658 102.472 20.758 103.049 21.5425C103.635 22.3269 103.928 23.3758 103.928 24.6893C103.928 25.9572 103.639 26.9969 103.062 27.8088C102.494 28.6113 101.628 29.0127 100.465 29.0127Z" fill="#626262"/>
<path d="M109.36 15.2488H112.983V11.9652H109.36V15.2488ZM109.36 32.0775H112.983V17.3011H109.36V32.0775Z" fill="#626262"/>
<path d="M115.352 38.6447H119.001V31.5438C119.472 31.8448 119.991 32.0775 120.559 32.2416C121.137 32.4058 121.763 32.4879 122.438 32.4879C123.76 32.4879 124.92 32.1458 125.914 31.4618C126.908 30.7777 127.681 29.8473 128.231 28.6707C128.791 27.494 129.07 26.1669 129.07 24.6893C129.07 23.1843 128.787 21.848 128.219 20.6805C127.659 19.5038 126.869 18.578 125.847 17.9031C124.826 17.2282 123.628 16.8906 122.251 16.8906C121.505 16.8906 120.822 17.0001 120.2 17.219C119.587 17.4288 119.037 17.7298 118.549 18.122V17.3011H115.352V38.6447ZM121.852 29.1769C120.644 29.1769 119.792 28.7665 119.294 27.9455C118.797 27.1155 118.549 26.0301 118.549 24.6893C118.549 23.3485 118.793 22.2676 119.281 21.4467C119.778 20.6167 120.591 20.2016 121.719 20.2016C122.527 20.2016 123.188 20.4068 123.703 20.8173C124.227 21.2187 124.613 21.7613 124.861 22.4455C125.11 23.1205 125.235 23.8683 125.235 24.6893C125.235 25.5193 125.115 26.2763 124.875 26.9605C124.635 27.6355 124.267 28.1736 123.77 28.5749C123.273 28.9762 122.633 29.1769 121.852 29.1769Z" fill="#626262"/>
<path d="M135.634 32.4879C137.516 32.4879 138.99 32.0547 140.056 31.1881C141.121 30.3216 141.654 29.1313 141.654 27.6172C141.654 26.4679 141.307 25.5604 140.616 24.8945C139.931 24.2287 138.769 23.6768 137.125 23.239C136.007 22.9471 135.172 22.7099 134.621 22.5275C134.08 22.3452 133.72 22.1673 133.542 21.994C133.374 21.8207 133.29 21.6063 133.29 21.3509C133.29 20.9222 133.489 20.5939 133.889 20.3658C134.298 20.1378 134.835 20.0466 135.5 20.0922C136.912 20.2016 137.685 20.8219 137.818 21.9529L141.521 21.2688C141.335 19.928 140.695 18.8654 139.603 18.081C138.511 17.2874 137.117 16.8906 135.421 16.8906C133.68 16.8906 132.291 17.3102 131.251 18.1493C130.213 18.9885 129.693 20.1195 129.693 21.5425C129.693 22.6735 130.053 23.5673 130.772 24.2241C131.491 24.8717 132.73 25.4281 134.488 25.8933C135.527 26.176 136.29 26.404 136.779 26.5773C137.276 26.7506 137.596 26.9285 137.738 27.111C137.88 27.2843 137.951 27.5169 137.951 27.8088C137.951 28.2739 137.773 28.6388 137.419 28.9033C137.064 29.1586 136.557 29.2863 135.9 29.2863C135.1 29.2863 134.439 29.0903 133.916 28.698C133.401 28.3058 133.067 27.7632 132.916 27.0699L129.214 27.6445C129.454 29.186 130.129 30.3809 131.239 31.2292C132.358 32.0683 133.823 32.4879 135.634 32.4879Z" fill="#626262"/>
<path d="M148.337 32.5153C149.376 32.5153 150.281 32.3374 151.055 31.9817C151.827 31.626 152.475 31.1517 152.999 30.5588V32.0775H156.195V17.3011H152.546V24.7987C152.546 25.7109 152.443 26.4496 152.239 27.0152C152.045 27.5716 151.791 27.9957 151.48 28.2876C151.17 28.5704 150.837 28.7618 150.481 28.8622C150.126 28.9625 149.793 29.0127 149.483 29.0127C148.71 29.0127 148.111 28.8348 147.685 28.4791C147.267 28.1234 146.965 27.681 146.778 27.152C146.592 26.6229 146.481 26.0985 146.446 25.5786C146.41 25.0495 146.392 24.6163 146.392 24.2788V17.3011H142.716V25.5923C142.716 25.8385 142.734 26.2308 142.769 26.7689C142.805 27.307 142.907 27.9045 143.076 28.5612C143.244 29.2088 143.524 29.8336 143.915 30.4356C144.315 31.0376 144.87 31.5347 145.58 31.927C146.29 32.3191 147.21 32.5153 148.337 32.5153Z" fill="#626262"/>
<path d="M158.293 32.0775H161.942V23.1295C161.942 22.2813 162.168 21.5927 162.622 21.0636C163.083 20.5254 163.691 20.2563 164.447 20.2563C165.237 20.2563 165.854 20.53 166.298 21.0773C166.75 21.6155 166.977 22.3725 166.977 23.3485V32.0775H170.6V23.1295C170.6 22.2813 170.826 21.5927 171.279 21.0636C171.741 20.5254 172.349 20.2563 173.103 20.2563C173.895 20.2563 174.511 20.53 174.955 21.0773C175.408 21.6155 175.635 22.3725 175.635 23.3485V32.0775H179.257V22.3633C179.257 20.7489 178.835 19.4446 177.992 18.4503C177.158 17.447 175.919 16.9453 174.276 16.9453C173.353 16.9453 172.505 17.1506 171.732 17.561C170.959 17.9715 170.343 18.5325 169.88 19.2439C169.508 18.5507 168.975 17.9943 168.282 17.5747C167.589 17.1552 166.728 16.9453 165.698 16.9453C164.828 16.9453 164.029 17.1232 163.301 17.479C162.572 17.8255 161.969 18.3045 161.489 18.9155V17.3011H158.293V32.0775Z" fill="#626262"/>
<path d="M20.9302 0.902466C9.37078 0.902466 0 10.5283 0 22.4025C11.5595 22.4025 20.9302 12.7766 20.9302 0.902466Z" fill="#626262"/>
<path d="M20.9302 43.9025C32.4897 43.9025 41.8605 34.2766 41.8605 22.4025C30.301 22.4025 20.9302 32.0283 20.9302 43.9025Z" fill="#626262"/>
<path d="M20.9302 0.902466C32.4897 0.902466 41.8605 10.5283 41.8605 22.4025C30.301 22.4025 20.9302 12.7766 20.9302 0.902466Z" fill="#626262"/>
<path d="M20.9302 43.9025C9.37078 43.9025 -1.01056e-06 34.2766 0 22.4025C11.5595 22.4025 20.9302 32.0283 20.9302 43.9025Z" fill="#626262"/>
</svg>
