<svg width="174" height="44" viewBox="0 0 174 44" fill="none" xmlns="http://www.w3.org/2000/svg">
<path d="M50.5634 31.2805H63.0164V27.3292H54.9895V12.4463H50.5634V31.2805Z" fill="#626262"/>
<path d="M70.3944 28.6463C68.619 28.6463 67.6938 27.0131 67.6938 24.5634C67.6938 22.1136 68.619 20.4541 70.3944 20.4541C72.1698 20.4541 73.1201 22.1136 73.1201 24.5634C73.1201 27.0131 72.1698 28.6463 70.3944 28.6463ZM70.4194 31.7019C74.5454 31.7019 77.2461 28.62 77.2461 24.5634C77.2461 20.5068 74.5454 17.4249 70.4194 17.4249C66.3184 17.4249 63.5678 20.5068 63.5678 24.5634C63.5678 28.62 66.3184 31.7019 70.4194 31.7019Z" fill="#626262"/>
<path d="M84.3878 35.9429C86.2882 35.9429 87.9636 35.4951 89.0889 34.4414C90.1141 33.4668 90.7893 31.9917 90.7893 29.9634V17.7936H86.8884V19.2424H86.8383C86.0882 18.1097 84.9379 17.3985 83.2375 17.3985C80.0617 17.3985 77.8612 20.1907 77.8612 24.1419C77.8612 28.2775 80.5368 30.5429 83.4125 30.5429C84.9629 30.5429 85.9381 29.8844 86.6883 28.9888H86.7883V30.3322C86.7883 31.9653 86.0632 32.9136 84.3378 32.9136C82.9874 32.9136 82.3123 32.3078 82.0872 31.5966H78.1363C78.5364 34.4151 80.8619 35.9429 84.3878 35.9429ZM84.3628 27.3556C82.8374 27.3556 81.8372 26.0385 81.8372 24.0102C81.8372 21.9556 82.8374 20.6385 84.3628 20.6385C86.0632 20.6385 86.9634 22.1663 86.9634 23.9839C86.9634 25.8805 86.1382 27.3556 84.3628 27.3556Z" fill="#626262"/>
<path d="M98.8104 28.6463C97.035 28.6463 96.1097 27.0131 96.1097 24.5634C96.1097 22.1136 97.035 20.4541 98.8104 20.4541C100.586 20.4541 101.536 22.1136 101.536 24.5634C101.536 27.0131 100.586 28.6463 98.8104 28.6463ZM98.8354 31.7019C102.961 31.7019 105.662 28.62 105.662 24.5634C105.662 20.5068 102.961 17.4249 98.8354 17.4249C94.7344 17.4249 91.9837 20.5068 91.9837 24.5634C91.9837 28.62 94.7344 31.7019 98.8354 31.7019Z" fill="#626262"/>
<path d="M106.852 31.2805H110.928V17.7936H106.852V31.2805ZM106.852 15.9234H110.928V12.4463H106.852V15.9234Z" fill="#626262"/>
<path d="M112.696 35.7322H116.772V29.8844H116.822C117.623 31.017 118.798 31.7019 120.448 31.7019C123.799 31.7019 126.025 28.9097 126.025 24.537C126.025 20.4805 123.949 17.3985 120.548 17.3985C118.798 17.3985 117.547 18.2151 116.672 19.4268H116.597V17.7936H112.696V35.7322ZM119.398 28.3829C117.648 28.3829 116.647 26.8814 116.647 24.6951C116.647 22.5088 117.547 20.8492 119.323 20.8492C121.073 20.8492 121.899 22.3771 121.899 24.6951C121.899 26.9868 120.948 28.3829 119.398 28.3829Z" fill="#626262"/>
<path d="M132.662 31.7019C136.012 31.7019 138.488 30.1741 138.488 27.2239C138.488 23.7731 135.837 23.1673 133.587 22.7722C131.961 22.4561 130.511 22.3244 130.511 21.3761C130.511 20.5331 131.286 20.138 132.286 20.138C133.412 20.138 134.187 20.5068 134.337 21.7185H138.088C137.888 19.058 135.937 17.3985 132.311 17.3985C129.286 17.3985 126.785 18.8736 126.785 21.7185C126.785 24.8795 129.161 25.5117 131.386 25.9068C133.087 26.2229 134.637 26.3546 134.637 27.5663C134.637 28.4356 133.862 28.9097 132.637 28.9097C131.286 28.9097 130.436 28.2512 130.286 26.9078H126.435C126.56 29.8844 128.911 31.7019 132.662 31.7019Z" fill="#626262"/>
<path d="M144.024 31.6756C145.799 31.6756 146.924 30.938 147.85 29.621H147.925V31.2805H151.825V17.7936H147.749V25.3273C147.749 26.9341 146.899 28.0405 145.499 28.0405C144.199 28.0405 143.574 27.2239 143.574 25.7488V17.7936H139.523V26.6444C139.523 29.6473 141.073 31.6756 144.024 31.6756Z" fill="#626262"/>
<path d="M153.599 31.2805H157.675V23.7205C157.675 22.1136 158.425 20.9809 159.7 20.9809C160.926 20.9809 161.501 21.8239 161.501 23.2727V31.2805H165.577V23.7205C165.577 22.1136 166.302 20.9809 167.602 20.9809C168.827 20.9809 169.403 21.8239 169.403 23.2727V31.2805H173.479V22.5088C173.479 19.4795 172.028 17.3985 169.128 17.3985C167.477 17.3985 166.102 18.1361 165.102 19.7692H165.052C164.401 18.3205 163.126 17.3985 161.451 17.3985C159.6 17.3985 158.375 18.3205 157.575 19.7166H157.5V17.7936H153.599V31.2805Z" fill="#626262"/>
<path fill-rule="evenodd" clip-rule="evenodd" d="M8.91123 3.94888C7.4206 5.04683 6.07267 6.34497 4.90255 7.80629C9.68422 7.33865 15.7591 8.10225 22.8121 11.8171C30.3437 15.7839 36.4085 15.918 40.6293 15.0604C40.2463 13.8389 39.7641 12.6649 39.193 11.5489C34.3613 12.0858 28.1671 11.3752 20.9483 7.57314C16.3643 5.15873 12.3235 4.16415 8.91123 3.94888ZM36.3705 7.31705C32.5549 2.82621 27.01 0 20.8383 0C19.0259 0 17.2673 0.243776 15.5909 0.701868C17.8614 1.35448 20.2735 2.30925 22.8121 3.64639C28.0973 6.43009 32.6603 7.32639 36.3705 7.31705ZM41.5317 19.3479C36.4325 20.4086 29.3912 20.1907 20.9483 15.7438C13.0552 11.5865 6.7729 11.6388 2.53592 12.6307C2.31722 12.6819 2.10367 12.7356 1.89528 12.7916C1.34055 14.0625 0.89775 15.3989 0.580037 16.7866C0.919372 16.6911 1.27002 16.6004 1.63181 16.5156C6.77201 15.3124 14.0347 15.3646 22.8121 19.9878C30.7053 24.1451 36.9876 24.0928 41.2246 23.1009C41.3698 23.067 41.5128 23.0319 41.6535 22.9956C41.6689 22.6496 41.6766 22.3013 41.6766 21.9512C41.6766 21.0704 41.6274 20.2017 41.5317 19.3479ZM40.9731 27.6281C35.9235 28.5581 29.0871 28.2011 20.9483 23.9145C13.0552 19.7572 6.7729 19.8095 2.53592 20.8014C1.59543 21.0215 0.749387 21.2896 0.00305281 21.5726C0.00101795 21.6985 0 21.8248 0 21.9512C0 34.0745 9.32962 43.9024 20.8383 43.9024C30.4834 43.9024 38.5981 36.9997 40.9731 27.6281Z" fill="#626262"/>
</svg>
