<svg width="30" height="31" viewBox="0 0 30 31" fill="none" xmlns="http://www.w3.org/2000/svg">
<g clip-path="url(#clip0_98_1422)">
<path d="M10.7551 17.491C10.6813 17.491 10.6066 17.483 10.5316 17.4664C5.72245 16.3976 3.66512 13.3393 2.78607 10.9618C1.85019 8.43062 2.03956 6.15774 2.04811 6.06217C2.09528 5.53332 2.53841 5.12793 3.06942 5.12793H8.14111C8.7538 5.12793 9.24872 5.62988 9.19728 6.24047C9.15304 6.76597 8.71249 7.17863 8.17556 7.17863H4.52864C4.289 7.17863 4.10186 7.38464 4.12413 7.62329C4.19297 8.36131 4.35767 9.32186 4.73448 10.3173C5.76551 13.0414 7.86567 14.7732 10.9766 15.4645C11.5294 15.5873 11.878 16.1351 11.7551 16.6879C11.6489 17.1657 11.2251 17.4909 10.7551 17.491Z" fill="#FE9738"/>
<path d="M19.2449 17.491C19.3186 17.491 19.3934 17.483 19.4683 17.4664C24.2776 16.3977 26.3349 13.3393 27.2139 10.9618C28.1498 8.43062 27.9604 6.15774 27.9518 6.06217C27.9047 5.53332 27.4615 5.12793 26.9305 5.12793H21.8588C21.2462 5.12793 20.7512 5.62988 20.8027 6.24047C20.8469 6.76597 21.2875 7.17863 21.8244 7.17863H25.4713C25.7109 7.17863 25.8981 7.38464 25.8758 7.62329C25.807 8.36131 25.6423 9.32186 25.2655 10.3173C24.2344 13.0414 22.1343 14.7732 19.0234 15.4645C18.4706 15.5873 18.122 16.1351 18.2449 16.6879C18.3511 17.1657 18.7749 17.4909 19.2449 17.491Z" fill="#FE9738"/>
<path d="M21.7171 30.3673H8.28338C8.07404 30.3673 7.9043 30.1976 7.9043 29.9883V27.924C7.9043 27.7147 8.07404 27.5449 8.28338 27.5449H21.7171C21.9264 27.5449 22.0962 27.7147 22.0962 27.924V29.9883C22.0962 30.1976 21.9264 30.3673 21.7171 30.3673Z" fill="#5A5A5A"/>
<path d="M22.0961 27.9235V29.9877C22.0961 30.1975 21.9262 30.3668 21.717 30.3668H20.5452C20.7543 30.3668 20.9243 30.1975 20.9243 29.9877V27.9235C20.9243 27.7143 20.7543 27.5444 20.5452 27.5444H21.717C21.9262 27.5444 22.0961 27.7143 22.0961 27.9235Z" fill="#444444"/>
<path d="M19.6783 27.5446H10.322V26.1846C10.322 25.3769 10.9768 24.7222 11.7845 24.7222H18.2158C19.0235 24.7222 19.6783 25.3769 19.6783 26.1846V27.5446Z" fill="#9C9C9C"/>
<path d="M19.6779 26.1846V27.5445H18.5254V26.1846C18.5254 25.3772 17.8704 24.7222 17.063 24.7222H18.2155C19.0235 24.7222 19.6779 25.3772 19.6779 26.1846Z" fill="#838383"/>
<path d="M16.903 19.2774L17.5576 18.1968H12.4426L13.0972 19.2774C13.5541 20.0316 13.7998 20.9363 13.7998 21.8644C13.7998 22.4314 13.708 22.9931 13.5295 23.5192L13.1212 24.7226H16.8789L16.4706 23.5192C16.292 22.9931 16.2003 22.4314 16.2003 21.8644C16.2004 20.9363 16.4461 20.0316 16.903 19.2774Z" fill="#FE9738"/>
<path d="M16.3804 20.5054C16.2621 20.9419 16.2005 21.4001 16.2005 21.8641C16.2005 22.4313 16.2919 22.9926 16.4706 23.5187L16.879 24.7222H15.6873L15.2789 23.5187C15.1008 22.9926 15.0088 22.4313 15.0088 21.8641C15.0088 21.4001 15.0703 20.9419 15.1887 20.5054C15.3076 20.0689 15.4828 19.6546 15.7113 19.2773L16.3664 18.1963H17.5575L16.9031 19.2773C16.6745 19.6546 16.4988 20.0689 16.3804 20.5054Z" fill="#FE860A"/>
<path d="M15.0001 19.0935C10.7466 19.0935 7.29858 15.6454 7.29858 11.3919V3.69043H22.7016V11.3919C22.7016 15.6453 19.2536 19.0935 15.0001 19.0935Z" fill="#FAC600"/>
<path d="M22.7014 3.69043V11.3923C22.7014 15.6455 19.2532 19.0936 15.0001 19.0936C14.7809 19.0936 14.5636 19.0842 14.3491 19.0666C18.2982 18.7362 21.4 15.4263 21.4 11.3923V3.69043H22.7014Z" fill="#E8B800"/>
<path d="M23.2148 3.69048H6.78532C6.48604 3.69048 6.24341 3.44785 6.24341 3.14856V1.78801C6.24341 1.48872 6.48604 1.24609 6.78532 1.24609H23.2148C23.514 1.24609 23.7567 1.48872 23.7567 1.78801V3.14856C23.7567 3.44785 23.5141 3.69048 23.2148 3.69048Z" fill="#FE9738"/>
<path d="M23.7566 1.78758V3.14807C23.7566 3.44748 23.5141 3.69005 23.2147 3.69005H21.969C22.2684 3.69005 22.511 3.44748 22.511 3.14807V1.78758C22.511 1.48876 22.2684 1.24561 21.969 1.24561H23.2147C23.5141 1.24561 23.7566 1.48876 23.7566 1.78758Z" fill="#FE860A"/>
<path d="M15.5453 8.11863L16.1088 9.26047C16.1973 9.43987 16.3685 9.56427 16.5665 9.59303L17.8267 9.77613C18.3253 9.84861 18.5244 10.4613 18.1636 10.813L17.2518 11.7019C17.1085 11.8415 17.0431 12.0427 17.0769 12.2399L17.2922 13.4949C17.3774 13.9916 16.8561 14.3702 16.4101 14.1358L15.2831 13.5432C15.106 13.4501 14.8944 13.4501 14.7173 13.5432L13.5902 14.1358C13.1442 14.3702 12.623 13.9915 12.7082 13.4949L12.9235 12.2399C12.9573 12.0427 12.8919 11.8415 12.7486 11.7019L11.8368 10.813C11.476 10.4614 11.6751 9.84861 12.1737 9.77613L13.4339 9.59303C13.6318 9.56427 13.8031 9.43993 13.8916 9.26047L14.4551 8.11863C14.678 7.66684 15.3223 7.66684 15.5453 8.11863Z" fill="#F9F7F8"/>
<path d="M17.2517 11.7017C17.1082 11.8411 17.0432 12.0427 17.0765 12.2396L17.2922 13.4946C17.3771 13.9914 16.8562 14.3699 16.4098 14.1356L15.9463 13.8918C16.0459 13.7477 16.094 13.5643 16.06 13.3651L15.8057 11.8821C15.7659 11.6495 15.8432 11.4117 16.0125 11.2464L17.09 10.1965C17.2353 10.0547 17.3039 9.87656 17.3074 9.7002L17.8265 9.77578C18.3251 9.84843 18.5243 10.4613 18.1634 10.8128L17.2517 11.7017Z" fill="#EFEDEF"/>
<path d="M28.3897 6.02305C28.3219 5.26218 27.6947 4.68839 26.9307 4.68839H23.141V4.1299H23.2148C23.756 4.1299 24.1962 3.68964 24.1962 3.14855V1.78799C24.1962 1.2469 23.756 0.806641 23.2148 0.806641H12.0607C11.818 0.806641 11.6213 1.00333 11.6213 1.24608C11.6213 1.48882 11.818 1.68551 12.0607 1.68551H23.2148C23.2713 1.68551 23.3173 1.73145 23.3173 1.78799V3.14855C23.3173 3.20509 23.2713 3.25102 23.2148 3.25102H6.78537C6.72883 3.25102 6.68284 3.20509 6.68284 3.14855V1.78799C6.68284 1.73145 6.72883 1.68551 6.78537 1.68551H10.0004C10.243 1.68551 10.4398 1.48882 10.4398 1.24608C10.4398 1.00333 10.243 0.806641 10.0004 0.806641H6.78537C6.24422 0.806641 5.80397 1.2469 5.80397 1.78799V3.14855C5.80397 3.68964 6.24422 4.1299 6.78537 4.1299H6.85914V4.68839H3.06944C2.30552 4.68839 1.6783 5.26218 1.61045 6.02305C1.60154 6.12254 1.40409 8.49098 2.37396 11.1141C3.26133 13.5142 5.29715 16.5786 9.96162 17.7813C10.7125 18.3746 11.57 18.8388 12.5002 19.1397L12.7214 19.5048C13.1395 20.1949 13.3604 21.0108 13.3604 21.8642C13.3604 22.3855 13.2773 22.8948 13.1135 23.3778L12.8064 24.2829H11.7845C10.7358 24.2829 9.88258 25.1361 9.88258 26.1848V27.1054H8.28327C7.83194 27.1054 7.46474 27.4726 7.46474 27.9239V29.9881C7.46474 30.4394 7.83194 30.8066 8.28327 30.8066H21.717C22.1683 30.8066 22.5355 30.4394 22.5355 29.9881V27.9239C22.5355 27.4726 22.1683 27.1054 21.717 27.1054H20.1177V26.1848C20.1177 25.1361 19.2644 24.2829 18.2158 24.2829H17.1939L16.8867 23.3778C16.7229 22.8948 16.6398 22.3856 16.6398 21.8642C16.6398 21.0109 16.8607 20.195 17.2788 19.5048L17.5 19.1397C18.4302 18.8388 19.2876 18.3746 20.0386 17.7813C24.703 16.5786 26.7389 13.5142 27.6262 11.1141C28.5961 8.49098 28.3986 6.1226 28.3897 6.02305ZM7.02185 13.0144C6.20251 12.2473 5.57481 11.2958 5.14551 10.1616C4.84722 9.37355 4.652 8.51794 4.56511 7.61797H6.85914V11.392C6.85914 11.9474 6.91533 12.49 7.02185 13.0144ZM3.19834 10.8094C2.29632 8.36976 2.47772 6.19261 2.48587 6.10115C2.51299 5.79683 2.76388 5.56732 3.06944 5.56732H6.85914V6.73915H4.52872C4.29131 6.73915 4.0635 6.83976 3.90367 7.01518C3.74365 7.19084 3.66455 7.42731 3.68664 7.66402C3.77916 8.65557 3.99343 9.60059 4.32353 10.4728C4.97548 12.1953 6.03077 13.5402 7.47529 14.4977C7.75952 15.1837 8.13491 15.8227 8.58642 16.3996C5.40267 15.0799 3.90325 12.7158 3.19834 10.8094ZM21.6566 27.9842V29.9278H8.34356V27.9842H21.6566ZM18.2158 25.1618C18.7798 25.1618 19.2388 25.6207 19.2388 26.1848V27.1054H10.7615V26.1848C10.7615 25.6207 11.2204 25.1618 11.7845 25.1618H18.2158ZM16.0545 23.6602L16.2658 24.2829H13.7343L13.9457 23.6601C14.1404 23.086 14.2392 22.4818 14.2392 21.8642C14.2392 20.9998 14.046 20.1653 13.6787 19.4251C14.1089 19.4957 14.5502 19.5329 15.0001 19.5329C15.45 19.5329 15.8913 19.4957 16.3214 19.4251C15.9541 20.1653 15.7609 20.9998 15.7609 21.8642C15.761 22.4818 15.8597 23.086 16.0545 23.6602ZM15.0001 18.654C10.9958 18.654 7.73802 15.3962 7.73802 11.392V4.1299H22.2622V11.392C22.2622 15.3963 19.0044 18.654 15.0001 18.654ZM26.8019 10.8094C26.097 12.7159 24.5975 15.0802 21.4136 16.3999C21.8659 15.822 22.2419 15.1817 22.5264 14.4943C23.7667 13.6707 24.7219 12.5615 25.3796 11.1725C25.4835 10.9532 25.3899 10.6911 25.1706 10.5873C24.9513 10.4834 24.6893 10.577 24.5854 10.7963C24.1782 11.6563 23.6411 12.3972 22.978 13.0171C23.0848 12.4919 23.1412 11.9484 23.1412 11.392V7.61803H25.4352C25.3915 8.07018 25.3188 8.51858 25.2192 8.95146C25.1647 9.18799 25.3123 9.42388 25.5489 9.47825C25.7852 9.53298 26.0212 9.38515 26.0757 9.14862C26.1866 8.66647 26.2667 8.16697 26.3137 7.66402C26.3357 7.42731 26.2566 7.19084 26.0966 7.01518C25.9368 6.83976 25.709 6.73915 25.4716 6.73915H23.1412V5.56732H26.9309C27.2364 5.56732 27.4873 5.79683 27.5144 6.10121C27.5225 6.19261 27.7039 8.36976 26.8019 10.8094Z" fill="black"/>
<path d="M17.8896 9.34123L16.6296 9.15814C16.5747 9.15011 16.5273 9.11566 16.5027 9.06597L15.9392 7.92414C15.7615 7.56403 15.4016 7.34033 15 7.34033C14.5984 7.34033 14.2386 7.56403 14.0609 7.92414L13.4973 9.06597C13.4728 9.11572 13.4254 9.15017 13.3705 9.15814L12.1104 9.34123C11.713 9.39895 11.389 9.67204 11.2649 10.054C11.1408 10.436 11.2424 10.8473 11.5299 11.1277L12.4417 12.0164C12.4815 12.0551 12.4996 12.1109 12.4902 12.1656L12.2749 13.4206C12.207 13.8164 12.3667 14.2088 12.6916 14.4449C13.0164 14.6809 13.4391 14.7115 13.7946 14.5247L14.9216 13.9321C14.9707 13.9063 15.0293 13.9063 15.0784 13.9321L16.2055 14.5247C16.3601 14.6059 16.5274 14.6461 16.6938 14.6461C16.9101 14.6461 17.1249 14.5783 17.3085 14.4449C17.6334 14.2088 17.793 13.8163 17.7251 13.4206L17.5099 12.1655C17.5005 12.1108 17.5186 12.0551 17.5583 12.0164L18.4702 11.1276C18.7577 10.8473 18.8593 10.4358 18.7352 10.0539C18.6111 9.67204 18.287 9.39895 17.8896 9.34123ZM17.8567 10.4983L16.9448 11.3871C16.698 11.6278 16.5853 11.9743 16.6436 12.3141L16.8588 13.5691C16.8743 13.659 16.8235 13.7109 16.7918 13.734C16.7602 13.757 16.6951 13.7893 16.6144 13.7468L15.4873 13.1543C15.3348 13.074 15.1674 13.0339 15 13.0339C14.8326 13.0339 14.6652 13.074 14.5126 13.1543L13.3856 13.7468C13.305 13.7893 13.2398 13.7569 13.2081 13.734C13.1765 13.7109 13.1257 13.659 13.1411 13.5691L13.3564 12.3141C13.4147 11.9743 13.302 11.6278 13.0551 11.3871L12.1433 10.4984C12.0781 10.4347 12.0886 10.3628 12.1007 10.3256C12.1128 10.2884 12.1465 10.2241 12.2367 10.211L13.4967 10.0279C13.838 9.97824 14.1328 9.76409 14.2853 9.45496L14.8489 8.31313C14.8892 8.23139 14.9608 8.21921 14.9999 8.21921C15.039 8.21921 15.1107 8.23139 15.151 8.31313L15.7145 9.45496C15.8671 9.76409 16.1618 9.9783 16.5031 10.0279L17.7632 10.211C17.8534 10.2241 17.8871 10.2884 17.8992 10.3256C17.9114 10.3628 17.9219 10.4347 17.8567 10.4983Z" fill="black"/>
</g>
<defs>
<clipPath id="clip0_98_1422">
<rect width="30" height="30" fill="white" transform="translate(0 0.806641)"/>
</clipPath>
</defs>
</svg>
