<svg width="30" height="31" viewBox="0 0 30 31" fill="none" xmlns="http://www.w3.org/2000/svg">
<g clip-path="url(#clip0_98_1417)">
<path d="M18.6357 17.245L25.6774 17.8852L21.745 11.3922L24.4885 4.16758L17.2639 6.17946L11.3805 1.39355L10.9233 8.77057L4.30835 12.8554L11.4415 15.6599L15.1472 27.0322L18.6357 17.245Z" fill="#FFC144"/>
<path d="M20.4628 25.9636V23.6011H9.83167V25.9636H8.05981V30.216H22.2347V25.9636H20.4628Z" fill="#6D92AC"/>
<path d="M11.7217 25.9634H18.5729V30.2158H11.7217V25.9634Z" fill="white"/>
<path d="M7.41113 10.5751C7.41113 10.2489 7.67555 9.98441 8.00181 9.98441C8.32807 9.98441 8.59249 10.2488 8.59249 10.5751C8.59249 10.9013 8.32807 11.1658 8.00181 11.1658C7.67555 11.1658 7.41113 10.9013 7.41113 10.5751ZM25.6235 18.4734L19.0381 17.8751L17.2075 23.0105H20.4627C20.7888 23.0105 21.0533 23.275 21.0533 23.6011V25.373H22.2346C22.5607 25.373 22.8252 25.6375 22.8252 25.9636V29.6255H23.1205C23.4466 29.6255 23.7111 29.8899 23.7111 30.2161C23.7111 30.5422 23.4466 30.8067 23.1205 30.8067H7.17376C6.84762 30.8067 6.58314 30.5422 6.58314 30.2161C6.58314 29.8899 6.84762 29.6255 7.17376 29.6255H7.46907V25.9636C7.46907 25.6375 7.73355 25.373 8.05969 25.373H9.24093V23.6011C9.24093 23.275 9.50541 23.0105 9.83155 23.0105H13.2153L10.9661 16.108L4.09185 13.4053C3.71739 13.2958 3.52716 12.6785 3.99794 12.3528L5.4296 11.4686C5.43019 11.4686 5.43084 11.4686 5.43084 11.468C6.08867 11.0628 6.70817 12.0686 6.05034 12.4738L5.62279 12.7378L11.6577 15.1104C11.8219 15.1754 11.9483 15.3088 12.0033 15.4772L14.458 23.0105H15.9537L18.0789 17.047C18.1687 16.7954 18.4221 16.633 18.689 16.6572L24.5663 17.1911L21.2393 11.6983C21.146 11.5442 21.1289 11.3516 21.1927 11.1828L23.5215 5.04972L17.4221 6.74899C17.2402 6.79919 17.0376 6.75726 16.8912 6.63795L11.8987 2.57679L11.5125 8.80724C11.5006 8.9986 11.3967 9.17283 11.2337 9.2733L10.5733 9.68136C9.9036 10.0949 9.28286 9.08968 9.95257 8.67612L10.3524 8.42924L10.7907 1.35716C10.826 0.921286 11.3576 0.624086 11.7528 0.93546L17.3997 5.52871L24.33 3.59857C24.8466 3.48765 25.2124 3.94485 25.0405 4.37753L22.3993 11.3327L26.1822 17.5797C26.4584 17.9598 26.1155 18.5085 25.6235 18.4734ZM11.1309 26.5542H8.65031V29.6255H11.1309V26.5542ZM17.9821 26.5542H12.3122V29.6255H17.9821V26.5542ZM19.1633 26.5542V29.6255H21.6439V26.5542H19.1633ZM19.8721 24.1918H10.4222V25.373H19.8721V24.1918Z" fill="black"/>
</g>
<defs>
<clipPath id="clip0_98_1417">
<rect width="30" height="30" fill="white" transform="translate(0 0.806641)"/>
</clipPath>
</defs>
</svg>
