<svg width="119" height="42" viewBox="0 0 119 42" fill="none" xmlns="http://www.w3.org/2000/svg">
<path d="M4.52273 34H0.795455L9.17045 10.7273H13.2273L21.6023 34H17.875L11.2955 14.9545H11.1136L4.52273 34ZM5.14773 24.8864H17.2386V27.8409H5.14773V24.8864ZM24.6903 34V16.5455H27.9744V19.3182H28.1562C28.4744 18.3788 29.035 17.6402 29.8381 17.1023C30.6487 16.5568 31.5653 16.2841 32.5881 16.2841C32.8002 16.2841 33.0502 16.2917 33.3381 16.3068C33.6335 16.322 33.8646 16.3409 34.0312 16.3636V19.6136C33.8949 19.5758 33.6525 19.5341 33.304 19.4886C32.9555 19.4356 32.607 19.4091 32.2585 19.4091C31.4555 19.4091 30.7396 19.5795 30.1108 19.9205C29.4896 20.2538 28.9972 20.7197 28.6335 21.3182C28.2699 21.9091 28.0881 22.5833 28.0881 23.3409V34H24.6903ZM46.1506 16.5455V19.2727H36.6165V16.5455H46.1506ZM39.1733 12.3636H42.571V28.875C42.571 29.5341 42.6695 30.0303 42.8665 30.3636C43.0634 30.6894 43.3172 30.9129 43.6278 31.0341C43.946 31.1477 44.2907 31.2045 44.6619 31.2045C44.9347 31.2045 45.1733 31.1856 45.3778 31.1477C45.5824 31.1098 45.7415 31.0795 45.8551 31.0568L46.4688 33.8636C46.2718 33.9394 45.9915 34.0152 45.6278 34.0909C45.2642 34.1742 44.8097 34.2197 44.2642 34.2273C43.3703 34.2424 42.5369 34.0833 41.7642 33.75C40.9915 33.4167 40.3665 32.9015 39.8892 32.2045C39.4119 31.5076 39.1733 30.6326 39.1733 29.5795V12.3636ZM59.081 17.648C58.2917 17.648 57.513 17.9893 56.745 18.672C55.977 19.3333 55.2837 20.2293 54.665 21.36C54.0677 22.4907 53.5877 23.76 53.225 25.168C52.8623 26.576 52.681 28.0267 52.681 29.52C52.681 30.6507 52.905 31.472 53.353 31.984C53.801 32.4747 54.3877 32.72 55.113 32.72C55.7957 32.72 56.489 32.5173 57.193 32.112C57.897 31.7067 58.6117 30.9707 59.337 29.904L59.977 30.16C59.5503 30.864 58.9957 31.5467 58.313 32.208C57.6517 32.8693 56.873 33.4133 55.977 33.84C55.1023 34.2453 54.1103 34.448 53.001 34.448C51.5077 34.448 50.281 34.0533 49.321 33.264C48.361 32.4533 47.881 31.2053 47.881 29.52C47.881 28.4747 48.041 27.376 48.361 26.224C48.7023 25.072 49.1823 23.952 49.801 22.864C50.4197 21.7547 51.177 20.7627 52.073 19.888C52.969 19.0133 53.9823 18.32 55.113 17.808C56.2437 17.2747 57.4703 17.008 58.793 17.008C59.9663 17.008 60.905 17.3067 61.609 17.904C62.3343 18.48 62.697 19.2053 62.697 20.08C62.697 20.656 62.5583 21.2213 62.281 21.776C62.0037 22.3093 61.6197 22.7573 61.129 23.12C60.6597 23.4613 60.1263 23.632 59.529 23.632C59.017 23.632 58.5797 23.472 58.217 23.152C57.8757 22.8107 57.705 22.352 57.705 21.776C57.705 20.9013 57.993 20.1547 58.569 19.536C59.1663 18.896 59.849 18.48 60.617 18.288C60.4463 18.0747 60.233 17.9147 59.977 17.808C59.7423 17.7013 59.4437 17.648 59.081 17.648ZM67.4295 34H62.9175L66.8215 20.176C66.9708 19.6 67.0135 19.1947 66.9495 18.96C66.9068 18.704 66.7468 18.576 66.4695 18.576C66.0855 18.576 65.7335 18.768 65.4135 19.152C65.0935 19.5147 64.7522 20.1653 64.3895 21.104L63.7815 22.736H63.1735L64.0375 20.304C64.3575 19.4507 64.7415 18.7893 65.1895 18.32C65.6375 17.8507 66.1388 17.52 66.6935 17.328C67.2695 17.1147 67.8562 17.008 68.4535 17.008C69.1362 17.008 69.6588 17.1467 70.0215 17.424C70.3842 17.68 70.6295 18.032 70.7575 18.48C70.8855 18.928 70.9282 19.4187 70.8855 19.952C70.8642 20.464 70.7895 20.976 70.6615 21.488L67.4295 34ZM75.6215 17.712C75.1948 17.712 74.7362 17.84 74.2455 18.096C73.7548 18.352 73.2535 18.8107 72.7415 19.472C72.2295 20.1333 71.6855 21.0507 71.1095 22.224C70.5548 23.3973 69.9788 24.9013 69.3815 26.736C68.8055 28.5493 68.2082 30.7467 67.5895 33.328L68.2935 29.008C68.9762 26.6613 69.5948 24.72 70.1495 23.184C70.7042 21.648 71.2588 20.432 71.8135 19.536C72.3895 18.6187 72.9868 17.968 73.6055 17.584C74.2455 17.2 74.9708 17.008 75.7815 17.008C76.6135 17.008 77.2535 17.2533 77.7015 17.744C78.1495 18.2347 78.3735 18.8533 78.3735 19.6C78.3735 20.1973 78.2348 20.752 77.9575 21.264C77.7015 21.7547 77.3388 22.16 76.8695 22.48C76.4215 22.7787 75.9095 22.928 75.3335 22.928C74.7148 22.928 74.2348 22.768 73.8935 22.448C73.5522 22.1067 73.3815 21.6267 73.3815 21.008C73.3815 20.496 73.4988 20.0267 73.7335 19.6C73.9682 19.152 74.2882 18.768 74.6935 18.448C75.0988 18.128 75.5468 17.9147 76.0375 17.808C75.9735 17.7867 75.9095 17.7653 75.8455 17.744C75.7815 17.7227 75.7068 17.712 75.6215 17.712ZM82.6313 32.72C82.9726 32.72 83.3459 32.5387 83.7513 32.176C84.1566 31.8133 84.5726 31.2907 84.9993 30.608C85.4259 29.904 85.8419 29.0507 86.2473 28.048C86.6526 27.0453 87.0259 25.8827 87.3673 24.56L86.6633 28.048C86.1299 29.6267 85.5433 30.8853 84.9033 31.824C84.2633 32.7627 83.5806 33.4347 82.8553 33.84C82.1299 34.2453 81.3726 34.448 80.5833 34.448C79.3886 34.448 78.4926 34.096 77.8953 33.392C77.2979 32.688 76.9992 31.728 76.9992 30.512C76.9992 29.36 77.1913 28.1547 77.5753 26.896C77.9806 25.6373 78.5139 24.4213 79.1753 23.248C79.8579 22.0747 80.6153 21.0187 81.4473 20.08C82.3006 19.1413 83.1966 18.3947 84.1353 17.84C85.0953 17.2853 86.0339 17.008 86.9513 17.008C87.6553 17.008 88.1993 17.2853 88.5833 17.84C88.9673 18.3947 89.0846 19.2587 88.9353 20.432L88.5833 20.624C88.6899 19.856 88.6473 19.2587 88.4553 18.832C88.2846 18.4053 87.9859 18.192 87.5593 18.192C87.1326 18.192 86.6526 18.4373 86.1193 18.928C85.6073 19.4187 85.0953 20.0907 84.5833 20.944C84.0713 21.7973 83.5913 22.768 83.1433 23.856C82.7166 24.9227 82.3753 26.0533 82.1193 27.248C81.8633 28.4213 81.7352 29.584 81.7352 30.736C81.7352 31.4613 81.8099 31.9733 81.9593 32.272C82.1086 32.5707 82.3326 32.72 82.6313 32.72ZM89.4153 17.488C90.3326 17.4667 91.1646 17.424 91.9113 17.36C92.6579 17.2747 93.3726 17.1573 94.0553 17.008L89.8633 31.28C89.7993 31.5573 89.7459 31.824 89.7033 32.08C89.6819 32.3147 89.7139 32.5067 89.7993 32.656C89.9059 32.8053 90.0766 32.88 90.3113 32.88C90.5886 32.88 90.8979 32.72 91.2393 32.4C91.5806 32.0587 91.9326 31.376 92.2953 30.352L92.8713 28.816H93.4792L92.6793 31.152C92.3806 32.0267 91.9966 32.6987 91.5273 33.168C91.0579 33.6373 90.5566 33.968 90.0233 34.16C89.4899 34.352 88.9673 34.448 88.4553 34.448C87.3459 34.448 86.5566 34.1173 86.0873 33.456C85.7673 32.9867 85.6179 32.4107 85.6393 31.728C85.6819 31.024 85.8313 30.224 86.0873 29.328L89.4153 17.488ZM96.635 18.096L96.827 17.456H107.419L107.227 18.096H96.635ZM108.315 9.552C107.974 9.552 107.664 9.616 107.387 9.744C107.11 9.85067 106.854 10 106.619 10.192C106.342 10.448 106.086 10.8107 105.851 11.28C105.638 11.728 105.435 12.272 105.243 12.912C105.051 13.5307 104.859 14.224 104.667 14.992L98.075 39.568C97.179 39.5893 96.3577 39.632 95.611 39.696C94.8643 39.76 94.139 39.8667 93.435 40.016L99.419 17.744C99.8883 15.9307 100.422 14.4373 101.019 13.264C101.638 12.0693 102.363 11.1307 103.195 10.448C103.814 9.95733 104.496 9.59466 105.243 9.36C106.011 9.104 106.832 8.976 107.707 8.976C109.051 8.976 110.086 9.25333 110.811 9.808C111.558 10.3627 111.931 11.1093 111.931 12.048C111.931 12.4747 111.803 12.912 111.547 13.36C111.312 13.7867 110.971 14.1387 110.523 14.416C110.096 14.6933 109.584 14.832 108.987 14.832C108.368 14.832 107.867 14.6827 107.483 14.384C107.12 14.0853 106.939 13.6587 106.939 13.104C106.939 12.4 107.152 11.7707 107.579 11.216C108.027 10.6613 108.635 10.2453 109.403 9.968C109.296 9.86133 109.147 9.76533 108.955 9.68C108.784 9.59466 108.571 9.552 108.315 9.552ZM118.645 17.456L118.549 18.096H107.445L107.605 17.456H118.645ZM111.029 31.28C110.88 31.8347 110.891 32.24 111.061 32.496C111.253 32.752 111.531 32.88 111.893 32.88C112.341 32.88 112.789 32.656 113.237 32.208C113.685 31.76 114.08 31.0667 114.421 30.128L114.901 28.816H115.509L114.869 30.672C114.443 31.952 113.813 32.9013 112.981 33.52C112.171 34.1387 111.2 34.448 110.069 34.448C109.088 34.448 108.331 34.224 107.797 33.776C107.264 33.328 106.944 32.72 106.837 31.952C106.752 31.1627 106.837 30.2987 107.093 29.36L111.893 12.688C112.811 12.6667 113.643 12.624 114.389 12.56C115.136 12.496 115.851 12.3893 116.533 12.24L111.029 31.28Z" fill="white"/>
</svg>
