<svg width="142" height="32" viewBox="0 0 142 32" fill="none" xmlns="http://www.w3.org/2000/svg">
<mask id="mask0_402_1080" style="mask-type:luminance" maskUnits="userSpaceOnUse" x="0" y="0" width="142" height="32">
<path d="M141.667 0.303589H0V31.1007H141.667V0.303589Z" fill="white"/>
</mask>
<g mask="url(#mask0_402_1080)">
<path d="M9.778 26.5574C7.06566 29.7286 2.47197 29.7161 1.18909 25.4894C0.937912 24.662 0.737091 23.8112 0.589387 22.943C-0.013683 19.3981 0.295834 15.7239 1.47881 12.3848C2.66177 9.04574 4.66504 6.19175 7.23531 4.18382C9.80558 2.17586 12.8275 1.10413 15.9186 1.10413C19.0098 1.10413 22.0317 2.17586 24.6019 4.18382C27.1722 6.19175 29.1756 9.04574 30.3585 12.3849C31.5415 15.7239 31.851 19.3981 31.248 22.943C31.1002 23.8112 30.8994 24.662 30.6481 25.4894C29.3653 29.7161 24.7715 29.7286 22.0593 26.5574L17.8724 21.6621C17.4723 21.1944 17.5137 20.4231 17.624 19.7745C17.691 19.3802 17.6566 18.9714 17.525 18.6C17.3933 18.2284 17.1705 17.911 16.8846 17.6876C16.5987 17.4643 16.2625 17.345 15.9186 17.345C15.5747 17.345 15.2386 17.4643 14.9527 17.6876C14.6667 17.911 14.4439 18.2284 14.3123 18.6C14.1806 18.9714 14.1462 19.3802 14.2134 19.7745C14.3237 20.4231 14.365 21.1944 13.9649 21.6621L9.778 26.5574Z" fill="#626262"/>
<path d="M44.2638 22.1698H48.465V25.0644H41.0566V9.67053H44.2638V22.1698Z" fill="#626262"/>
<path d="M54.1965 25.2394C53.1712 25.2394 52.246 24.9836 51.4208 24.4719C50.6081 23.9603 49.964 23.2294 49.489 22.2791C49.0263 21.3288 48.7949 20.2177 48.7949 18.9458C48.7949 17.6887 49.0324 16.5849 49.5076 15.6346C49.9828 14.6699 50.633 13.9315 51.4583 13.4198C52.2835 12.9083 53.2088 12.6523 54.2341 12.6523C55.2594 12.6523 56.1847 12.9083 57.0099 13.4198C57.8351 13.9315 58.4853 14.6699 58.9604 15.6346C59.4355 16.5849 59.6731 17.6887 59.6731 18.9458C59.6731 20.2031 59.4293 21.3141 58.9417 22.2791C58.4666 23.2294 57.8101 23.9603 56.9723 24.4719C56.1471 24.9836 55.2219 25.2394 54.1965 25.2394ZM54.1965 21.9939C54.8092 21.9939 55.3281 21.7308 55.7533 21.2046C56.191 20.6782 56.4098 19.9254 56.4098 18.9458C56.4098 17.9664 56.1971 17.2135 55.772 16.6872C55.3593 16.161 54.8466 15.8977 54.2341 15.8977C53.6089 15.8977 53.09 16.161 52.6773 16.6872C52.2646 17.1989 52.0584 17.9518 52.0584 18.9458C52.0584 19.9254 52.2585 20.6782 52.6585 21.2046C53.0713 21.7308 53.5839 21.9939 54.1965 21.9939Z" fill="#626262"/>
<path d="M64.7875 12.6523C65.5252 12.6523 66.1693 12.8278 66.7194 13.1788C67.282 13.5294 67.7134 13.9901 68.0136 14.5601V12.8278H71.2207V25.0419C71.2207 26.1676 71.027 27.1838 70.6393 28.0899C70.2642 29.0111 69.6828 29.7421 68.8951 30.2829C68.1199 30.8239 67.1507 31.0943 65.9879 31.0943C64.4375 31.0943 63.1809 30.6631 62.2181 29.8005C61.2554 28.9526 60.7051 27.7976 60.5676 26.3358H63.7373C63.8373 26.8035 64.075 27.1691 64.45 27.4322C64.8251 27.71 65.2878 27.8489 65.8379 27.8489C66.5007 27.8489 67.0257 27.6223 67.4134 27.1691C67.8135 26.7305 68.0136 26.0215 68.0136 25.0419V23.3096C67.701 23.8798 67.2696 24.3476 66.7194 24.7131C66.1693 25.0639 65.5252 25.2394 64.7875 25.2394C63.9249 25.2394 63.1434 24.9836 62.4432 24.4719C61.7429 23.9456 61.1865 23.2074 60.774 22.2571C60.3739 21.2923 60.1738 20.1812 60.1738 18.924C60.1738 17.6667 60.3739 16.563 60.774 15.6128C61.1865 14.6625 61.7429 13.9315 62.4432 13.4198C63.1434 12.9083 63.9249 12.6523 64.7875 12.6523ZM68.0136 18.9458C68.0136 18.0103 67.7885 17.2719 67.3384 16.7311C66.9007 16.1902 66.3631 15.9197 65.7254 15.9197C65.0877 15.9197 64.5438 16.1902 64.0936 16.7311C63.656 17.2575 63.4373 17.9884 63.4373 18.924C63.4373 19.8596 63.656 20.6051 64.0936 21.1607C64.5438 21.7015 65.0877 21.972 65.7254 21.972C66.3631 21.972 66.9007 21.7015 67.3384 21.1607C67.7885 20.6197 68.0136 19.8815 68.0136 18.9458Z" fill="#626262"/>
<path d="M77.7433 25.2394C76.718 25.2394 75.7927 24.9836 74.9675 24.4719C74.1548 23.9603 73.5108 23.2294 73.0357 22.2791C72.5731 21.3288 72.3418 20.2177 72.3418 18.9458C72.3418 17.6887 72.5792 16.5849 73.0545 15.6346C73.5296 14.6699 74.1797 13.9315 75.0049 13.4198C75.8303 12.9083 76.7555 12.6523 77.7808 12.6523C78.806 12.6523 79.7314 12.9083 80.5566 13.4198C81.3818 13.9315 82.032 14.6699 82.5071 15.6346C82.9823 16.5849 83.2199 17.6887 83.2199 18.9458C83.2199 20.2031 82.9761 21.3141 82.4884 22.2791C82.0134 23.2294 81.3569 23.9603 80.5191 24.4719C79.6939 24.9836 78.7686 25.2394 77.7433 25.2394ZM77.7433 21.9939C78.356 21.9939 78.8749 21.7308 79.3001 21.2046C79.7376 20.6782 79.9565 19.9254 79.9565 18.9458C79.9565 17.9664 79.7438 17.2135 79.3187 16.6872C78.9061 16.161 78.3935 15.8977 77.7808 15.8977C77.1556 15.8977 76.6368 16.161 76.224 16.6872C75.8115 17.1989 75.6052 17.9518 75.6052 18.9458C75.6052 19.9254 75.8053 20.6782 76.2054 21.2046C76.618 21.7308 77.1306 21.9939 77.7433 21.9939Z" fill="#626262"/>
<path d="M85.9717 11.5562C85.409 11.5562 84.9464 11.3662 84.5838 10.986C84.2337 10.5913 84.0586 10.1089 84.0586 9.53875C84.0586 8.95399 84.2337 8.47155 84.5838 8.09146C84.9464 7.69675 85.409 7.49939 85.9717 7.49939C86.5219 7.49939 86.9719 7.69675 87.3221 8.09146C87.6847 8.47155 87.8659 8.95399 87.8659 9.53875C87.8659 10.1089 87.6847 10.5913 87.3221 10.986C86.9719 11.3662 86.5219 11.5562 85.9717 11.5562ZM87.5658 12.8281V25.0642H84.3587V12.8281H87.5658Z" fill="#626262"/>
<path d="M92.5334 14.5601C92.8458 13.9901 93.277 13.5294 93.8278 13.1788C94.3777 12.8278 95.022 12.6523 95.7596 12.6523C96.6229 12.6523 97.4039 12.9083 98.1037 13.4198C98.8036 13.9315 99.3542 14.6625 99.7537 15.6128C100.166 16.563 100.373 17.6667 100.373 18.924C100.373 20.1812 100.166 21.2923 99.7537 22.2571C99.3542 23.2074 98.8036 23.9456 98.1037 24.4719C97.4039 24.9836 96.6229 25.2394 95.7596 25.2394C95.0334 25.2394 94.3909 25.0639 93.8278 24.7131C93.277 24.3622 92.8458 23.9091 92.5334 23.3536V30.8969H89.3262V12.8278H92.5334V14.5601ZM97.1102 18.924C97.1102 17.9884 96.8845 17.2575 96.434 16.7311C95.9967 16.1902 95.4527 15.9197 94.8029 15.9197C94.1657 15.9197 93.621 16.1902 93.1705 16.7311C92.734 17.2719 92.515 18.0103 92.515 18.9458C92.515 19.8815 92.734 20.6197 93.1705 21.1607C93.621 21.7015 94.1657 21.972 94.8029 21.972C95.4404 21.972 95.9844 21.7015 96.434 21.1607C96.8845 20.6051 97.1102 19.8595 97.1102 18.924Z" fill="#626262"/>
<path d="M105.752 25.2394C104.84 25.2394 104.027 25.0567 103.313 24.6913C102.6 24.3256 102.038 23.8286 101.625 23.1999C101.213 22.5567 100.982 21.8405 100.932 21.051H104.101C104.139 21.475 104.308 21.8185 104.607 22.0817C104.908 22.3448 105.277 22.4764 105.715 22.4764C106.115 22.4764 106.421 22.3886 106.632 22.2132C106.858 22.0232 106.97 21.782 106.97 21.4896C106.97 21.1387 106.815 20.8829 106.502 20.7221C106.19 20.5467 105.683 20.3566 104.982 20.1519C104.232 19.9472 103.607 19.7353 103.107 19.516C102.607 19.2822 102.175 18.924 101.814 18.4415C101.45 17.9445 101.27 17.2794 101.27 16.4461C101.27 15.7444 101.432 15.1084 101.757 14.5382C102.094 13.9535 102.582 13.493 103.219 13.1568C103.87 12.8205 104.64 12.6523 105.526 12.6523C106.839 12.6523 107.87 13.0325 108.621 13.7927C109.384 14.5529 109.823 15.5615 109.935 16.8188H106.97C106.921 16.3948 106.759 16.0587 106.483 15.8101C106.221 15.5615 105.871 15.4373 105.433 15.4373C105.058 15.4373 104.77 15.5251 104.57 15.7005C104.37 15.8613 104.27 16.0879 104.27 16.3803C104.27 16.7311 104.427 16.9942 104.739 17.1697C105.065 17.3452 105.563 17.5206 106.239 17.6959C107.015 17.9299 107.646 18.1638 108.134 18.3976C108.621 18.617 109.046 18.9824 109.409 19.4942C109.784 19.9911 109.978 20.6636 109.992 21.5115C109.992 22.2278 109.815 22.8711 109.465 23.4412C109.128 23.9968 108.634 24.4353 107.983 24.757C107.346 25.0786 106.602 25.2394 105.752 25.2394Z" fill="#626262"/>
<path d="M121.723 12.8286V25.0647H118.516V23.3982C118.191 23.9391 117.746 24.3776 117.184 24.7138C116.635 25.0355 116.022 25.1962 115.347 25.1962C114.546 25.1962 113.839 24.9916 113.227 24.5822C112.614 24.1583 112.139 23.5516 111.802 22.7622C111.464 21.9727 111.295 21.0445 111.295 19.9772V12.8286H114.483V19.4729C114.483 20.2916 114.666 20.9275 115.026 21.3807C115.389 21.8338 115.877 22.0605 116.49 22.0605C117.116 22.0605 117.609 21.8338 117.972 21.3807C118.335 20.9275 118.516 20.2916 118.516 19.4729V12.8286H121.723Z" fill="#626262"/>
<path d="M136.818 12.6967C138.119 12.6967 139.15 13.1572 139.913 14.0781C140.689 14.999 141.077 16.2782 141.077 17.9156V25.0643H137.887V18.42C137.887 17.6305 137.707 17.0238 137.344 16.5999C136.994 16.1613 136.507 15.942 135.881 15.942C135.256 15.942 134.761 16.1613 134.399 16.5999C134.049 17.0238 133.874 17.6305 133.874 18.42V25.0643H130.686V18.42C130.686 17.6305 130.505 17.0238 130.142 16.5999C129.792 16.1613 129.303 15.942 128.679 15.942C128.054 15.942 127.56 16.1613 127.198 16.5999C126.847 17.0238 126.672 17.6305 126.672 18.42V25.0643H123.465V12.8282H126.672V14.3631C126.998 13.8515 127.423 13.4495 127.947 13.1572C128.473 12.8501 129.066 12.6967 129.729 12.6967C130.518 12.6967 131.217 12.8939 131.83 13.2886C132.454 13.6834 132.942 14.2463 133.293 14.9772C133.655 14.3048 134.15 13.7565 134.775 13.3325C135.4 12.9087 136.082 12.6967 136.818 12.6967Z" fill="#626262"/>
</g>
</svg>
