<svg width="24" height="31" viewBox="0 0 24 31" fill="none" xmlns="http://www.w3.org/2000/svg">
<path d="M15.9063 1.27539L12 7.84598L14.2693 11.6631H16.0247L22.2002 1.27539H15.9063Z" fill="#C61926"/>
<path d="M13.6421 10.6084L14.2691 11.6631H16.0245L16.6515 10.6084H13.6421Z" fill="#AD1729"/>
<path d="M14.2691 11.6631H7.97511L1.79956 1.27539H8.09352L14.2691 11.6631Z" fill="#FF4755"/>
<path d="M7.34814 10.6084L7.97516 11.6631H14.2691L13.6421 10.6084H7.34814Z" fill="#FC2B3A"/>
<path d="M15.1519 14.0435H8.848C7.96183 14.0435 7.24341 13.3251 7.24341 12.4389V11.6631H16.7564V12.4389C16.7564 13.3251 16.038 14.0435 15.1519 14.0435Z" fill="#FFE27A"/>
<path d="M15.1519 12.9887H8.848C8.05704 12.9887 7.4002 12.4162 7.26808 11.6631H7.24341V12.4389C7.24341 13.325 7.96183 14.0435 8.848 14.0435H15.1518C16.038 14.0435 16.7564 13.3251 16.7564 12.4389V11.6631H16.7317C16.5997 12.4162 15.9428 12.9887 15.1519 12.9887Z" fill="#F9CF58"/>
<path d="M17.7561 27.95C20.9373 24.7688 20.9373 19.6111 17.7561 16.4299C14.5749 13.2486 9.41713 13.2486 6.23592 16.4299C3.05471 19.6111 3.05471 24.7688 6.23592 27.95C9.41713 31.1312 14.5749 31.1312 17.7561 27.95Z" fill="#FFCB5B"/>
<path d="M11.9998 29.283C7.67742 29.283 4.14187 25.9168 3.87 21.6631C3.85887 21.8375 3.85254 22.0132 3.85254 22.1904C3.8526 26.69 7.50023 30.3377 11.9998 30.3377C16.4994 30.3377 20.1471 26.69 20.1471 22.1904C20.1471 22.0132 20.1407 21.8375 20.1296 21.6631C19.8578 25.9168 16.3222 29.283 11.9998 29.283Z" fill="#F7B737"/>
<path d="M16.3254 26.5193C18.7164 24.1283 18.7164 20.2516 16.3254 17.8605C13.9343 15.4695 10.0576 15.4695 7.66657 17.8605C5.2755 20.2516 5.2755 24.1283 7.66657 26.5193C10.0576 28.9104 13.9343 28.9104 16.3254 26.5193Z" fill="#FF9838"/>
<path d="M11.9999 27.2594C8.7956 27.2594 6.16655 24.7981 5.89907 21.6631C5.88425 21.8369 5.87622 22.0127 5.87622 22.1904C5.87622 25.5724 8.61788 28.3141 11.9999 28.3141C15.3818 28.3141 18.1235 25.5724 18.1235 22.1904C18.1235 22.0127 18.1155 21.8369 18.1006 21.6631C17.8332 24.7981 15.2041 27.2594 11.9999 27.2594Z" fill="#FF8709"/>
<path d="M12.579 18.7453L13.169 19.9408C13.2631 20.1315 13.445 20.2636 13.6553 20.2942L14.9747 20.4859C15.5044 20.5629 15.7159 21.2139 15.3326 21.5875L14.3779 22.5181C14.2257 22.6665 14.1562 22.8803 14.1921 23.0898L14.4175 24.4038C14.508 24.9315 13.9542 25.3338 13.4804 25.0847L12.3003 24.4643C12.1122 24.3654 11.8874 24.3654 11.6992 24.4643L10.5191 25.0847C10.0453 25.3338 9.49152 24.9315 9.58205 24.4038L9.8074 23.0898C9.84332 22.8803 9.77389 22.6665 9.62166 22.5181L8.66693 21.5875C8.28361 21.2139 8.49514 20.5628 9.02488 20.4859L10.3442 20.2942C10.5546 20.2636 10.7365 20.1315 10.8305 19.9408L11.4205 18.7453C11.6576 18.2652 12.3421 18.2652 12.579 18.7453Z" fill="#FFF5F5"/>
<path d="M11.8635 23.3232L9.57275 24.5274C9.58002 24.9914 10.0832 25.3138 10.5192 25.0846L11.6992 24.4642C11.8874 24.3653 12.1122 24.3653 12.3004 24.4642L13.4804 25.0846C13.9164 25.3138 14.4196 24.9914 14.4268 24.5275L12.1361 23.3232C12.0508 23.2783 11.9488 23.2783 11.8635 23.3232Z" fill="#EFE2DD"/>
<path d="M19.5273 5.7765C19.7363 5.90078 20.0065 5.83205 20.1307 5.62305L22.5986 1.47197C22.6795 1.33592 22.6811 1.16688 22.6028 1.02924C22.5245 0.89166 22.3784 0.806641 22.2201 0.806641H15.9138C15.7584 0.806641 15.6147 0.888437 15.5353 1.02197L11.9999 6.96877L8.46446 1.02197C8.38513 0.888437 8.24128 0.806641 8.08595 0.806641H1.77968C1.62136 0.806641 1.47523 0.89166 1.39694 1.02924C1.31866 1.16682 1.3203 1.33586 1.40116 1.47197L7.19327 11.2146H6.37829C6.13513 11.2146 5.93796 11.4118 5.93796 11.655C5.93796 11.8981 6.13513 12.0953 6.37829 12.0953H6.79372V12.4323C6.79372 13.3903 7.45507 14.1965 8.34511 14.4191C7.05364 15.0261 5.913 15.9509 5.05126 17.129C4.90771 17.3253 4.95042 17.6007 5.14671 17.7443C5.34288 17.8879 5.61845 17.8452 5.76206 17.6489C7.21331 15.6648 9.54523 14.4803 11.9999 14.4803C16.2583 14.4803 19.7228 17.9448 19.7228 22.2032C19.7228 26.4616 16.2583 29.926 11.9999 29.926C7.74148 29.926 4.277 26.4616 4.277 22.2031C4.277 21.1209 4.49632 20.0743 4.92892 19.0926C5.027 18.87 4.92605 18.6102 4.70351 18.5121C4.48097 18.414 4.2211 18.515 4.12302 18.7375C3.64085 19.8319 3.39634 20.9979 3.39634 22.2031C3.3964 26.9471 7.25591 30.8066 11.9999 30.8066C16.7439 30.8066 20.6034 26.9471 20.6034 22.2031C20.6034 18.7671 18.5784 15.7956 15.6594 14.4179C16.5471 14.1937 17.206 13.3885 17.206 12.4322V12.0953H17.6214C17.8646 12.0953 18.0618 11.8981 18.0618 11.6549C18.0618 11.4118 17.8647 11.2146 17.6214 11.2146H16.8065L19.2321 7.13465C19.3563 6.92564 19.2876 6.65547 19.0786 6.53119C18.8695 6.40697 18.5994 6.47564 18.4751 6.68465L15.7821 11.2146H14.5241L12.5121 7.83033L16.1643 1.68725H21.446L19.3737 5.17299C19.2495 5.38205 19.3182 5.65223 19.5273 5.7765ZM16.3253 12.4322C16.3253 13.0759 15.8016 13.5996 15.1579 13.5996H8.84181C8.1981 13.5996 7.67439 13.0759 7.67439 12.4322V12.0953H16.3253V12.4322ZM8.21784 11.2146L2.5537 1.6873H7.83546L13.4996 11.2146H8.21784Z" fill="black"/>
<path d="M17.2124 25.4714C17.4271 25.5858 17.6937 25.5044 17.808 25.2897C18.3104 24.3461 18.5759 23.2789 18.5759 22.2034C18.5759 18.5774 15.6259 15.6274 12 15.6274C8.37403 15.6274 5.42407 18.5774 5.42407 22.2034C5.42407 25.8293 8.37403 28.7793 12 28.7793C13.7779 28.7793 15.4435 28.0809 16.69 26.8128C16.8605 26.6393 16.8581 26.3605 16.6847 26.1901C16.5112 26.0196 16.2325 26.022 16.062 26.1954C14.9824 27.2937 13.5398 27.8986 12 27.8986C8.8596 27.8986 6.30468 25.3437 6.30468 22.2033C6.30468 19.0629 8.8596 16.508 12 16.508C15.1404 16.508 17.6953 19.0629 17.6953 22.2033C17.6953 23.1351 17.4655 24.0592 17.0307 24.8758C16.9164 25.0905 16.9978 25.3572 17.2124 25.4714Z" fill="black"/>
<path d="M15.6467 21.9143C15.9452 21.6232 16.0507 21.1961 15.9219 20.7996C15.793 20.403 15.4566 20.1195 15.044 20.0595L13.722 19.8674C13.6546 19.8576 13.5965 19.8153 13.5663 19.7542L12.9751 18.5563C12.7906 18.1825 12.417 17.9502 12 17.9502C11.5831 17.9502 11.2094 18.1825 11.0249 18.5563L10.4337 19.7543C10.4036 19.8154 10.3454 19.8576 10.278 19.8674L8.95606 20.0595C8.54344 20.1195 8.20706 20.403 8.07821 20.7996C7.94936 21.1962 8.05477 21.6233 8.35337 21.9144L9.30991 22.8468C9.35866 22.8943 9.38092 22.9627 9.36938 23.0298L9.14356 24.3464C9.07307 24.7574 9.23883 25.165 9.57622 25.41C9.76682 25.5485 9.98983 25.6189 10.2144 25.6189C10.3872 25.6189 10.5609 25.5772 10.7214 25.4928L11.9038 24.8712C11.9641 24.8395 12.0361 24.8395 12.0963 24.8712L13.2788 25.4928C13.6478 25.6869 14.0866 25.6552 14.4239 25.4101C14.7612 25.165 14.9271 24.7574 14.8566 24.3465L14.6307 23.0298C14.6192 22.9627 14.6415 22.8943 14.6902 22.8468L15.6467 21.9143ZM14.0754 22.2162C13.819 22.4661 13.7022 22.8259 13.7627 23.1787L13.9885 24.4954C14.0081 24.6097 13.9375 24.6749 13.9062 24.6976C13.8749 24.7204 13.7912 24.7674 13.6884 24.7134L12.506 24.0918C12.1892 23.9252 11.8109 23.9252 11.4939 24.0918L10.3116 24.7134C10.2087 24.7675 10.1251 24.7204 10.0938 24.6976C10.0625 24.6749 9.99188 24.6097 10.0115 24.4953L10.2373 23.1787C10.2979 22.8259 10.181 22.4661 9.92462 22.2162L8.96807 21.2838C8.88499 21.2027 8.9038 21.1085 8.91575 21.0718C8.9277 21.035 8.9679 20.9477 9.08274 20.931L10.4047 20.7389C10.759 20.6875 11.0651 20.4651 11.2235 20.1441L11.8147 18.9462C11.866 18.8421 11.9615 18.8309 12.0001 18.8309C12.0387 18.8309 12.1342 18.8421 12.1856 18.9462L12.7768 20.1441C12.9352 20.4651 13.2413 20.6875 13.5956 20.739L14.9175 20.931C15.0323 20.9477 15.0725 21.035 15.0845 21.0718C15.0965 21.1086 15.1153 21.2029 15.0322 21.2838L14.0754 22.2162Z" fill="black"/>
</svg>
