<svg width="18" height="19" viewBox="0 0 18 19" fill="none" xmlns="http://www.w3.org/2000/svg">
<path d="M13.6578 11.6036C13.2753 11.0801 12.7006 10.7299 12.06 10.6298C11.4195 10.5297 10.7654 10.6879 10.2414 11.0698L9.23605 11.7993C7.78997 10.4908 6.62989 8.89759 5.82857 7.1196L6.82501 6.39006C7.35048 6.00727 7.70269 5.43171 7.80443 4.78961C7.90616 4.14751 7.74911 3.49127 7.36772 2.96479L6.33569 1.5324C6.14948 1.27078 5.91252 1.0493 5.63892 0.881171C5.36532 0.71304 5.06069 0.601689 4.74316 0.553751C4.11587 0.461234 3.47728 0.61769 2.9638 0.989695L1.38016 2.11069C0.877109 2.47375 0.485571 2.97021 0.249756 3.54403C0.013941 4.11785 -0.0567583 4.74616 0.0456402 5.35803C0.497686 7.99252 1.55176 10.4871 3.12577 12.6475C4.69978 14.8079 6.75124 16.5758 9.12039 17.8136C9.59662 18.0583 10.1241 18.1863 10.6595 18.1872C11.3638 18.1892 12.05 17.9646 12.6168 17.5467L14.1649 16.4791C14.6898 16.0979 15.0418 15.5239 15.1436 14.8832C15.2453 14.2426 15.0885 13.5877 14.7076 13.0627L13.6578 11.6036ZM13.382 15.3847L11.8339 16.4791C11.533 16.6972 11.1774 16.8277 10.8067 16.856C10.4361 16.8842 10.0649 16.8092 9.73427 16.6392C7.53925 15.4903 5.64072 13.8478 4.18802 11.8409C2.73533 9.834 1.76808 7.5174 1.36237 5.07333C1.30051 4.70619 1.34273 4.32906 1.48425 3.98469C1.62578 3.64032 1.86094 3.34248 2.16308 3.12493L3.70223 2.06621C3.895 1.93001 4.12458 1.85555 4.3606 1.85269H4.52964C4.67456 1.87507 4.81363 1.9259 4.93883 2.00225C5.06404 2.07859 5.17291 2.17894 5.25917 2.29753L6.309 3.75661C6.48036 3.99522 6.55035 4.29195 6.50368 4.582C6.457 4.87205 6.29746 5.13184 6.05989 5.30465L4.6186 6.35448C4.49841 6.44265 4.41121 6.56853 4.37089 6.71204C4.33058 6.85555 4.33948 7.00843 4.39618 7.14629C5.33779 9.47854 6.83784 11.5438 8.76452 13.1605C8.88093 13.2529 9.02517 13.3032 9.17377 13.3032C9.32238 13.3032 9.46662 13.2529 9.58303 13.1605L11.0243 12.1196C11.1428 12.0334 11.2771 11.9714 11.4196 11.9372C11.5621 11.9031 11.7099 11.8974 11.8546 11.9206C11.9992 11.9437 12.1379 11.9952 12.2626 12.0721C12.3873 12.149 12.4956 12.2498 12.5813 12.3687L13.6222 13.81C13.7105 13.9289 13.7744 14.0642 13.8101 14.2079C13.8459 14.3516 13.8528 14.501 13.8304 14.6475C13.8081 14.7939 13.757 14.9344 13.68 15.061C13.603 15.1875 13.5017 15.2976 13.382 15.3847ZM9.57413 3.94344C9.60341 3.85681 9.65041 3.77723 9.71215 3.70977C9.77388 3.6423 9.84899 3.58844 9.93269 3.55162C10.0164 3.51479 10.1068 3.4958 10.1983 3.49586C10.2897 3.49592 10.3802 3.51504 10.4638 3.55198C11.4779 3.92696 12.3576 4.59487 12.9912 5.47088C13.6249 6.34688 13.9838 7.39146 14.0225 8.47192C14.0274 8.64741 13.9628 8.81774 13.8429 8.94597C13.723 9.07421 13.5574 9.15002 13.382 9.15697C13.2095 9.15711 13.0437 9.09049 12.9193 8.97107C12.7949 8.85165 12.7216 8.68871 12.7147 8.5164C12.6863 7.70236 12.4178 6.91489 11.9428 6.25314C11.4679 5.59139 10.8078 5.08494 10.0457 4.79753C9.95693 4.77521 9.87374 4.73487 9.80125 4.67903C9.72877 4.62319 9.66854 4.55304 9.62432 4.47294C9.5801 4.39284 9.55282 4.3045 9.54419 4.21341C9.53555 4.12232 9.54575 4.03042 9.57413 3.94344ZM17.2076 8.30288C17.2225 8.47951 17.1675 8.65494 17.0543 8.79138C16.9412 8.92783 16.779 9.01439 16.6026 9.03242H16.5403C16.3742 9.03116 16.2144 8.96878 16.0913 8.8572C15.9682 8.74562 15.8906 8.59264 15.8731 8.42743C15.7441 6.98754 15.2278 5.60942 14.3788 4.43932C13.5298 3.26922 12.3798 2.3508 11.051 1.78151C10.8882 1.7119 10.7597 1.58047 10.6938 1.41613C10.6279 1.25178 10.63 1.06799 10.6996 0.905176C10.7692 0.742365 10.9006 0.613873 11.065 0.547969C11.2293 0.482064 11.4131 0.484144 11.5759 0.553751C13.1295 1.21267 14.4745 2.28203 15.4666 3.64717C16.4587 5.0123 17.0606 6.62173 17.2076 8.30288Z" fill="white"/>
</svg>
