<svg width="21" height="12" viewBox="0 0 21 12" fill="none" xmlns="http://www.w3.org/2000/svg">
<path d="M10.7077 11.4375C10.3952 11.4375 10.1868 11.3333 9.97852 11.125L5.60352 6.75C5.18685 6.33333 5.18685 5.70833 5.60352 5.29167C6.02018 4.875 6.64518 4.875 7.06185 5.29167L10.7077 8.9375L18.8327 0.8125C19.2493 0.395833 19.8743 0.395833 20.291 0.8125C20.7077 1.22917 20.7077 1.85417 20.291 2.27083L11.4368 11.125C11.3327 11.3333 11.0202 11.4375 10.7077 11.4375Z" fill="black"/>
<path d="M5.50065 11.4375C5.18815 11.4375 4.97982 11.3333 4.77148 11.125L0.396484 6.75C-0.0201823 6.33333 -0.0201823 5.70833 0.396484 5.29167C0.813151 4.875 1.43815 4.875 1.85482 5.29167L6.22982 9.66667C6.64648 10.0833 6.64648 10.7083 6.22982 11.125C6.12565 11.3333 5.81315 11.4375 5.50065 11.4375ZM11.0215 6.02083C10.709 6.02083 10.5007 5.91667 10.2923 5.70833C9.87565 5.29167 9.87565 4.66667 10.2923 4.25L13.6257 0.8125C14.0423 0.395833 14.6673 0.395833 15.084 0.8125C15.5007 1.22917 15.5007 1.85417 15.084 2.27083L11.7507 5.70833C11.5423 5.91667 11.334 6.02083 11.0215 6.02083Z" fill="black"/>
</svg>
