<svg width="30" height="31" viewBox="0 0 30 31" fill="none" xmlns="http://www.w3.org/2000/svg">
<g clip-path="url(#clip0_98_1397)">
<path d="M26.3055 27.0886L22.8512 26.3284L21.7807 29.7082C21.7037 29.9512 21.3746 29.9868 21.2474 29.7659L16.9741 22.3426C19.0791 21.8865 20.952 20.8056 22.3901 19.3032L26.6224 26.6563C26.7494 26.8769 26.5541 27.1434 26.3055 27.0886Z" fill="#FD646F"/>
<path d="M26.3055 27.0882L23.1127 26.3855C22.9646 26.3529 22.8161 26.4386 22.7704 26.5831L21.7807 29.7077C21.7037 29.9507 21.3746 29.9863 21.2474 29.7654L17.5865 23.4055L16.9741 22.3421C19.0791 21.8861 20.952 20.8051 22.3901 19.3027L22.9977 20.3578L26.6225 26.6559C26.7494 26.8765 26.5541 27.1429 26.3055 27.0882Z" fill="#FD646F"/>
<path d="M26.3053 27.0883L23.1127 26.3856C22.9645 26.3534 22.8162 26.439 22.7705 26.5831L23.1141 25.5153C23.1605 25.3712 23.3089 25.2862 23.4567 25.319L26.204 25.9297L26.6224 26.6564C26.7495 26.8767 26.5538 27.1434 26.3053 27.0883Z" fill="#FC4755"/>
<path d="M13.0936 22.2531L8.75281 29.7926C8.62564 30.0135 8.29654 29.9778 8.21954 29.7348L7.22976 26.6102C7.18399 26.4657 7.0355 26.38 6.88747 26.4125L3.69469 27.1152C3.44611 27.17 3.25079 26.9035 3.37778 26.6829L7.415 19.6689C8.92222 21.0979 10.9553 21.9011 13.0936 22.2531Z" fill="#FD646F"/>
<path d="M7.98648 20.7124L4.38895 26.9623L3.69499 27.1152C3.4464 27.17 3.25103 26.9035 3.37802 26.6829L6.81451 20.7124L7.74381 19.0938C7.99404 19.3306 8.2554 19.5558 8.5279 19.7674L7.98648 20.7124Z" fill="#FC4755"/>
<path d="M9.17642 29.0568L8.75273 29.7928C8.62557 30.0138 8.29681 29.9786 8.21946 29.7354L7.22968 26.6108C7.18397 26.4661 7.03571 26.3805 6.88745 26.4127L7.98212 26.1719C8.13015 26.1394 8.27859 26.2251 8.32435 26.3695L9.17642 29.0568Z" fill="#FC4755"/>
<path d="M7.51281 19.4907L10.3678 20.7782L13.0938 22.2534L12.3628 23.5221C10.3247 23.1083 8.43361 22.1596 6.87071 20.7624C6.85196 20.746 6.83321 20.7295 6.81445 20.7124L7.51281 19.4907Z" fill="#FC4755"/>
<path d="M22.9977 20.3578L22.3901 19.3027L19.1744 20.7221L16.9741 22.3421L17.2214 22.7715L17.8287 23.8262L21.2474 29.7654C21.3746 29.9863 21.7037 29.9507 21.7807 29.7076L21.9984 29.0204L18.6004 23.1016C20.2454 22.5291 21.7429 21.5979 22.9977 20.3578Z" fill="#FC4755"/>
<path d="M25.6356 11.9152C25.6356 14.7823 24.5075 17.3862 22.6716 19.303C21.2335 20.8054 19.3606 21.8863 17.2556 22.3424C16.5284 22.5 15.7742 22.5828 15.0001 22.5828C14.4094 22.5828 13.8304 22.5346 13.266 22.4418C11.2373 22.1079 9.40128 21.198 7.93156 19.8849C7.85187 19.8144 7.77393 19.7427 7.69657 19.6692C7.42232 19.4094 7.16213 19.1349 6.916 18.8475C6.68043 18.5713 6.45891 18.2827 6.25205 17.9829C5.63088 17.0842 5.1439 16.0844 4.81983 15.0134C4.5239 14.033 4.3645 12.9932 4.3645 11.9152C4.3645 6.02386 9.12644 1.24756 15.0001 1.24756C16.0742 1.24756 17.1115 1.40742 18.0883 1.70488C19.1566 2.02877 20.1529 2.51721 21.0495 3.14085C21.3483 3.34836 21.6361 3.57051 21.9109 3.80738C22.2789 4.12242 22.6247 4.46278 22.9464 4.82482C24.6195 6.70973 25.6356 9.19372 25.6356 11.9152Z" fill="#FAA515"/>
<path d="M15 19.5559C19.2072 19.5559 22.6177 16.135 22.6177 11.9151C22.6177 7.69529 19.2072 4.27441 15 4.27441C10.7929 4.27441 7.38232 7.69529 7.38232 11.9151C7.38232 16.135 10.7929 19.5559 15 19.5559Z" fill="#FAD207"/>
<path d="M22.6177 11.915C22.6177 16.1347 19.2071 19.5557 15.0002 19.5557C10.7932 19.5557 7.38257 16.1347 7.38257 11.915C7.38257 11.5964 7.40191 11.2826 7.44 10.9746C7.90178 14.7511 11.1108 17.6747 15.0002 17.6747C18.8895 17.6747 22.0985 14.7511 22.5603 10.9746C22.5984 11.2826 22.6177 11.5964 22.6177 11.915Z" fill="#FAA515"/>
<path fill-rule="evenodd" clip-rule="evenodd" d="M15.0002 4.27441C10.7932 4.27441 7.38257 7.69532 7.38257 11.915C7.38257 16.1347 10.7932 19.5556 15.0002 19.5556C19.2071 19.5556 22.6177 16.1347 22.6177 11.915C22.6177 7.69532 19.2071 4.27441 15.0002 4.27441ZM15.0002 18.6739C11.2842 18.6739 8.26159 15.6421 8.26159 11.915C8.26159 8.18793 11.2842 5.15613 15.0002 5.15613C18.7161 5.15613 21.7387 8.18793 21.7387 11.915C21.7387 15.6421 18.7161 18.6739 15.0002 18.6739Z" fill="#FAF063"/>
<path d="M15.2632 7.69008L16.3096 9.82768C16.3522 9.91476 16.4352 9.97512 16.5311 9.98889L18.8829 10.3268C19.1235 10.3614 19.2198 10.6571 19.0456 10.8267L17.3399 12.4877C17.2706 12.5551 17.2391 12.6523 17.2556 12.7475L17.662 15.096C17.7036 15.3359 17.4513 15.5189 17.2361 15.4049L15.1372 14.2926C15.0514 14.2472 14.9486 14.2472 14.8628 14.2926L12.7639 15.4049C12.5487 15.5189 12.2964 15.336 12.338 15.096L12.7444 12.7475C12.7609 12.6523 12.7294 12.5551 12.6601 12.4877L10.9544 10.8267C10.7802 10.6571 10.8765 10.3614 11.1171 10.3268L13.4689 9.98889C13.5648 9.97512 13.6477 9.91476 13.6904 9.82768L14.7368 7.69008C14.844 7.47115 15.156 7.47115 15.2632 7.69008Z" fill="#FAA515"/>
<path d="M22.3753 13.8864C22.6134 13.9349 22.8454 13.7814 22.8941 13.5429C23.0027 13.0105 23.0577 12.4627 23.0577 11.9145C23.0577 7.45812 19.4431 3.83252 15.0001 3.83252C10.557 3.83252 6.94238 7.45812 6.94238 11.9145C6.94238 16.3709 10.557 19.9965 15.0001 19.9965C18.0285 19.9965 20.7735 18.3186 22.164 15.6177C22.2753 15.4014 22.1908 15.1354 21.9751 15.0237C21.7594 14.912 21.4943 14.9969 21.3829 15.2131C20.144 17.6198 17.6982 19.1148 15.0001 19.1148C11.0418 19.1148 7.82146 15.8848 7.82146 11.9145C7.82146 7.94416 11.0418 4.71412 15.0001 4.71412C18.9585 4.71412 22.1788 7.94416 22.1788 11.9145C22.1788 12.4034 22.1297 12.8918 22.0329 13.3661C21.9842 13.6046 22.1376 13.8376 22.3753 13.8864Z" fill="black"/>
<path d="M19.8899 10.2752C19.8381 10.1153 19.7002 9.9989 19.5343 9.97505L16.6698 9.56349L15.3944 6.95814C15.2487 6.63437 14.751 6.63443 14.6054 6.95814L13.33 9.56344L10.4655 9.97499C10.1131 10.014 9.95997 10.489 10.2217 10.7276L12.2979 12.7494L11.8029 15.609C11.731 15.9561 12.1331 16.2504 12.4413 16.0742L14.9999 14.7184L17.5585 16.0742C17.8662 16.2504 18.2689 15.9561 18.1968 15.609L17.7018 12.7494L19.778 10.7276C19.8983 10.6106 19.9417 10.4351 19.8899 10.2752ZM16.923 12.2791C16.8187 12.3806 16.7713 12.5271 16.796 12.6708L17.1776 14.8753L15.2051 13.83C15.0767 13.762 14.923 13.762 14.7945 13.83L12.8221 14.8753L13.2036 12.6708C13.2285 12.5271 13.1809 12.3806 13.0767 12.2791L11.4761 10.7205L13.6844 10.4031C13.8282 10.3824 13.9525 10.2919 14.0166 10.1611L14.9998 8.15261L15.983 10.1611C16.0471 10.2918 16.1714 10.3824 16.3152 10.4031L18.5235 10.7205L16.923 12.2791Z" fill="black"/>
<path d="M27.3338 27.0104L23.038 19.5474C24.919 17.5557 26.0744 14.868 26.0744 11.9145C26.0744 5.78957 21.1064 0.806641 14.9999 0.806641C13.1211 0.806641 11.265 1.28723 9.63207 2.19649C9.41982 2.31469 9.34328 2.58302 9.46113 2.79592C9.57892 3.0087 9.84649 3.08547 10.0587 2.96739C11.5614 2.13062 13.27 1.68836 14.9999 1.68836C20.6217 1.68836 25.1953 6.27584 25.1953 11.9145C25.1953 17.5533 20.6217 22.1407 14.9999 22.1407C9.37815 22.1407 4.80455 17.5533 4.80455 11.9145C4.80455 8.88946 6.12935 6.03622 8.43936 4.08644C8.62507 3.92968 8.64892 3.65156 8.49263 3.46532C8.33634 3.27903 8.0591 3.255 7.87339 3.41188C5.36449 5.52955 3.92554 8.62862 3.92554 11.9145C3.92554 14.873 5.08485 17.5649 6.97151 19.5577L5.75489 21.6713C5.46335 22.1606 6.23478 22.613 6.51612 22.1121L7.62211 20.1908C8.94526 21.3787 10.5538 22.2527 12.3304 22.6954L8.53781 29.2842L7.56767 26.2216C7.49893 26.0045 7.27647 25.8758 7.05461 25.9245L3.92524 26.6131L5.49048 23.8938C5.61185 23.6829 5.53983 23.4133 5.32962 23.2916C5.11936 23.1699 4.85062 23.2421 4.72925 23.4529L2.66602 27.0373C2.47029 27.3522 2.78111 27.7801 3.14081 27.6884L6.85126 26.8719L8.00155 30.5032C8.10211 30.8604 8.62542 30.9186 8.80105 30.5901L13.2383 22.8813C13.8121 22.9737 14.4003 23.0224 14.9998 23.0224C15.6041 23.0224 16.1971 22.9728 16.7754 22.8789L19.4404 27.5088C19.5218 27.6503 19.6695 27.7293 19.8214 27.7293C19.896 27.7293 19.9716 27.7103 20.0408 27.6702C20.251 27.5484 20.323 27.2788 20.2016 27.068L17.6828 22.6921C19.4587 22.2471 21.0661 21.3712 22.3878 20.1816L26.0744 26.5862L22.945 25.8976C22.7231 25.8488 22.5007 25.9776 22.4319 26.1947L21.4618 29.2573L21.2272 28.8496C21.1058 28.6388 20.837 28.5666 20.6268 28.6883C20.4166 28.8101 20.3446 29.0797 20.4659 29.2905L21.1985 30.5633C21.3742 30.8918 21.8974 30.8335 21.998 30.4764L23.1483 26.8451L26.8587 27.6616C27.2188 27.7529 27.5294 27.3253 27.3338 27.0104Z" fill="black"/>
</g>
<defs>
<clipPath id="clip0_98_1397">
<rect width="30" height="30" fill="white" transform="translate(0 0.806641)"/>
</clipPath>
</defs>
</svg>
