<svg width="160" height="41" viewBox="0 0 160 41" fill="none" xmlns="http://www.w3.org/2000/svg">
<path d="M0 30.4067L3.13606e-06 10.1356L9.8851 15.7664V24.8321L17.7933 29.3931L25.7013 24.8321V15.7664L35.5865 10.1356V30.4067L17.7933 40.5422L0 30.4067Z" fill="#626262"/>
<path fill-rule="evenodd" clip-rule="evenodd" d="M4.94257 12.951L3.13606e-06 10.1356L17.7932 0L35.5865 10.1356L30.6439 12.951V27.8728L17.7932 35.4745L4.94256 27.8728L4.94257 12.951ZM30.1085 13.2561L25.7013 15.7664L25.7013 15.7101L17.7932 11.1491L9.8851 15.7101V15.7664L5.478 13.2561V27.561L17.7932 34.8459L30.1085 27.561V13.2561Z" fill="#626262"/>
<path d="M45.0603 28.8047V11.7769H48.1919V25.8856H55.7838V28.8047H45.0603Z" fill="#626262"/>
<path d="M62.5449 29.1452C61.3746 29.1452 60.3228 28.902 59.3896 28.4154C58.4565 27.9289 57.721 27.2235 57.1833 26.2991C56.6455 25.3748 56.3766 24.2639 56.3766 22.9666V22.5773C56.3766 21.28 56.6455 20.1691 57.1833 19.2448C57.721 18.3204 58.4565 17.615 59.3896 17.1285C60.3228 16.6419 61.3746 16.3987 62.5449 16.3987C63.7154 16.3987 64.7672 16.6419 65.7003 17.1285C66.6335 17.615 67.3689 18.3204 67.9067 19.2448C68.4444 20.1691 68.7133 21.28 68.7133 22.5773V22.9666C68.7133 24.2639 68.4444 25.3748 67.9067 26.2991C67.3689 27.2235 66.6335 27.9289 65.7003 28.4154C64.7672 28.902 63.7154 29.1452 62.5449 29.1452ZM62.5449 26.4207C63.4623 26.4207 64.2215 26.1208 64.8225 25.5207C65.4236 24.9045 65.724 24.0287 65.724 22.8935V22.6503C65.724 21.5152 65.4236 20.6475 64.8225 20.0475C64.2373 19.4313 63.4781 19.1232 62.5449 19.1232C61.6277 19.1232 60.8684 19.4313 60.2675 20.0475C59.6664 20.6475 59.366 21.5152 59.366 22.6503V22.8935C59.366 24.0287 59.6664 24.9045 60.2675 25.5207C60.8684 26.1208 61.6277 26.4207 62.5449 26.4207Z" fill="#626262"/>
<path d="M69.8356 22.8206V22.4314C69.8356 21.1665 70.0807 20.0881 70.571 19.1961C71.0613 18.2879 71.7098 17.5987 72.5164 17.1285C73.3389 16.6419 74.2325 16.3987 75.1972 16.3987C76.2728 16.3987 77.0873 16.5933 77.6408 16.9825C78.1944 17.3717 78.5978 17.7772 78.8508 18.1988H79.2779V16.7392H82.2197V30.9453C82.2197 31.7723 81.9824 32.4291 81.5079 32.9157C81.0334 33.4183 80.4008 33.6697 79.61 33.6697H71.7335V30.994H78.5661C79.0089 30.994 79.2304 30.7506 79.2304 30.2641V27.1261H78.8033C78.6451 27.3856 78.4237 27.6532 78.1391 27.9289C77.8543 28.1884 77.4748 28.4073 77.0003 28.5857C76.5258 28.7641 75.9248 28.8533 75.1972 28.8533C74.2325 28.8533 73.3389 28.6181 72.5164 28.1478C71.7098 27.6613 71.0613 26.9721 70.571 26.0802C70.0807 25.1721 69.8356 24.0856 69.8356 22.8206ZM76.0514 26.1775C76.9686 26.1775 77.7357 25.8775 78.3526 25.2775C78.9695 24.6775 79.2779 23.8342 79.2779 22.7477V22.5044C79.2779 21.4016 78.9695 20.5584 78.3526 19.9746C77.7515 19.3746 76.9845 19.0745 76.0514 19.0745C75.134 19.0745 74.3669 19.3746 73.7501 19.9746C73.1333 20.5584 72.8248 21.4016 72.8248 22.5044V22.7477C72.8248 23.8342 73.1333 24.6775 73.7501 25.2775C74.3669 25.8775 75.134 26.1775 76.0514 26.1775Z" fill="#626262"/>
<path d="M90.0652 29.1452C88.8947 29.1452 87.843 28.902 86.9098 28.4154C85.9766 27.9289 85.2412 27.2235 84.7035 26.2991C84.1658 25.3748 83.8969 24.2639 83.8969 22.9666V22.5773C83.8969 21.28 84.1658 20.1691 84.7035 19.2448C85.2412 18.3204 85.9766 17.615 86.9098 17.1285C87.843 16.6419 88.8947 16.3987 90.0652 16.3987C91.2355 16.3987 92.2873 16.6419 93.2205 17.1285C94.1537 17.615 94.8891 18.3204 95.4268 19.2448C95.9646 20.1691 96.2335 21.28 96.2335 22.5773V22.9666C96.2335 24.2639 95.9646 25.3748 95.4268 26.2991C94.8891 27.2235 94.1537 27.9289 93.2205 28.4154C92.2873 28.902 91.2355 29.1452 90.0652 29.1452ZM90.0652 26.4207C90.9825 26.4207 91.7417 26.1208 92.3427 25.5207C92.9437 24.9045 93.2443 24.0287 93.2443 22.8935V22.6503C93.2443 21.5152 92.9437 20.6475 92.3427 20.0475C91.7575 19.4313 90.9984 19.1232 90.0652 19.1232C89.1478 19.1232 88.3887 19.4313 87.7876 20.0475C87.1867 20.6475 86.8861 21.5152 86.8861 22.6503V22.8935C86.8861 24.0287 87.1867 24.9045 87.7876 25.5207C88.3887 26.1208 89.1478 26.4207 90.0652 26.4207Z" fill="#626262"/>
<path d="M97.9251 28.8047V16.7392H100.914V28.8047H97.9251ZM99.4197 15.3284C98.882 15.3284 98.4233 15.15 98.0437 14.7932C97.68 14.4364 97.4981 13.9661 97.4981 13.3824C97.4981 12.7986 97.68 12.3283 98.0437 11.9715C98.4233 11.6148 98.882 11.4363 99.4197 11.4363C99.9733 11.4363 100.432 11.6148 100.796 11.9715C101.16 12.3283 101.341 12.7986 101.341 13.3824C101.341 13.9661 101.16 14.4364 100.796 14.7932C100.432 15.15 99.9733 15.3284 99.4197 15.3284Z" fill="#626262"/>
<path d="M103.159 33.6697V16.7392H106.101V18.1988H106.529C106.797 17.7285 107.216 17.3149 107.786 16.9581C108.355 16.5851 109.17 16.3987 110.229 16.3987C111.179 16.3987 112.056 16.6419 112.862 17.1285C113.669 17.5987 114.318 18.296 114.808 19.2205C115.298 20.1448 115.543 21.2638 115.543 22.5773V22.9666C115.543 24.2801 115.298 25.3991 114.808 26.3234C114.318 27.2478 113.669 27.9533 112.862 28.4398C112.056 28.9101 111.179 29.1452 110.229 29.1452C109.517 29.1452 108.916 29.0559 108.426 28.8776C107.951 28.7154 107.564 28.5046 107.264 28.2451C106.979 27.9694 106.75 27.6938 106.576 27.4181H106.149V33.6697H103.159ZM109.328 26.4694C110.261 26.4694 111.028 26.1693 111.629 25.5693C112.246 24.9531 112.554 24.0612 112.554 22.8935V22.6503C112.554 21.4827 112.246 20.5988 111.629 19.9988C111.012 19.3826 110.245 19.0745 109.328 19.0745C108.41 19.0745 107.643 19.3826 107.026 19.9988C106.41 20.5988 106.101 21.4827 106.101 22.6503V22.8935C106.101 24.0612 106.41 24.9531 107.026 25.5693C107.643 26.1693 108.41 26.4694 109.328 26.4694Z" fill="#626262"/>
<path d="M122.108 29.1452C120.573 29.1452 119.316 28.8047 118.335 28.1235C117.356 27.4424 116.762 26.4694 116.556 25.2044L119.309 24.4747C119.419 25.0423 119.601 25.4883 119.854 25.8126C120.123 26.137 120.447 26.3721 120.827 26.518C121.222 26.6477 121.649 26.7127 122.108 26.7127C122.803 26.7127 123.318 26.591 123.65 26.3478C123.982 26.0883 124.148 25.7721 124.148 25.3991C124.148 25.0261 123.99 24.7423 123.673 24.5477C123.358 24.3368 122.852 24.1666 122.155 24.0369L121.491 23.9152C120.668 23.753 119.917 23.5341 119.237 23.2584C118.557 22.9666 118.011 22.5692 117.6 22.0665C117.189 21.5637 116.983 20.9151 116.983 20.1204C116.983 18.9204 117.41 18.0042 118.265 17.3717C119.118 16.723 120.242 16.3987 121.633 16.3987C122.946 16.3987 124.038 16.6988 124.907 17.2988C125.777 17.8988 126.346 18.6853 126.616 19.6583L123.84 20.534C123.713 19.9178 123.452 19.4799 123.057 19.2205C122.677 18.961 122.202 18.8312 121.633 18.8312C121.064 18.8312 120.629 18.9366 120.328 19.1474C120.028 19.3421 119.878 19.6177 119.878 19.9746C119.878 20.3637 120.036 20.6556 120.352 20.8502C120.668 21.0286 121.095 21.1665 121.633 21.2638L122.297 21.3854C123.183 21.5476 123.982 21.7665 124.694 22.0421C125.421 22.3016 125.991 22.6827 126.402 23.1855C126.829 23.672 127.043 24.3368 127.043 25.1801C127.043 26.4451 126.591 27.4262 125.69 28.1235C124.805 28.8047 123.61 29.1452 122.108 29.1452Z" fill="#626262"/>
<path d="M133.078 28.9992C132.161 28.9992 131.354 28.7884 130.659 28.3668C129.979 27.9289 129.448 27.3289 129.069 26.5667C128.69 25.8045 128.499 24.9288 128.499 23.9396V16.7392H131.489V23.6963C131.489 24.6044 131.702 25.2856 132.13 25.7396C132.572 26.1937 133.197 26.4207 134.004 26.4207C134.92 26.4207 135.633 26.1126 136.139 25.4964C136.645 24.8639 136.898 23.9882 136.898 22.8693V16.7392H139.887V28.8047H136.945V27.2235H136.519C136.328 27.6289 135.973 28.0262 135.451 28.4154C134.929 28.8047 134.137 28.9992 133.078 28.9992Z" fill="#626262"/>
<path d="M142.146 28.8047V16.7392H145.088V18.0528H145.515C145.72 17.6474 146.061 17.2988 146.534 17.0068C147.009 16.6988 147.634 16.5447 148.41 16.5447C149.247 16.5447 149.92 16.7149 150.426 17.0555C150.932 17.3798 151.319 17.8095 151.589 18.3447H152.015C152.284 17.8258 152.664 17.3961 153.154 17.0555C153.645 16.7149 154.34 16.5447 155.242 16.5447C155.969 16.5447 156.626 16.7069 157.211 17.0312C157.812 17.3392 158.286 17.8176 158.635 18.4664C158.998 19.0988 159.18 19.9015 159.18 20.8746V28.8047H156.19V21.0935C156.19 20.4286 156.025 19.934 155.692 19.6097C155.36 19.2691 154.894 19.0988 154.293 19.0988C153.613 19.0988 153.083 19.3259 152.703 19.7799C152.34 20.2177 152.158 20.8502 152.158 21.6773V28.8047H149.168V21.0935C149.168 20.4286 149.002 19.934 148.671 19.6097C148.338 19.2691 147.872 19.0988 147.27 19.0988C146.59 19.0988 146.061 19.3259 145.681 19.7799C145.317 20.2177 145.135 20.8502 145.135 21.6773V28.8047H142.146Z" fill="#626262"/>
</svg>
