<svg width="10" height="19" viewBox="0 0 10 19" fill="none" xmlns="http://www.w3.org/2000/svg">
<path d="M2.78422 10.5011C2.71462 10.5011 1.18329 10.5011 0.487239 10.5011C0.116009 10.5011 0 10.3619 0 10.0139C0 9.08583 0 8.13456 0 7.20648C0 6.83525 0.139211 6.71924 0.487239 6.71924H2.78422C2.78422 6.64964 2.78422 5.30393 2.78422 4.67748C2.78422 3.74941 2.94664 2.86774 3.41067 2.05567C3.89791 1.2204 4.59397 0.663559 5.47564 0.338733C6.05569 0.129917 6.63573 0.0371094 7.26218 0.0371094H9.53596C9.86079 0.0371094 10 0.176321 10 0.501147V3.14616C10 3.47098 9.86079 3.6102 9.53596 3.6102C8.90951 3.6102 8.28306 3.6102 7.65661 3.6334C7.03016 3.6334 6.70534 3.93502 6.70534 4.58467C6.68214 5.28073 6.70534 5.95358 6.70534 6.67284H9.39675C9.76798 6.67284 9.90719 6.81205 9.90719 7.18328V9.99071C9.90719 10.3619 9.79118 10.4779 9.39675 10.4779C8.56149 10.4779 6.77494 10.4779 6.70534 10.4779V18.0418C6.70534 18.4362 6.58933 18.5754 6.17169 18.5754C5.19722 18.5754 4.24594 18.5754 3.27146 18.5754C2.92343 18.5754 2.78422 18.4362 2.78422 18.0882C2.78422 15.652 2.78422 10.5708 2.78422 10.5011Z" fill="white"/>
</svg>
