<svg width="18" height="18" viewBox="0 0 18 18" fill="none" xmlns="http://www.w3.org/2000/svg">
<path d="M8.77808 9.59479C7.97309 10.7183 7.30153 11.8115 6.47188 12.77C5.722 13.6358 4.83723 14.4003 3.93505 15.1141C3.63336 15.353 3.0967 15.2936 2.66591 15.3704C2.72828 14.9215 2.66301 14.3974 2.87478 14.0354C3.72039 12.589 5.03449 11.5871 6.37905 10.6329C6.94182 10.2333 7.52345 9.86265 8.03691 9.33273C7.43642 9.45724 6.83739 9.59624 6.234 9.70193C4.56164 9.9973 2.87768 10.2 1.20677 9.76999C0.767284 9.65705 0.400322 9.27047 0 9.0084C0.400322 8.74489 0.768735 8.33948 1.20532 8.24537C3.00532 7.85444 4.80532 8.07307 6.58936 8.43794C7.15214 8.55232 7.71056 8.67973 8.34295 8.67829C8.13989 8.55377 7.93683 8.43215 7.73521 8.30473C6.09476 7.2724 4.51523 6.15753 3.30121 4.62134C2.98211 4.21738 2.73989 3.72365 2.57454 3.23282C2.41209 2.74923 2.71813 2.4278 3.19533 2.60155C3.74795 2.8028 4.36728 3.05184 4.74005 3.47172C5.96712 4.85444 7.09702 6.32404 8.26027 7.76323C8.40822 7.94711 8.52716 8.15271 8.6751 8.37134C8.45899 6.79894 8.18485 5.27288 8.06156 3.73668C7.99049 2.86072 8.14424 1.96448 8.23707 1.08128C8.26318 0.830796 8.39807 0.573074 8.54021 0.355893C8.8506 -0.119011 9.22482 -0.130594 9.46704 0.38485C9.69766 0.87568 9.85286 1.42732 9.91088 1.96593C10.1081 3.80763 9.84561 5.62037 9.43078 7.41284C9.36261 7.70821 9.30024 8.00358 9.24077 8.27433C10.259 6.9611 11.2264 5.61024 12.3085 4.35782C12.8495 3.73234 13.5674 3.23861 14.2695 2.78398C14.5363 2.61168 14.9831 2.71593 15.3471 2.69566C15.3268 3.03881 15.4298 3.46738 15.263 3.70917C14.7322 4.4751 14.1853 5.27143 13.4891 5.87375C12.294 6.90898 10.9799 7.80666 9.69621 8.77529C10.8174 8.56825 11.9328 8.26854 13.0641 8.18022C14.2811 8.0861 15.5139 8.1889 16.7396 8.20917C16.8106 8.21062 16.8962 8.21497 16.9499 8.25406C17.3038 8.50454 17.6504 8.76516 18 9.02288C17.6432 9.27192 17.3197 9.64691 16.9238 9.74827C15.0048 10.2405 13.0903 9.97269 11.1858 9.58466C10.7884 9.50357 10.3939 9.4167 9.91958 9.47317C10.1357 9.6252 10.3605 9.76564 10.5665 9.9307C11.8255 10.9384 13.1135 11.9128 14.3188 12.9814C14.7699 13.381 15.0643 13.9804 15.3515 14.5292C15.4646 14.7449 15.4675 15.1749 15.3268 15.3226C15.189 15.4659 14.7423 15.4819 14.5378 15.366C13.9141 15.0113 13.2324 14.6638 12.7712 14.1382C11.7094 12.9278 10.7637 11.616 9.77744 10.3404C9.60919 10.1233 9.47139 9.88292 9.32345 9.65705C9.53957 11.3004 9.8021 12.9104 9.94134 14.5321C10.0081 15.311 9.91523 16.1276 9.74408 16.8935C9.65415 17.2989 9.24077 17.632 8.97389 17.9983C8.72442 17.6421 8.28928 17.3004 8.25882 16.9254C8.15004 15.5904 8.09492 14.2381 8.1805 12.9032C8.25302 11.8347 8.55617 10.7806 8.77808 9.59479Z" fill="black"/>
</svg>
