<svg width="12" height="13" viewBox="0 0 12 13" fill="none" xmlns="http://www.w3.org/2000/svg">
<g clip-path="url(#clip0_381_495)">
<path d="M8.99978 0.5H2.99993C1.35011 0.5 0 1.85011 0 3.49993V9.50007C0 11.1494 1.35011 12.5 2.99993 12.5H8.99978C10.6496 12.5 11.9997 11.1494 11.9997 9.50007V3.49993C11.9997 1.85011 10.6496 0.5 8.99978 0.5ZM10.9997 9.50007C10.9997 10.6025 10.1029 11.5 8.99978 11.5H2.99993C1.89731 11.5 1.00002 10.6025 1.00002 9.50007V3.49993C1.00002 2.39716 1.89731 1.50002 2.99993 1.50002H8.99978C10.1029 1.50002 10.9997 2.39716 10.9997 3.49993V9.50007Z" fill="#000000"/>
<path d="M9.24998 3.99987C9.66419 3.99987 9.99996 3.66409 9.99996 3.24989C9.99996 2.83569 9.66419 2.49991 9.24998 2.49991C8.83578 2.49991 8.5 2.83569 8.5 3.24989C8.5 3.66409 8.83578 3.99987 9.24998 3.99987Z" fill="#000000"/>
<path d="M5.99993 3.49994C4.34276 3.49994 3 4.84285 3 6.49987C3 8.15627 4.34276 9.50009 5.99993 9.50009C7.65662 9.50009 8.99985 8.15627 8.99985 6.49987C8.99985 4.84285 7.65662 3.49994 5.99993 3.49994ZM5.99993 8.50006C4.89549 8.50006 4.00002 7.60459 4.00002 6.49987C4.00002 5.39514 4.89549 4.49996 5.99993 4.49996C7.10436 4.49996 7.99983 5.39514 7.99983 6.49987C7.99983 7.60459 7.10436 8.50006 5.99993 8.50006Z" fill="#000000"/>
</g>
<defs>
<clipPath id="clip0_381_495">
<rect width="12" height="12" fill="#000000" transform="translate(0 0.5)"/>
</clipPath>
</defs>
</svg>
