<svg width="20" height="21" viewBox="0 0 20 21" fill="none" xmlns="http://www.w3.org/2000/svg">
<g clip-path="url(#clip0_158_56)">
<path d="M10.0032 5.17188C7.16741 5.17188 4.87158 7.47021 4.87158 10.3035C4.87158 13.1394 7.16991 15.4352 10.0032 15.4352C12.8391 15.4352 15.1349 13.1369 15.1349 10.3035C15.1349 7.46771 12.8366 5.17188 10.0032 5.17188ZM10.0032 13.6344C8.16241 13.6344 6.67242 12.1435 6.67242 10.3035C6.67242 8.46354 8.16325 6.97271 10.0032 6.97271C11.8432 6.97271 13.3341 8.46354 13.3341 10.3035C13.3349 12.1435 11.8441 13.6344 10.0032 13.6344Z" fill="white"/>
<path d="M14.1233 0.370439C12.2833 0.284606 7.72578 0.288773 5.88411 0.370439C4.26578 0.446273 2.83828 0.837106 1.68745 1.98794C-0.235888 3.91127 0.00994525 6.50294 0.00994525 10.3038C0.00994525 14.1938 -0.206721 16.7254 1.68745 18.6196C3.61828 20.5496 6.24745 20.2971 10.0033 20.2971C13.8566 20.2971 15.1866 20.2996 16.5491 19.7721C18.4016 19.0529 19.7999 17.3971 19.9366 14.4229C20.0233 12.5821 20.0183 8.02544 19.9366 6.18377C19.7716 2.67294 17.8874 0.543773 14.1233 0.370439ZM17.0358 17.3471C15.7749 18.6079 14.0258 18.4954 9.97911 18.4954C5.81245 18.4954 4.14161 18.5571 2.92245 17.3346C1.51828 15.9371 1.77245 13.6929 1.77245 10.2904C1.77245 5.68627 1.29995 2.37044 5.92078 2.13377C6.98245 2.09627 7.29495 2.08377 9.96745 2.08377L10.0049 2.10877C14.4458 2.10877 17.9299 1.64377 18.1391 6.26377C18.1866 7.31794 18.1974 7.63461 18.1974 10.3029C18.1966 14.4213 18.2749 16.1021 17.0358 17.3471Z" fill="white"/>
<path d="M15.3383 6.16786C16.0006 6.16786 16.5375 5.63098 16.5375 4.9687C16.5375 4.30642 16.0006 3.76953 15.3383 3.76953C14.676 3.76953 14.1392 4.30642 14.1392 4.9687C14.1392 5.63098 14.676 6.16786 15.3383 6.16786Z" fill="white"/>
</g>
<defs>
<clipPath id="clip0_158_56">
<rect width="20" height="20" fill="white" transform="translate(0 0.306641)"/>
</clipPath>
</defs>
</svg>
