<svg width="12" height="13" viewBox="0 0 12 13" fill="none" xmlns="http://www.w3.org/2000/svg">
<path d="M11.9991 12.4996V8.10462C11.9991 5.94462 11.5341 4.29462 9.01414 4.29462C7.79914 4.29462 6.98914 4.95462 6.65914 5.58462H6.62914V4.48962H4.24414V12.4996H6.73414V8.52462C6.73414 7.47462 6.92914 6.46962 8.21914 6.46962C9.49414 6.46962 9.50914 7.65462 9.50914 8.58462V12.4846H11.9991V12.4996Z" fill="#000000"/>
<path d="M0.195312 4.48978H2.68531V12.4998H0.195312V4.48978Z" fill="#000000"/>
<path d="M1.44 0.5C0.645 0.5 0 1.145 0 1.94C0 2.735 0.645 3.395 1.44 3.395C2.235 3.395 2.88 2.735 2.88 1.94C2.88 1.145 2.235 0.5 1.44 0.5Z" fill="#000000"/>
</svg>
