<svg width="25" height="26" viewBox="0 0 25 26" fill="none" xmlns="http://www.w3.org/2000/svg">
<path d="M22.5 23.3068V15.9818C22.5 12.3818 21.725 9.63184 17.525 9.63184C15.5 9.63184 14.15 10.7318 13.6 11.7818H13.55V9.95684H9.57495V23.3068H13.725V16.6818C13.725 14.9318 14.05 13.2568 16.2 13.2568C18.325 13.2568 18.35 15.2318 18.35 16.7818V23.2818H22.5V23.3068Z" fill="white"/>
<path d="M2.82495 9.95703H6.97495V23.307H2.82495V9.95703Z" fill="white"/>
<path d="M4.9 3.30664C3.575 3.30664 2.5 4.38164 2.5 5.70664C2.5 7.03164 3.575 8.13164 4.9 8.13164C6.225 8.13164 7.3 7.03164 7.3 5.70664C7.3 4.38164 6.225 3.30664 4.9 3.30664Z" fill="white"/>
</svg>
