<svg width="22" height="22" viewBox="0 0 22 22" fill="none" xmlns="http://www.w3.org/2000/svg">
<g clip-path="url(#clip0_514_436)">
<path d="M5.5 4.4C5.5 3.79251 5.99251 3.3 6.6 3.3H20.9C21.5075 3.3 22 3.79251 22 4.4C22 5.0075 21.5075 5.5 20.9 5.5H6.6C5.99251 5.5 5.5 5.00745 5.5 4.4ZM20.9 9.9H1.1C0.492508 9.9 0 10.3926 0 11C0 11.6075 0.492508 12.1 1.1 12.1H20.9C21.5075 12.1 22 11.6075 22 11C22 10.3926 21.5075 9.9 20.9 9.9ZM20.9 16.5H11C10.3926 16.5 9.9 16.9925 9.9 17.6C9.9 18.2075 10.3926 18.7 11 18.7H20.9C21.5075 18.7 22 18.2075 22 17.6C22 16.9925 21.5075 16.5 20.9 16.5Z" fill="white"/>
</g>
<defs>
<clipPath id="clip0_514_436">
<rect width="22" height="22" fill="white"/>
</clipPath>
</defs>
</svg>
