<svg width="13" height="15" viewBox="0 0 13 15" fill="none" xmlns="http://www.w3.org/2000/svg">
<path d="M6.70093 0.115112C2.65211 0.115728 0.5 2.70971 0.5 5.53816C0.5 6.84961 1.23296 8.486 2.40656 9.0048C2.74135 9.15558 2.69704 8.97157 2.98505 7.86997C3.00782 7.77827 2.99613 7.69889 2.92228 7.61334C1.24465 5.67294 2.59488 1.68381 6.46154 1.68381C12.0575 1.68381 11.0119 9.42697 7.43512 9.42697C6.51323 9.42697 5.82643 8.70325 6.04367 7.80781C6.30707 6.7413 6.82279 5.59478 6.82279 4.82612C6.82279 2.88879 3.93648 3.17619 3.93648 5.74309C3.93648 6.53637 4.21711 7.07178 4.21711 7.07178C4.21711 7.07178 3.28845 10.8234 3.11613 11.5243C2.82443 12.7108 3.15552 14.6316 3.18445 14.7971C3.20229 14.8882 3.30445 14.9171 3.36169 14.842C3.45338 14.722 4.5759 13.1207 4.89038 11.9631C5.00485 11.5415 5.47441 9.83069 5.47441 9.83069C5.78396 10.3895 6.67632 10.8572 7.62713 10.8572C10.4556 10.8572 12.5 8.37092 12.5 5.28584C12.4902 2.32815 9.95895 0.115112 6.70093 0.115112Z" fill="black"/>
</svg>
