<svg width="35" height="27" viewBox="0 0 35 27" fill="none" xmlns="http://www.w3.org/2000/svg">
<path d="M19.2131 18.2365C19.2896 13.8769 20.6663 9.59386 23.3432 5.31083C24.3374 3.7047 25.4847 2.25151 26.6319 0.951284C27.0143 0.492405 27.7027 0.492405 28.1616 0.951284L30.915 3.85763C31.2974 4.24005 31.2974 4.85195 30.915 5.23436C30.6855 5.54027 30.4561 5.76971 30.2266 6.07566C28.9264 7.75829 27.6262 10.2822 27.3203 12.6532C29.0029 12.7297 30.9915 13.0356 32.2152 14.5653C33.4389 16.0185 34.0508 17.7011 34.0508 19.4602C34.0508 21.3723 33.286 23.0549 31.8328 24.508C30.3796 25.9612 28.6205 26.7261 26.6319 26.7261C24.6434 26.7261 22.9607 25.9612 21.4311 24.3551C19.9779 22.8255 19.2131 20.7604 19.2131 18.2365Z" fill="black"/>
<path d="M0.0333691 18.2365C0.109881 13.8769 1.48657 9.59386 4.16347 5.31083C5.15774 3.7047 6.30499 2.25151 7.45223 0.951284C7.83465 0.492405 8.52301 0.492405 8.98189 0.951284L11.7353 3.85763C12.1177 4.24005 12.1177 4.85195 11.7353 5.23436C11.5058 5.54027 11.2764 5.76971 11.0469 6.07566C9.74672 7.75829 8.4465 10.2822 8.1406 12.6532C9.82319 12.7297 11.8118 13.0356 13.0355 14.5653C14.2592 16.0185 14.8711 17.7011 14.8711 19.4602C14.8711 21.3723 14.1063 23.0549 12.6531 24.508C11.1999 25.9612 9.44077 26.7261 7.45223 26.7261C5.46369 26.7261 3.78106 25.9612 2.2514 24.3551C0.798199 22.8255 0.0333691 20.7604 0.0333691 18.2365Z" fill="black"/>
</svg>
