<svg width="61" height="61" viewBox="0 0 61 61" fill="none" xmlns="http://www.w3.org/2000/svg">
<rect x="0.616699" y="1.09082" width="59" height="59" rx="29.5" stroke="black" stroke-opacity="0.15"/>
<path d="M27.158 26.3819C27.0876 30.3972 25.8196 34.3422 23.354 38.2871C22.4382 39.7664 21.3815 41.1049 20.3249 42.3024C19.9726 42.7251 19.3386 42.7251 18.916 42.3024L16.3799 39.6255C16.0277 39.2733 16.0277 38.7097 16.3799 38.3575C16.5913 38.0757 16.8026 37.8644 17.0139 37.5826C18.2115 36.0328 19.4091 33.7082 19.6908 31.5244C18.141 31.4539 16.3095 31.1722 15.1824 29.7633C14.0552 28.4248 13.4917 26.875 13.4917 25.2548C13.4917 23.4936 14.1961 21.9438 15.5346 20.6054C16.873 19.2669 18.4933 18.5625 20.3249 18.5625C22.1564 18.5625 23.7062 19.2669 25.1151 20.7463C26.4536 22.1552 27.158 24.0572 27.158 26.3819Z" fill="black"/>
<path d="M44.8243 26.3819C44.7538 30.3972 43.4858 34.3422 41.0202 38.2871C40.1045 39.7664 39.0478 41.1049 37.9911 42.3024C37.6389 42.7251 37.0049 42.7251 36.5822 42.3024L34.0462 39.6255C33.694 39.2733 33.694 38.7097 34.0462 38.3575C34.2576 38.0757 34.4689 37.8644 34.6802 37.5826C35.8778 36.0328 37.0753 33.7082 37.3571 31.5244C35.8073 31.4539 33.9758 31.1722 32.8487 29.7633C31.7215 28.4248 31.158 26.875 31.158 25.2548C31.158 23.4936 31.8624 21.9438 33.2009 20.6054C34.5393 19.2669 36.1596 18.5625 37.9911 18.5625C39.8227 18.5625 41.3725 19.2669 42.7814 20.7463C44.1198 22.1552 44.8243 24.0572 44.8243 26.3819Z" fill="black"/>
</svg>
