<svg width="60" height="61" viewBox="0 0 60 61" fill="none" xmlns="http://www.w3.org/2000/svg">
<rect y="0.874512" width="60" height="60" rx="30" fill="black"/>
<path d="M27.0413 26.6656C26.9709 30.6809 25.7029 34.6259 23.2373 38.5708C22.3215 40.0501 21.2648 41.3886 20.2082 42.5861C19.8559 43.0088 19.2219 43.0088 18.7993 42.5861L16.2632 39.9092C15.911 39.557 15.911 38.9934 16.2632 38.6412C16.4746 38.3594 16.6859 38.1481 16.8972 37.8663C18.0948 36.3165 19.2924 33.9918 19.5741 31.8081C18.0243 31.7376 16.1928 31.4558 15.0657 30.0469C13.9386 28.7085 13.375 27.1587 13.375 25.5385C13.375 23.7773 14.0794 22.2275 15.4179 20.8891C16.7563 19.5506 18.3766 18.8462 20.2082 18.8462C22.0397 18.8462 23.5895 19.5506 24.9984 21.03C26.3369 22.4389 27.0413 24.3409 27.0413 26.6656Z" fill="#C0FF7E"/>
<path d="M44.7076 26.6656C44.6371 30.6809 43.3691 34.6259 40.9035 38.5708C39.9878 40.0501 38.9311 41.3886 37.8744 42.5861C37.5222 43.0088 36.8882 43.0088 36.4655 42.5861L33.9295 39.9092C33.5773 39.557 33.5773 38.9934 33.9295 38.6412C34.1409 38.3594 34.3522 38.1481 34.5635 37.8663C35.7611 36.3165 36.9586 33.9918 37.2404 31.8081C35.6906 31.7376 33.8591 31.4558 32.732 30.0469C31.6048 28.7085 31.0413 27.1587 31.0413 25.5385C31.0413 23.7773 31.7457 22.2275 33.0842 20.8891C34.4226 19.5506 36.0429 18.8462 37.8744 18.8462C39.706 18.8462 41.2558 19.5506 42.6647 21.03C44.0031 22.4389 44.7076 24.3409 44.7076 26.6656Z" fill="#C0FF7E"/>
</svg>
