<svg width="29" height="28" viewBox="0 0 29 28" fill="none" xmlns="http://www.w3.org/2000/svg">
<path d="M22.166 0.25H7.16602C6.34525 0.25 5.53253 0.411661 4.77424 0.725753C4.01596 1.03984 3.32696 1.50022 2.7466 2.08058C1.5745 3.25269 0.916016 4.8424 0.916016 6.5V21.5C0.916016 22.3208 1.07768 23.1335 1.39177 23.8918C1.70586 24.6501 2.16623 25.3391 2.7466 25.9194C3.9187 27.0915 5.50841 27.75 7.16602 27.75H22.166C22.9868 27.75 23.7995 27.5883 24.5578 27.2742C25.3161 26.9602 26.0051 26.4998 26.5854 25.9194C27.1658 25.3391 27.6262 24.6501 27.9403 23.8918C28.2544 23.1335 28.416 22.3208 28.416 21.5V6.5C28.416 5.67924 28.2544 4.86651 27.9403 4.10823C27.6262 3.34994 27.1658 2.66095 26.5854 2.08058C26.0051 1.50022 25.3161 1.03984 24.5578 0.725753C23.7995 0.411661 22.9868 0.25 22.166 0.25ZM3.41602 6.5C3.41602 5.50544 3.8111 4.55161 4.51437 3.84835C5.21763 3.14509 6.17145 2.75 7.16602 2.75H22.166C23.1606 2.75 24.1144 3.14509 24.8177 3.84835C25.5209 4.55161 25.916 5.50544 25.916 6.5V7.75H3.41602V6.5ZM22.166 25.25H7.16602C6.17145 25.25 5.21763 24.8549 4.51437 24.1517C3.8111 23.4484 3.41602 22.4946 3.41602 21.5V10.25H25.916V21.5C25.916 22.4946 25.5209 23.4484 24.8177 24.1517C24.1144 24.8549 23.1606 25.25 22.166 25.25Z" fill="black"/>
<path d="M13.0539 14.3625C12.9377 14.2453 12.7995 14.1523 12.6471 14.0889C12.4948 14.0254 12.3314 13.9927 12.1664 13.9927C12.0014 13.9927 11.838 14.0254 11.6857 14.0889C11.5334 14.1523 11.3951 14.2453 11.2789 14.3625L8.77893 16.8625C8.66177 16.9787 8.56877 17.1169 8.50531 17.2693C8.44185 17.4216 8.40918 17.585 8.40918 17.75C8.40918 17.915 8.44185 18.0784 8.50531 18.2307C8.56877 18.383 8.66177 18.5213 8.77893 18.6375L11.2789 21.1375C11.3951 21.2546 11.5334 21.3476 11.6857 21.4111C11.838 21.4746 12.0014 21.5072 12.1664 21.5072C12.3314 21.5072 12.4948 21.4746 12.6471 21.4111C12.7995 21.3476 12.9377 21.2546 13.0539 21.1375C13.1711 21.0213 13.2641 20.883 13.3275 20.7307C13.391 20.5784 13.4237 20.415 13.4237 20.25C13.4237 20.085 13.391 19.9216 13.3275 19.7693C13.2641 19.6169 13.1711 19.4787 13.0539 19.3625L11.4289 17.75L13.0539 16.1375C13.1711 16.0213 13.2641 15.883 13.3275 15.7307C13.391 15.5784 13.4237 15.415 13.4237 15.25C13.4237 15.085 13.391 14.9216 13.3275 14.7693C13.2641 14.6169 13.1711 14.4787 13.0539 14.3625Z" fill="black"/>
<path d="M18.0539 14.3625C17.8185 14.1271 17.4993 13.9949 17.1664 13.9949C16.8336 13.9949 16.5143 14.1271 16.2789 14.3625C16.0435 14.5979 15.9113 14.9171 15.9113 15.25C15.9113 15.5829 16.0435 15.9021 16.2789 16.1375L17.9039 17.75L16.2789 19.3625C16.1618 19.4787 16.0688 19.6169 16.0053 19.7693C15.9419 19.9216 15.9092 20.085 15.9092 20.25C15.9092 20.415 15.9419 20.5784 16.0053 20.7307C16.0688 20.883 16.1618 21.0213 16.2789 21.1375C16.3951 21.2546 16.5334 21.3476 16.6857 21.4111C16.838 21.4746 17.0014 21.5072 17.1664 21.5072C17.3314 21.5072 17.4948 21.4746 17.6471 21.4111C17.7995 21.3476 17.9377 21.2546 18.0539 21.1375L20.5539 18.6375C20.6711 18.5213 20.7641 18.383 20.8275 18.2307C20.891 18.0784 20.9237 17.915 20.9237 17.75C20.9237 17.585 20.891 17.4216 20.8275 17.2693C20.7641 17.1169 20.6711 16.9787 20.5539 16.8625L18.0539 14.3625Z" fill="black"/>
</svg>
