<svg width="26" height="30" viewBox="0 0 26 30" fill="none" xmlns="http://www.w3.org/2000/svg">
<path d="M24.9932 8.14447H22.1221C22.1221 8.14447 22.122 4.39283 22.122 4.39201C22.1208 4.26123 22.0915 4.12992 22.0345 4.01203L20.3353 0.496406C20.1885 0.192891 19.8811 0 19.5439 0H7.12207C6.78492 0 6.47748 0.192891 6.33076 0.496465C6.33076 0.496465 4.63154 4.01203 4.63154 4.01209C4.57441 4.13027 4.54512 4.26088 4.54406 4.39207C4.54406 4.39289 4.54395 8.14453 4.54395 8.14453H1.67285C1.18746 8.14453 0.793945 8.53805 0.793945 9.02344V25.6055C0.793945 28.0286 2.76533 30 5.18848 30H21.4775C23.9007 30 25.8721 28.0286 25.8721 25.6055V9.02338C25.8721 8.53799 25.4786 8.14447 24.9932 8.14447ZM18.6064 8.14447V5.27344H20.3643V8.14453H18.6064V8.14447ZM16.8486 5.27344V8.14453H9.81732V5.27344H16.8486ZM7.67344 1.75781H18.9926L19.8422 3.51562H6.82383L7.67344 1.75781ZM6.30176 5.27344H8.05951V8.14453H6.30176V5.27344ZM24.1143 25.6055C24.1143 27.0594 22.9314 28.2422 21.4775 28.2422H5.18848C3.73459 28.2422 2.55176 27.0594 2.55176 25.6055V9.90228H24.1143V25.6055Z" fill="black"/>
<path d="M6.9603 18.3567L9.16946 20.9974L8.93433 24.4321C8.91364 24.734 9.04976 25.0253 9.29456 25.2032C9.53937 25.3811 9.85847 25.4205 10.1392 25.3076L13.3333 24.0225L16.5274 25.3075C16.8066 25.4201 17.1267 25.3816 17.372 25.2032C17.6169 25.0253 17.7529 24.734 17.7322 24.4321L17.4971 20.9973L19.7062 18.3567C19.9003 18.1246 19.9614 17.8089 19.868 17.5212C19.7745 17.2334 19.5395 17.0139 19.246 16.9403L15.9067 16.1024L14.078 13.1855C13.9173 12.9291 13.6359 12.7734 13.3333 12.7734C13.0307 12.7734 12.7494 12.9291 12.5886 13.1854L10.7599 16.1024L7.42056 16.9403C6.8011 17.0842 6.54376 17.8761 6.9603 18.3567ZM11.5306 17.7213C11.7507 17.6661 11.9409 17.528 12.0614 17.3357L13.3333 15.307L14.6051 17.3357C14.7257 17.528 14.9159 17.6661 15.1359 17.7214L17.4585 18.3041L15.922 20.1407C15.7765 20.3147 15.7038 20.5383 15.7193 20.7646L15.8828 23.1535C15.6694 23.0929 13.5065 22.1305 13.3333 22.1962C13.1677 22.128 10.9866 23.0968 10.7838 23.1535L10.9473 20.7646C10.9628 20.5383 10.8901 20.3147 10.7446 20.1407L9.20808 18.3041L11.5306 17.7213Z" fill="black"/>
</svg>
