<svg width="31" height="30" viewBox="0 0 31 30" fill="none" xmlns="http://www.w3.org/2000/svg">
<g clip-path="url(#clip0_235_582)">
<path d="M24.6103 13.3923L24.0633 13.6636V3.51573C24.0633 2.06185 22.8805 0.879028 21.4266 0.879028H2.96971C1.51583 0.879028 0.333008 2.06185 0.333008 3.51573V17.6367C0.333008 19.0906 1.51583 20.2734 2.96971 20.2734H10.9384V21.7968C10.9384 22.7753 11.6275 23.5955 12.5457 23.7988L11.8292 28.0977C11.7399 28.6332 12.1536 29.1211 12.6962 29.1211H16.2118C16.6378 29.1211 17.0026 28.8155 17.0772 28.396L17.8711 23.93L24.6104 27.2717C25.1924 27.5604 25.8797 27.1366 25.8797 26.4844V14.1798C25.8797 13.5279 25.1934 13.1031 24.6103 13.3923ZM2.09081 17.6367V3.51573C2.09081 3.0311 2.48508 2.63683 2.96971 2.63683H21.4266C21.9112 2.63683 22.3055 3.0311 22.3055 3.51573V14.5352L17.705 16.8164H12.9892C11.9783 16.8164 11.1364 17.5518 10.9692 18.5156H2.96971C2.48508 18.5156 2.09081 18.1213 2.09081 17.6367ZM12.9892 22.0898C12.8276 22.0898 12.6962 21.9584 12.6962 21.7968V18.8672C12.6962 18.7056 12.8276 18.5742 12.9892 18.5742H17.0321V22.0898H12.9892ZM13.7337 27.3632L14.3196 23.8476H16.1003L15.4754 27.3632H13.7337ZM24.1219 25.0675L18.7899 22.4235V18.2405L24.1219 15.5965V25.0675Z" fill="black"/>
<path d="M28.8691 17.6216L29.8066 17.2115C30.2513 17.0169 30.4541 16.4987 30.2595 16.054C30.065 15.6093 29.5467 15.4064 29.1021 15.6011L28.1646 16.0112C27.7198 16.2058 27.517 16.724 27.7116 17.1687C27.9063 17.6137 28.4248 17.8161 28.8691 17.6216Z" fill="black"/>
<path d="M29.8066 23.4526L28.8691 23.0424C28.4244 22.8479 27.9062 23.0506 27.7116 23.4953C27.517 23.9401 27.7198 24.4583 28.1646 24.6528L29.1021 25.063C29.5467 25.2575 30.065 25.0547 30.2595 24.61C30.4541 24.1653 30.2513 23.6471 29.8066 23.4526Z" fill="black"/>
<path d="M29.4541 19.4531H28.5166C28.0312 19.4531 27.6377 19.8466 27.6377 20.332C27.6377 20.8174 28.0312 21.2109 28.5166 21.2109H29.4541C29.9395 21.2109 30.333 20.8174 30.333 20.332C30.333 19.8466 29.9395 19.4531 29.4541 19.4531Z" fill="black"/>
<path d="M16.1068 11.3623C16.7533 11.0391 16.7538 10.1135 16.1068 9.79004L9.07565 6.27444C8.49259 5.98288 7.80371 6.40733 7.80371 7.06059V14.0918C7.80371 14.7445 8.49253 15.1695 9.07565 14.8779L16.1068 11.3623ZM9.56151 8.48264L13.7485 10.5761L9.56151 12.6697V8.48264Z" fill="black"/>
</g>
<defs>
<clipPath id="clip0_235_582">
<rect width="30" height="30" fill="white" transform="translate(0.333008)"/>
</clipPath>
</defs>
</svg>
