<svg width="30" height="30" viewBox="0 0 30 30" fill="none" xmlns="http://www.w3.org/2000/svg">
<path d="M25.5864 6.21031C25.1808 6.0149 24.6988 6.06939 24.347 6.34982C24.3031 6.3848 19.9131 9.84377 15.7031 9.84377H11.9531C10.2731 9.84377 8.90625 11.2106 8.90625 12.8906V14.7656C8.90625 16.4457 10.2731 17.8125 11.9531 17.8125H14.5312V22.2656C14.5312 22.9129 15.0559 23.4375 15.7031 23.4375C16.3504 23.4375 16.875 22.9129 16.875 22.2656V17.8964C20.6897 18.4246 24.3071 21.2747 24.3461 21.3058C24.6984 21.5877 25.1805 21.6417 25.5858 21.4469C25.9918 21.2517 26.25 20.8411 26.25 20.3906V7.26564C26.25 6.81559 25.9918 6.40566 25.5864 6.21031ZM11.9531 15.4688C11.572 15.4688 11.25 15.1468 11.25 14.7656V12.8906C11.25 12.5095 11.572 12.1875 11.9531 12.1875H14.5312V15.4688H11.9531ZM23.9062 18.1693C22.2292 17.1433 19.6327 15.8411 16.875 15.5353V12.121C19.6327 11.8152 22.2292 10.5129 23.9062 9.48693V18.1693Z" fill="black"/>
<path d="M28.8281 10.7812C28.1809 10.7812 27.6562 11.3059 27.6562 11.9531V15.7031C27.6562 16.3504 28.1809 16.875 28.8281 16.875C29.4754 16.875 30 16.3504 30 15.7031V11.9531C30 11.3059 29.4754 10.7812 28.8281 10.7812Z" fill="black"/>
<path d="M19.9219 21.3779C19.2746 21.3779 18.75 21.9025 18.75 22.5497V26.4844C18.75 27.1305 18.2243 27.6562 17.5781 27.6562H3.51562C2.86945 27.6562 2.34375 27.1305 2.34375 26.4844V3.51562C2.34375 2.86945 2.86945 2.34375 3.51562 2.34375H17.5781C18.2243 2.34375 18.75 2.86945 18.75 3.51562V5.11002C18.75 5.75725 19.2746 6.28189 19.9219 6.28189C20.5691 6.28189 21.0938 5.75725 21.0938 5.11002V3.51562C21.0938 1.57711 19.5166 0 17.5781 0H3.51562C1.57711 0 0 1.57711 0 3.51562V26.4844C0 28.4229 1.57711 30 3.51562 30H17.5781C19.5166 30 21.0938 28.4229 21.0938 26.4844V22.5497C21.0938 21.9025 20.5691 21.3779 19.9219 21.3779Z" fill="black"/>
<path d="M9.375 25.3125H11.7188C12.366 25.3125 12.8906 24.7879 12.8906 24.1406C12.8906 23.4934 12.366 22.9688 11.7188 22.9688H9.375C8.72777 22.9688 8.20312 23.4934 8.20312 24.1406C8.20312 24.7879 8.72777 25.3125 9.375 25.3125Z" fill="black"/>
<path d="M11.7188 6.09375C12.366 6.09375 12.8906 5.5691 12.8906 4.92188C12.8906 4.27465 12.366 3.75 11.7188 3.75H9.375C8.72777 3.75 8.20312 4.27465 8.20312 4.92188C8.20312 5.5691 8.72777 6.09375 9.375 6.09375H11.7188Z" fill="black"/>
</svg>
