<svg width="31" height="30" viewBox="0 0 31 30" fill="none" xmlns="http://www.w3.org/2000/svg">
<g clip-path="url(#clip0_260_140)">
<path d="M3.93227 22.7637H14.4355V24.5778C13.8865 24.8546 13.4468 25.3085 13.1876 25.8661C12.9284 26.4237 12.8648 27.0524 13.0071 27.6506C13.1494 28.2488 13.4892 28.7816 13.9717 29.1628C14.4542 29.544 15.0511 29.7513 15.666 29.7513C16.2809 29.7513 16.8779 29.544 17.3603 29.1628C17.8428 28.7816 18.1827 28.2488 18.325 27.6506C18.4672 27.0524 18.4036 26.4237 18.1444 25.8661C17.8852 25.3085 17.4455 24.8546 16.8965 24.5778V22.7637H27.3998C28.2657 22.7627 29.0959 22.4183 29.7082 21.806C30.3206 21.1937 30.665 20.3635 30.666 19.4976V3.51625C30.665 2.65029 30.3206 1.82007 29.7083 1.20774C29.0959 0.595412 28.2657 0.250977 27.3998 0.25H3.93227C3.0663 0.250977 2.23609 0.595412 1.62376 1.20774C1.01143 1.82007 0.666993 2.65029 0.666016 3.51625L0.666016 19.4976C0.667024 20.3635 1.01147 21.1937 1.6238 21.806C2.23612 22.4183 3.06632 22.7627 3.93227 22.7637ZM15.666 27.2891C15.6122 27.2891 15.5596 27.2732 15.5148 27.2433C15.47 27.2134 15.4352 27.1708 15.4146 27.1211C15.394 27.0714 15.3886 27.0167 15.3991 26.9639C15.4096 26.9111 15.4355 26.8626 15.4736 26.8245C15.5117 26.7864 15.5602 26.7605 15.613 26.75C15.6658 26.7395 15.7205 26.7449 15.7702 26.7655C15.8199 26.7861 15.8624 26.821 15.8923 26.8658C15.9222 26.9106 15.9382 26.9632 15.9382 27.017C15.9372 27.0889 15.9082 27.1576 15.8574 27.2084C15.8066 27.2592 15.7379 27.2882 15.666 27.2891ZM3.12695 3.51625C3.1272 3.30274 3.21213 3.09805 3.3631 2.94708C3.51407 2.79611 3.71876 2.71119 3.93227 2.71094H27.3998C27.6133 2.71119 27.818 2.79611 27.9689 2.94708C28.1199 3.09805 28.2048 3.30274 28.2051 3.51625V19.4976C28.2048 19.7111 28.1199 19.9157 27.9689 20.0667C27.8179 20.2176 27.6133 20.3025 27.3998 20.3028H3.93227C3.71878 20.3025 3.51409 20.2176 3.36312 20.0667C3.21215 19.9157 3.12722 19.7111 3.12695 19.4976V3.51625ZM8.31953 11.8313V9.08506C8.31953 8.75872 8.44917 8.44574 8.67993 8.21498C8.91068 7.98423 9.22366 7.85459 9.55 7.85459C9.87634 7.85459 10.1893 7.98423 10.4201 8.21498C10.6508 8.44574 10.7805 8.75872 10.7805 9.08506V11.8313C10.7823 12.06 10.8745 12.2787 11.0369 12.4397C11.1992 12.6008 11.4187 12.6911 11.6473 12.6911C11.876 12.6911 12.0954 12.6008 12.2578 12.4397C12.4202 12.2787 12.5123 12.06 12.5142 11.8313V9.08506C12.5142 8.75872 12.6438 8.44574 12.8746 8.21498C13.1054 7.98423 13.4183 7.85459 13.7447 7.85459C14.071 7.85459 14.384 7.98423 14.6147 8.21498C14.8455 8.44574 14.9751 8.75872 14.9751 9.08506V11.8313C14.9714 12.7115 14.6192 13.5544 13.9955 14.1754C13.3718 14.7965 12.5275 15.1452 11.6473 15.1452C10.7672 15.1452 9.92283 14.7965 9.29914 14.1754C8.67546 13.5544 8.32322 12.7115 8.31953 11.8313ZM16.0728 13.0564L17.6223 11.5069L16.0728 9.95734C15.842 9.72657 15.7124 9.41358 15.7124 9.08723C15.7124 8.76087 15.842 8.44788 16.0728 8.21711C16.3035 7.98634 16.6165 7.85669 16.9429 7.85669C17.2692 7.85669 17.5822 7.98634 17.813 8.21711L19.3625 9.76662L20.9119 8.21711C21.1427 7.98634 21.4557 7.85669 21.782 7.85669C22.1084 7.85669 22.4214 7.98634 22.6521 8.21711C22.8829 8.44788 23.0126 8.76087 23.0126 9.08723C23.0126 9.41358 22.8829 9.72657 22.6521 9.95734L21.1027 11.5069L22.6521 13.0564C22.8829 13.2871 23.0126 13.6001 23.0126 13.9265C23.0126 14.2528 22.8829 14.5658 22.6521 14.7966C22.4214 15.0274 22.1084 15.157 21.782 15.157C21.4557 15.157 21.1427 15.0274 20.9119 14.7966L19.3625 13.2471L17.813 14.7966C17.5822 15.0274 17.2692 15.157 16.9429 15.157C16.6165 15.157 16.3035 15.0274 16.0728 14.7966C15.842 14.5658 15.7124 14.2528 15.7124 13.9265C15.7124 13.6001 15.842 13.2871 16.0728 13.0564Z" fill="black"/>
</g>
<defs>
<clipPath id="clip0_260_140">
<rect width="30" height="30" fill="white" transform="translate(0.666016)"/>
</clipPath>
</defs>
</svg>
