<svg width="28" height="26" viewBox="0 0 28 26" fill="none" xmlns="http://www.w3.org/2000/svg">
<path d="M18.5164 13.488L18.5126 12.3301C18.5112 11.7269 18.1742 11.1859 17.6337 10.9173C17.0942 10.6501 16.4586 10.7092 15.9767 11.073L13.962 12.5964C13.9554 12.5964 13.9489 12.5969 13.9423 12.5969H9.47559C8.24137 12.5969 7.2373 13.6014 7.2373 14.8351V17.245C7.2373 18.4792 8.24137 19.4833 9.47559 19.4833H9.8173V20.9805C9.8173 21.498 10.2373 21.918 10.7548 21.918C11.2723 21.918 11.6923 21.498 11.6923 20.9805V19.4833H13.9292C13.9292 19.4833 15.8993 21.2476 15.9003 21.2486C16.9034 22.1467 18.5421 21.4056 18.5375 20.0645L18.5337 18.9156C20.0009 18.88 21.184 17.6781 21.184 16.2025C21.184 14.7208 19.9915 13.5142 18.5164 13.488ZM9.1123 17.245V14.8351C9.1123 14.6345 9.27543 14.4719 9.47559 14.4719H13.0625V17.6083H9.47559C9.27496 17.6083 9.1123 17.4451 9.1123 17.245ZM14.9375 17.8694V14.2094L16.6395 12.9226L16.6601 19.4125L14.9375 17.8694ZM18.5276 17.0378L18.5225 15.3662C18.9603 15.3948 19.3095 15.7572 19.3095 16.2025C19.309 16.6459 18.9631 17.0064 18.5276 17.0378Z" fill="black"/>
<path d="M23.5206 0.674194H4.47996C2.4184 0.674194 0.741211 2.35138 0.741211 4.41294V21.587C0.741211 23.6481 2.4184 25.3258 4.47996 25.3258H23.5206C25.5821 25.3258 27.2598 23.6486 27.2598 21.587V4.41294C27.2593 2.35138 25.5821 0.674194 23.5206 0.674194ZM4.47996 2.54919H23.5206C24.5481 2.54919 25.3848 3.38544 25.3848 4.41294V7.30091H2.61621V4.41294C2.61621 3.38544 3.45246 2.54919 4.47996 2.54919ZM23.5206 23.4508H4.47996C3.45246 23.4508 2.61621 22.615 2.61621 21.587V9.17591H25.3843V21.5875C25.3843 22.615 24.5481 23.4508 23.5206 23.4508Z" fill="black"/>
<path d="M16.3203 5.92749H21.507C22.0245 5.92749 22.4445 5.50749 22.4445 4.98999C22.4445 4.47249 22.0245 4.05249 21.507 4.05249H16.3203C15.8028 4.05249 15.3828 4.47249 15.3828 4.98999C15.3828 5.50749 15.8028 5.92749 16.3203 5.92749Z" fill="black"/>
<path d="M6.55898 6.05876C7.14924 6.05876 7.62773 5.58027 7.62773 4.99001C7.62773 4.39976 7.14924 3.92126 6.55898 3.92126C5.96873 3.92126 5.49023 4.39976 5.49023 4.99001C5.49023 5.58027 5.96873 6.05876 6.55898 6.05876Z" fill="black"/>
<path d="M9.22402 6.05876C9.81428 6.05876 10.2928 5.58027 10.2928 4.99001C10.2928 4.39976 9.81428 3.92126 9.22402 3.92126C8.63377 3.92126 8.15527 4.39976 8.15527 4.99001C8.15527 5.58027 8.63377 6.05876 9.22402 6.05876Z" fill="black"/>
<path d="M11.9076 6.05876C12.4979 6.05876 12.9764 5.58027 12.9764 4.99001C12.9764 4.39976 12.4979 3.92126 11.9076 3.92126C11.3174 3.92126 10.8389 4.39976 10.8389 4.99001C10.8389 5.58027 11.3174 6.05876 11.9076 6.05876Z" fill="black"/>
</svg>
