<svg width="18" height="19" viewBox="0 0 18 19" fill="none" xmlns="http://www.w3.org/2000/svg">
<g clip-path="url(#clip0_158_51)">
<g clip-path="url(#clip1_158_51)">
<path d="M11.048 7.62214L19.0619 -1.69336H17.1629L10.2044 6.39516L4.64672 -1.69336H-1.76343L6.64091 10.5379L-1.76343 20.3066H0.135715L7.48403 11.7649L13.3534 20.3066H19.7635L11.0476 7.62214H11.048ZM8.44689 10.6457L7.59536 9.42771L0.820003 -0.263719H3.73698L9.20477 7.55758L10.0563 8.77553L17.1638 18.942H14.2468L8.44689 10.6461V10.6457Z" fill="white"/>
</g>
<g clip-path="url(#clip2_158_51)">
<path d="M74.1522 -49.0105L361.334 -382.836H293.281L43.9212 -92.98L-155.242 -382.836H-384.953L-83.7792 55.4776L-384.953 405.545H-316.896L-53.5656 99.4471L156.765 405.545H386.476L74.1354 -49.0105H74.1522ZM-19.0609 59.3392L-49.576 15.6931L-292.374 -331.604H-187.843L8.09793 -51.3241L38.6131 -7.67798L293.313 356.643H188.782L-19.0609 59.356V59.3392Z" fill="black"/>
</g>
</g>
<defs>
<clipPath id="clip0_158_51">
<rect width="18" height="18" fill="white" transform="translate(0 0.306641)"/>
</clipPath>
<clipPath id="clip1_158_51">
<rect width="22" height="22" fill="white" transform="translate(-2 -1.69336)"/>
</clipPath>
<clipPath id="clip2_158_51">
<rect width="788.381" height="788.381" fill="white" transform="translate(-393.429 -382.836)"/>
</clipPath>
</defs>
</svg>
