<svg width="10" height="11" viewBox="0 0 10 11" fill="none" xmlns="http://www.w3.org/2000/svg">
<path d="M0.833333 10.5C0.583333 10.5 0.416667 10.4167 0.25 10.25C-0.0833333 9.91667 -0.0833333 9.41667 0.25 9.08333L8.58333 0.75C8.91667 0.416667 9.41667 0.416667 9.75 0.75C10.0833 1.08333 10.0833 1.58333 9.75 1.91667L1.41667 10.25C1.25 10.4167 1.08333 10.5 0.833333 10.5Z" fill="#ffffff"/>
<path d="M9.16659 9.66667C8.66659 9.66667 8.33325 9.33333 8.33325 8.83333V2.16667H1.66659C1.16659 2.16667 0.833252 1.83333 0.833252 1.33333C0.833252 0.833333 1.16659 0.5 1.66659 0.5H9.16659C9.66659 0.5 9.99992 0.833333 9.99992 1.33333V8.83333C9.99992 9.33333 9.66659 9.66667 9.16659 9.66667Z" fill="#ffffff"/>
</svg>
