<svg width="25" height="26" viewBox="0 0 25 26" fill="none" xmlns="http://www.w3.org/2000/svg">
<g clip-path="url(#clip0_158_65)">
<path d="M24.7067 8.41616C24.4417 6.23434 22.7362 4.48969 20.5589 4.17364C15.2021 3.39601 9.7801 3.39525 4.44314 4.17135C2.26514 4.48816 0.558823 6.23262 0.293892 8.41387C-0.10093 11.6627 -0.0978783 14.962 0.302665 18.2198C0.570267 20.396 2.2762 22.1367 4.45135 22.4526C9.77858 23.2266 15.1949 23.2271 20.55 22.4505C22.7242 22.1352 24.4295 20.3947 24.6973 18.218C25.0977 14.961 25.1009 11.6632 24.7067 8.41616ZM22.7587 17.9798C22.5983 19.2848 21.5748 20.3283 20.2698 20.5175C15.1049 21.2666 9.87719 21.2673 4.73211 20.5198C3.42595 20.3301 2.40171 19.2863 2.2413 17.9815C1.86002 14.8807 1.85716 11.7411 2.23271 8.64943C2.39179 7.34118 3.41623 6.29442 4.7241 6.10426C9.87032 5.35581 15.1033 5.35524 20.2784 6.10655C21.5851 6.29633 22.6088 7.34289 22.7676 8.65153C23.1428 11.7414 23.1398 14.88 22.7587 17.9798ZM17.5102 12.4378L9.82779 8.5966C9.17967 8.27254 8.41444 8.74422 8.41444 9.47016V17.1526C8.41444 17.8802 9.1812 18.3495 9.82779 18.0262L17.5102 14.1849C18.2285 13.8258 18.2293 12.7975 17.5102 12.4378ZM10.3676 15.5725V11.0504L14.8899 13.3114L10.3676 15.5725Z" fill="white"/>
</g>
<defs>
<clipPath id="clip0_158_65">
<rect width="25" height="25" fill="white" transform="translate(0 0.806641)"/>
</clipPath>
</defs>
</svg>
