<svg width="181" height="40" viewBox="0 0 181 40" fill="none" xmlns="http://www.w3.org/2000/svg">
<path d="M27.5582 6.35733C28.221 5.69288 28.6309 4.77616 28.6309 3.7636C28.6309 1.73515 26.9866 0.0908203 24.9582 0.0908203C23.6758 0.0908203 22.5484 0.74899 21.8915 1.74493C21.717 1.91982 1.55054 26.7731 1.41407 26.9802C0.751276 27.6446 0.341309 28.5613 0.341309 29.5739C0.341309 31.6023 1.98564 33.2467 4.01409 33.2467C5.29646 33.2467 6.42388 32.5885 7.08077 31.5925C7.2551 31.4175 27.4217 6.56417 27.5582 6.35733Z" fill="black"/>
<path d="M32.0004 19.8896C32.6649 19.225 33.0758 18.3069 33.0758 17.2929C33.0758 15.2644 31.4315 13.6201 29.403 13.6201C28.1201 13.6201 26.9923 14.279 26.3354 15.2757C26.1594 15.4517 12.46 32.3954 12.3224 32.6041C11.658 33.2687 11.2471 34.1867 11.2471 35.2008C11.2471 37.2292 12.8914 38.8736 14.9199 38.8736C16.2028 38.8736 17.3306 38.2148 17.9875 37.218C18.1635 37.042 31.863 20.0983 32.0004 19.8896Z" fill="black"/>
<path d="M39.8929 9.64996C40.394 7.68442 39.2067 5.68488 37.2412 5.18386C35.2757 4.68284 33.2761 5.87007 32.7751 7.83561C32.2741 9.80115 33.4613 11.8007 35.4268 12.3017C37.3924 12.8027 39.3919 11.6155 39.8929 9.64996Z" fill="black"/>
<path d="M6.84471 12.1714C8.74048 11.4501 9.69256 9.32857 8.97125 7.4328C8.24995 5.53704 6.12839 4.58496 4.23263 5.30626C2.33687 6.02757 1.38478 8.14912 2.10609 10.0449C2.8274 11.9406 4.94895 12.8927 6.84471 12.1714Z" fill="black"/>
<g clip-path="url(#clip0_60_384)">
<path d="M57.517 29.2803L52.0642 10.9507H53.9842L57.6962 23.5459C57.9522 24.4419 58.1826 25.3635 58.413 26.5667C58.7202 25.2355 58.9762 24.4419 59.2578 23.5459L63.2514 10.9507H65.1714L69.165 23.5459C69.4466 24.4675 69.7026 25.3891 69.9842 26.5667C70.2658 25.1587 70.4962 24.2627 70.701 23.5715L74.4898 10.9507H76.3586L70.8546 29.2803H69.1138L64.1986 13.7155L59.2834 29.2803H57.517ZM77.1824 29.2803H75.3136L82.0464 10.9507H84.3248L91.1344 29.2803H89.2144L87.4224 24.4163H78.9744L77.1824 29.2803ZM82.9424 13.5363L79.5376 22.8035H86.8336L83.4032 13.5363C83.3264 13.2803 83.1984 12.9731 83.1728 12.7939C83.1472 12.9475 83.0448 13.2803 82.9424 13.5363ZM96.182 21.6259L89.9612 10.9507H92.0348L96.566 18.8611C96.7708 19.2451 96.9244 19.5523 97.1036 19.9619C97.334 19.5011 97.334 19.5011 97.6668 18.8611L102.147 10.9507H104.169L98.0252 21.6259V29.2803H96.182V21.6259ZM109.781 10.5667V26.2595H117.614V29.2803H106.504V10.5667H109.781ZM123.556 10.5667V29.2803H120.279V10.5667H123.556ZM130.929 29.2803H127.704V10.5667H130.955L139.736 23.8275V10.5667H142.961V29.2803H139.736L130.929 16.0195V29.2803ZM158.726 29.2803H147.104V10.5667H158.726V13.5875H150.381V18.4003H157.856V21.2931H150.381V26.2595H158.726V29.2803Z" fill="black"/>
</g>
<defs>
<clipPath id="clip0_60_384">
<rect width="128.8" height="40" fill="white" transform="translate(52)"/>
</clipPath>
</defs>
</svg>
