<svg width="139" height="38" viewBox="0 0 139 38" fill="none" xmlns="http://www.w3.org/2000/svg">
<path fill-rule="evenodd" clip-rule="evenodd" d="M27.17 37.037L37.037 0L0 9.86701L8.29427 18.1613L29.1723 7.86531L18.7333 28.6003L27.17 37.037Z" fill="black"/>
<path opacity="0.5" fill-rule="evenodd" clip-rule="evenodd" d="M29.1722 7.86523L18.7332 28.6003H8.29419V18.1612L29.1722 7.86523Z" fill="black"/>
<g clip-path="url(#clip0_60_380)">
<path d="M52.8295 26.7288C51.676 26.7288 50.6014 26.5233 49.6058 26.1125C48.6261 25.6858 47.7648 25.1011 47.0221 24.3584C46.2794 23.6157 45.6947 22.7466 45.2681 21.751C44.8572 20.7396 44.6518 19.6493 44.6518 18.4799C44.6518 17.3263 44.8572 16.2596 45.2681 15.2799C45.6947 14.2843 46.2794 13.4152 47.0221 12.6725C47.7648 11.9298 48.6261 11.353 49.6058 10.9421C50.6014 10.5154 51.676 10.3021 52.8295 10.3021C53.9831 10.3021 55.0498 10.5154 56.0295 10.9421C57.0093 11.353 57.8705 11.9298 58.6132 12.6725C59.356 13.4152 59.9327 14.2843 60.3436 15.2799C60.7545 16.2596 60.9599 17.3263 60.9599 18.4799C60.9599 19.6493 60.7545 20.7396 60.3436 21.751C59.9327 22.7466 59.356 23.6157 58.6132 24.3584C57.8705 25.1011 57.0093 25.6858 56.0295 26.1125C55.0498 26.5233 53.9831 26.7288 52.8295 26.7288ZM52.8295 24.4295C53.6039 24.4295 54.3308 24.2794 55.0103 23.9792C55.7056 23.6631 56.314 23.2364 56.8355 22.6992C57.3569 22.1619 57.7599 21.5377 58.0444 20.8266C58.3288 20.0996 58.471 19.3174 58.471 18.4799C58.471 17.6582 58.3288 16.8917 58.0444 16.1806C57.7599 15.4695 57.3569 14.8453 56.8355 14.308C56.314 13.7708 55.7135 13.352 55.034 13.0517C54.3545 12.7515 53.6197 12.6014 52.8295 12.6014C52.0394 12.6014 51.2967 12.7515 50.6014 13.0517C49.9061 13.352 49.2977 13.7708 48.7762 14.308C48.2705 14.8453 47.8676 15.4695 47.5673 16.1806C47.2829 16.8917 47.1407 17.6582 47.1407 18.4799C47.1407 19.3174 47.2829 20.0996 47.5673 20.8266C47.8676 21.5377 48.2705 22.1619 48.7762 22.6992C49.2977 23.2364 49.9061 23.6631 50.6014 23.9792C51.2967 24.2794 52.0394 24.4295 52.8295 24.4295ZM65.9508 31.7777H63.6042V20.6132C63.6042 19.4596 63.8728 18.4246 64.4101 17.508C64.9632 16.5915 65.7059 15.8725 66.6382 15.351C67.5706 14.8137 68.6215 14.5451 69.7908 14.5451C70.9602 14.5451 72.0111 14.8216 72.9434 15.3747C73.8758 15.912 74.6106 16.6468 75.1479 17.5792C75.6852 18.4957 75.9538 19.5071 75.9538 20.6132C75.9538 21.7826 75.6931 22.8335 75.1716 23.7658C74.6501 24.6824 73.9311 25.4093 73.0145 25.9466C72.1138 26.468 71.0708 26.7288 69.8857 26.7288C68.9533 26.7288 68.0921 26.5075 67.3019 26.0651C66.5276 25.6226 65.9034 25.0458 65.4294 24.3347C64.9711 23.6078 64.7419 22.8177 64.7419 21.9643L65.9508 22.5806V31.7777ZM69.7908 24.5243C70.5177 24.5243 71.1657 24.3505 71.7345 24.0029C72.3192 23.6394 72.7775 23.1653 73.1094 22.5806C73.4412 21.9801 73.6071 21.3322 73.6071 20.6369C73.6071 19.9258 73.4412 19.2779 73.1094 18.6932C72.7775 18.1085 72.3192 17.6424 71.7345 17.2947C71.1657 16.9471 70.5177 16.7732 69.7908 16.7732C69.0639 16.7732 68.4081 16.9471 67.8234 17.2947C67.2545 17.6424 66.7963 18.1085 66.4486 18.6932C66.1168 19.2779 65.9508 19.9258 65.9508 20.6369C65.9508 21.3322 66.1168 21.9801 66.4486 22.5806C66.7963 23.1653 67.2545 23.6394 67.8234 24.0029C68.4081 24.3505 69.0639 24.5243 69.7908 24.5243ZM83.8901 26.7525C82.9419 26.7525 82.136 26.5629 81.4723 26.1836C80.8086 25.8043 80.3029 25.2829 79.9553 24.6192C79.6234 23.9396 79.4575 23.1574 79.4575 22.2725V11.8192H81.8042V22.2014C81.8042 22.9599 82.0096 23.5525 82.4205 23.9792C82.8471 24.4058 83.4081 24.6192 84.1034 24.6192C84.4827 24.6192 84.8619 24.5559 85.2412 24.4295C85.6363 24.3031 85.976 24.1372 86.2605 23.9317V26.0888C85.9602 26.2784 85.5968 26.4364 85.1701 26.5629C84.7434 26.6893 84.3168 26.7525 83.8901 26.7525ZM86.2605 16.868H77.1582V14.8295H86.2605V16.868ZM89.7495 14.8295H92.0962V26.4443H89.7495V14.8295ZM90.911 12.5303C90.6424 12.5303 90.3895 12.4671 90.1525 12.3406C89.9155 12.1984 89.7258 12.0088 89.5836 11.7717C89.4414 11.5347 89.3703 11.274 89.3703 10.9895C89.3703 10.7051 89.4414 10.4443 89.5836 10.2073C89.7258 9.97026 89.9155 9.78063 90.1525 9.63841C90.3895 9.49619 90.6424 9.42508 90.911 9.42508C91.1955 9.42508 91.4483 9.49619 91.6695 9.63841C91.9066 9.78063 92.0883 9.97026 92.2147 10.2073C92.3569 10.4443 92.4281 10.7051 92.4281 10.9895C92.4281 11.274 92.3569 11.5347 92.2147 11.7717C92.0883 12.0088 91.9066 12.1984 91.6695 12.3406C91.4483 12.4671 91.1955 12.5303 90.911 12.5303ZM110.331 14.4977C111.5 14.4977 112.48 14.7584 113.27 15.2799C114.076 15.8014 114.684 16.5046 115.095 17.3895C115.522 18.2745 115.735 19.2542 115.735 20.3288V26.4443H113.389V20.708C113.389 19.9969 113.27 19.3411 113.033 18.7406C112.812 18.1401 112.456 17.6582 111.966 17.2947C111.492 16.9312 110.892 16.7495 110.165 16.7495C109.47 16.7495 108.885 16.9312 108.411 17.2947C107.937 17.6424 107.581 18.1164 107.344 18.7169C107.107 19.3016 106.989 19.9495 106.989 20.6606V26.4443H104.642V20.6606C104.642 19.9495 104.523 19.3016 104.286 18.7169C104.065 18.1164 103.71 17.6424 103.22 17.2947C102.746 16.9312 102.145 16.7495 101.418 16.7495C100.691 16.7495 100.091 16.9312 99.6168 17.2947C99.1585 17.6582 98.8187 18.1401 98.5975 18.7406C98.3763 19.3411 98.2656 19.9969 98.2656 20.708V26.4443H95.919V20.3525C95.919 19.2621 96.1165 18.2745 96.5116 17.3895C96.9224 16.5046 97.5229 15.8014 98.3131 15.2799C99.119 14.7584 100.099 14.4977 101.252 14.4977C102.232 14.4977 103.078 14.6873 103.789 15.0666C104.516 15.4458 105.077 15.9673 105.472 16.631C105.882 17.2947 106.096 18.0611 106.112 18.9303H105.59C105.622 18.0611 105.835 17.2947 106.23 16.631C106.641 15.9673 107.194 15.4458 107.889 15.0666C108.6 14.6873 109.414 14.4977 110.331 14.4977ZM124.187 26.7288C123.065 26.7288 122.061 26.4522 121.176 25.8992C120.307 25.3461 119.62 24.6112 119.114 23.6947C118.608 22.7624 118.355 21.7352 118.355 20.6132C118.355 19.5071 118.624 18.4957 119.161 17.5792C119.714 16.6468 120.457 15.912 121.39 15.3747C122.322 14.8216 123.373 14.5451 124.542 14.5451C125.712 14.5451 126.762 14.8137 127.695 15.351C128.627 15.8725 129.362 16.5915 129.899 17.508C130.452 18.4246 130.729 19.4596 130.729 20.6132V26.4443H128.501V22.1066L129.307 21.4903C129.307 22.47 129.085 23.355 128.643 24.1451C128.216 24.9352 127.616 25.5673 126.841 26.0414C126.083 26.4996 125.198 26.7288 124.187 26.7288ZM124.542 24.5006C125.269 24.5006 125.925 24.3268 126.51 23.9792C127.094 23.6315 127.553 23.1653 127.884 22.5806C128.216 21.9801 128.382 21.3322 128.382 20.6369C128.382 19.9258 128.216 19.2779 127.884 18.6932C127.553 18.1085 127.094 17.6424 126.51 17.2947C125.925 16.9312 125.269 16.7495 124.542 16.7495C123.815 16.7495 123.159 16.9312 122.575 17.2947C122.006 17.6424 121.548 18.1085 121.2 18.6932C120.868 19.2779 120.702 19.9258 120.702 20.6369C120.702 21.3322 120.868 21.9801 121.2 22.5806C121.548 23.1653 122.006 23.6315 122.575 23.9792C123.159 24.3268 123.815 24.5006 124.542 24.5006ZM134.564 9.49619H136.911V26.4443H134.564V9.49619Z" fill="black"/>
</g>
<defs>
<clipPath id="clip0_60_380">
<rect width="94.0741" height="37.037" fill="white" transform="translate(44.4443)"/>
</clipPath>
</defs>
</svg>
