<svg width="136" height="40" viewBox="0 0 136 40" fill="none" xmlns="http://www.w3.org/2000/svg">
<path d="M132.917 20.4377L117.187 0.428014H114.547V4.92222H117.294L133.416 25.3944H135.663V0.428068L132.917 0.428068V20.4377ZM92.828 21.8502C89.9717 20.0782 88.3217 16.8161 88.3217 12.8762C88.3217 7.27638 92.2808 2.60384 97.8089 2.60384C101.34 2.60384 103.479 3.78081 105.405 5.45773L107.225 3.31701C104.729 1.21253 102.125 0 97.9162 0C90.4258 0 85.397 6.06363 85.397 12.9475C85.397 17.2457 87.1422 21.0173 90.2296 23.3507L92.8268 21.8502H92.828ZM75.9058 0.427953V25.3943H78.7241V0.427953L75.9058 0.427953ZM54.4953 6.66975C54.4953 4.38732 56.5636 2.60378 59.8102 2.60378C62.3774 2.60378 64.6969 3.42446 67.0146 5.31422L68.656 3.13863C66.1232 1.10586 63.5195 0.0717275 59.8813 0.0717275C55.1381 0.0717275 51.6783 2.92518 51.6783 6.91987C51.6783 11.0571 54.313 12.9281 60.0596 14.1593C65.2982 15.282 66.5515 16.5859 66.5515 18.94C66.5515 21.4725 64.3397 23.2188 60.9871 23.2188C57.5269 23.2188 55.0308 22.0416 52.427 19.6876L50.6796 21.757C53.675 24.4319 56.9203 25.7513 60.8798 25.7513C65.8376 25.7513 69.4034 22.9704 69.4034 18.6542C69.4034 14.801 66.8384 12.7597 61.2728 11.5564C55.7809 10.3696 54.4953 9.05986 54.4953 6.66975ZM28.2899 22.828V25.3944H46.3377V22.828H28.2899ZM28.2899 11.5206V14.0882C33.7705 14.0882 40.8558 14.0882 46.3377 14.0882V11.5206C40.8558 11.5206 33.7705 11.5206 28.2899 11.5206ZM46.3377 0.427953L28.2899 0.427953V2.99623H31.1074H41.5775H46.3377V0.427953ZM96.2477 14.5889C96.7728 13.6419 97.3728 12.7922 98.0095 12.0555C101.379 12.0555 104.747 12.0555 108.116 12.0555V22.0067C107.339 22.7 106.43 23.3583 105.405 23.925V14.5888C102.353 14.5889 99.3003 14.5889 96.2477 14.5889ZM21.9341 12.8762C21.9341 5.81395 16.5133 0.427953 8.66611 0.427953L0 0.427953L0 3.03173H2.81706H8.66611C14.5174 3.03173 19.0098 6.95359 19.0098 12.9474C19.0098 18.5104 14.9792 22.7918 8.66611 22.7918H2.81706H0L0 25.3943H8.66611C16.5133 25.3944 21.9341 19.9384 21.9341 12.8762Z" fill="black"/>
<path d="M2.84302 2.84375H0L0 23.0034H2.84302L2.84302 2.84375Z" fill="black"/>
<path d="M132.38 36.2178C132.38 37.4777 131.477 38.5073 130.175 38.5073C128.871 38.5073 127.947 37.457 127.947 36.1971V36.1764C127.947 34.914 128.85 33.8844 130.154 33.8844C131.456 33.8844 132.38 34.936 132.38 36.1971V36.2178ZM134.072 36.1971V36.1764C134.072 34.0848 132.444 32.3931 130.175 32.3931C127.905 32.3931 126.256 34.1055 126.256 36.1971V36.2178C126.256 38.3079 127.884 39.9999 130.154 39.9999C132.423 39.9999 134.072 38.2872 134.072 36.1971ZM116.676 39.873V32.5197H115.058V39.873H116.676ZM105.479 36.1971V36.1764C105.479 34.1055 103.882 32.5197 101.57 32.5197H98.7028V33.9801H100.321H101.57C101.591 33.9801 101.611 33.9801 101.632 33.9801C101.653 33.9801 101.674 33.9814 101.693 33.9827C101.714 33.9827 101.734 33.9854 101.754 33.9854C101.773 33.9878 101.794 33.9878 101.813 33.9904C101.834 33.993 101.854 33.9943 101.873 33.9956C101.892 33.9983 101.912 34.0009 101.931 34.0035C101.951 34.0061 101.97 34.0085 101.989 34.0112C102.009 34.0151 102.027 34.019 102.046 34.0217C102.065 34.0243 102.084 34.0293 102.102 34.0319C102.121 34.0372 102.14 34.0398 102.159 34.0448C102.177 34.05 102.195 34.0539 102.213 34.0578C102.231 34.0631 102.249 34.0681 102.267 34.0733C102.286 34.0785 102.302 34.0836 102.321 34.0887C102.337 34.094 102.355 34.0992 102.372 34.1055C102.39 34.1121 102.407 34.1173 102.425 34.1236C102.442 34.1302 102.459 34.1367 102.476 34.1431C102.492 34.1496 102.509 34.1561 102.526 34.1638C102.543 34.1716 102.559 34.1782 102.575 34.1845C102.591 34.1923 102.607 34.1999 102.623 34.2078C102.64 34.2157 102.655 34.2233 102.671 34.2311C102.688 34.2388 102.703 34.2479 102.717 34.2569C102.734 34.2647 102.75 34.2737 102.764 34.2828C102.78 34.2907 102.795 34.3009 102.809 34.3088C102.825 34.3191 102.839 34.3295 102.853 34.3371C102.869 34.3476 102.883 34.3578 102.897 34.367C102.911 34.3759 102.926 34.3864 102.94 34.3966C102.954 34.4071 102.967 34.4173 102.982 34.4289C102.996 34.4394 103.009 34.4509 103.021 34.4614C103.036 34.4717 103.049 34.4821 103.061 34.495C103.074 34.5053 103.088 34.517 103.1 34.5286C103.113 34.5391 103.126 34.5519 103.139 34.5635C103.151 34.5753 103.164 34.5881 103.175 34.5996C103.187 34.6114 103.2 34.6243 103.211 34.6371C103.223 34.6502 103.235 34.6631 103.247 34.6747C103.258 34.6891 103.27 34.7006 103.28 34.7148C103.292 34.7279 103.302 34.7408 103.314 34.7536C103.324 34.768 103.334 34.7822 103.346 34.795C103.355 34.8081 103.365 34.8236 103.376 34.8364C103.386 34.8506 103.397 34.865 103.407 34.8792C103.416 34.8934 103.426 34.9088 103.436 34.9219C103.444 34.9374 103.453 34.9529 103.463 34.9671C103.472 34.9813 103.48 34.997 103.49 35.0125C103.499 35.028 103.507 35.0435 103.516 35.0589C103.523 35.0746 103.532 35.0901 103.54 35.1056C103.548 35.121 103.555 35.1366 103.563 35.152C103.571 35.169 103.579 35.1858 103.586 35.2013C103.593 35.2181 103.599 35.2349 103.607 35.2504C103.614 35.2684 103.62 35.2841 103.627 35.3009C103.633 35.3177 103.64 35.3345 103.646 35.3513C103.653 35.3694 103.658 35.3849 103.664 35.403C103.669 35.4211 103.676 35.4381 103.681 35.4549C103.686 35.473 103.692 35.491 103.697 35.5092C103.702 35.5273 103.706 35.5441 103.711 35.5622C103.716 35.5802 103.72 35.5983 103.724 35.6165C103.728 35.6359 103.732 35.654 103.736 35.6721C103.739 35.6901 103.743 35.7082 103.747 35.7277C103.75 35.7471 103.753 35.7652 103.756 35.7833C103.759 35.8027 103.761 35.822 103.764 35.8402C103.767 35.8609 103.769 35.879 103.772 35.8984C103.773 35.9178 103.776 35.9385 103.777 35.9566C103.78 35.9773 103.781 35.9968 103.782 36.0161C103.783 36.0368 103.783 36.0549 103.784 36.0756C103.786 36.0963 103.786 36.117 103.787 36.1351C103.787 36.1558 103.787 36.1765 103.787 36.1973V36.218C103.787 37.5203 102.895 38.4143 101.57 38.4143H100.321H98.7029V39.8732H101.57C103.882 39.873 105.479 38.2665 105.479 36.1971ZM88.9861 36.6692V32.5197H87.3696V36.7326C87.3696 37.8993 86.7705 38.4968 85.7823 38.4968C84.7941 38.4968 84.1954 37.8786 84.1954 36.6807V32.5197H82.5771V36.7222C82.5771 38.8862 83.7851 39.9894 85.7618 39.9894C87.7368 39.9894 88.9861 38.8964 88.9861 36.6692ZM73.3873 34.0111V32.5197H67.2941V34.0111H69.5316V39.8731H71.1498V34.0111H73.3873ZM58.5024 37.7V37.678C58.5024 36.3961 57.6616 35.8606 56.1702 35.4715C54.8987 35.1468 54.5833 34.9889 54.5833 34.5051V34.4844C54.5833 34.1274 54.9091 33.8429 55.5288 33.8429C56.1498 33.8429 56.7899 34.1172 57.4418 34.5673L58.2826 33.3489C57.536 32.7512 56.6216 32.4151 55.5506 32.4151C54.0479 32.4151 52.9769 33.2973 52.9769 34.6321V34.6528C52.9769 36.1117 53.9328 36.5231 55.4137 36.9007C56.6426 37.2162 56.8946 37.4257 56.8946 37.8359V37.8566C56.8946 38.2872 56.496 38.551 55.8341 38.551C54.9933 38.551 54.3 38.2033 53.6375 37.6573L52.6816 38.802C53.5638 39.5911 54.688 39.9792 55.8031 39.9792C57.3886 39.9792 58.5024 39.1592 58.5024 37.7Z" fill="black"/>
<path fill-rule="evenodd" clip-rule="evenodd" d="M115.868 25.3939C117.027 25.3939 117.966 24.4548 117.966 23.2959C117.966 22.1355 117.027 21.1953 115.868 21.1953C114.708 21.1953 113.768 22.1355 113.768 23.2959C113.768 24.4547 114.708 25.3939 115.868 25.3939Z" fill="black"/>
</svg>
