<svg width="150" height="40" viewBox="0 0 150 40" fill="none" xmlns="http://www.w3.org/2000/svg">
<path d="M4.0354 17.3904C6.08238 18.749 8.87208 19.1475 11.2451 19.1475C14.5602 19.1475 17.06 18.4592 18.7809 17.0643C20.5018 15.6695 21.3533 13.8399 21.3533 11.5755C21.3533 8.94884 19.9765 6.50332 17.6035 5.30774C16.8426 4.92732 16.0456 4.61938 15.2123 4.42011C13.9986 4.13028 12.6762 3.98535 11.227 3.98535C7.91199 3.98535 5.39401 4.69183 3.69121 6.06857C1.9703 7.46341 1.1189 9.29302 1.1189 11.5574C1.1189 12.8979 1.3725 14.0572 1.87972 15.0354C2.40505 16.0318 3.16588 16.8107 4.0354 17.3904ZM8.87208 6.37652C9.43364 5.39832 10.2307 4.90922 11.2451 4.90922C12.2596 4.90922 13.0385 5.39832 13.6182 6.37652C14.1797 7.35473 14.4696 9.09376 14.4696 11.5755C14.4696 14.0572 14.1797 15.7963 13.6182 16.7745C13.0566 17.7527 12.2596 18.2418 11.2451 18.2418C10.2307 18.2418 9.45175 17.7527 8.87208 16.7745C8.31051 15.7963 8.02068 14.0572 8.02068 11.5755C8.02068 9.09376 8.31051 7.35473 8.87208 6.37652Z" fill="black"/>
<path d="M21.2445 23.2235C19.9402 21.883 18.1469 21.2308 15.8463 21.2308H7.11489C5.73816 21.2308 4.77807 21.0859 4.23462 20.8142C3.81797 20.5968 3.47379 20.2345 3.43756 19.7273C3.40133 19.3288 3.6006 19.0208 3.83609 18.7129C2.36878 18.5861 0.774671 19.4194 0.285568 20.8504C-0.366568 22.8068 0.194994 24.9625 1.82534 26.2306C3.05715 27.1725 4.8143 27.6616 7.11489 27.6616H15.8463C19.5236 27.6616 21.3713 28.658 21.3713 30.6506C21.3713 32.2085 20.5018 33.5309 18.7809 34.5815C16.8607 35.759 14.5782 36.3024 12.3501 36.4293C9.94081 36.5742 7.7308 36.1938 5.50266 35.3242C6.40841 34.654 6.96997 33.549 6.95185 32.4259C6.93374 31.3027 6.35406 30.1977 5.4302 29.5637C4.48823 28.9478 3.2383 28.821 2.20575 29.2739C1.51738 29.5818 0.937705 30.1253 0.539177 30.7774C0.158764 31.3933 -0.058615 32.136 0.0138446 32.8606C0.104419 33.6939 0.593522 34.4728 1.22754 35.0163C3.05715 36.6285 5.95553 37.0995 8.31047 37.3712C10.9552 37.6611 13.5276 37.4437 16.118 36.9002C18.2556 36.4474 20.3931 35.451 21.7698 33.6939C22.8205 32.3353 23.219 30.4694 23.219 28.7848C23.2009 26.4298 22.5488 24.564 21.2445 23.2235Z" fill="black"/>
<path d="M25.0848 9.49236C27.0157 9.49236 28.581 7.92707 28.581 5.99619C28.581 4.0653 27.0157 2.5 25.0848 2.5C23.1539 2.5 21.5886 4.0653 21.5886 5.99619C21.5886 7.92707 23.1539 9.49236 25.0848 9.49236Z" fill="black"/>
<path d="M44.6608 31.4304C42.509 31.4304 40.6338 30.9693 39.0353 30.047C37.4368 29.1248 36.2072 27.844 35.3465 26.2045C34.4857 24.565 34.0554 22.6898 34.0554 20.579C34.0554 18.1197 34.4755 16.0396 35.3157 14.3387C36.1765 12.6377 37.3651 11.3568 38.8816 10.4961C40.3982 9.63538 42.1504 9.20501 44.1382 9.20501C45.4293 9.20501 46.6692 9.43044 47.8578 9.8813C48.1653 9.73784 48.6059 9.59439 49.1797 9.45093C49.774 9.30748 50.2351 9.2255 50.563 9.20501C51.1573 10.7215 51.4545 13.0373 51.4545 16.1524H48.4727C48.2677 14.8408 47.7554 13.8263 46.9356 13.109C46.1364 12.3918 45.1732 12.0331 44.046 12.0331C42.6934 12.0331 41.6278 12.6172 40.849 13.7853C40.0908 14.933 39.7116 16.9311 39.7116 19.7797C39.7116 22.9358 40.0908 25.1696 40.849 26.4812C41.6073 27.7927 42.7652 28.4485 44.3227 28.4485C44.8965 28.4485 45.3781 28.3871 45.7675 28.2641C46.1569 28.1411 46.4848 27.9362 46.7512 27.6493V24.1449C46.7512 23.612 46.5155 23.2329 46.0442 23.0075C45.5933 22.7616 44.876 22.6386 43.8923 22.6386C43.8923 22.2697 43.9641 21.8393 44.1075 21.3475C44.251 20.8556 44.4252 20.497 44.6301 20.2716H51.27C52.0693 20.2716 52.6226 20.5073 52.93 20.9786C53.2374 21.45 53.3911 21.9008 53.3911 22.3312C53.3911 22.5361 53.3399 22.7206 53.2374 22.8845C52.4997 22.8845 51.9258 22.9665 51.516 23.1304V26.6656C51.516 27.3214 51.6287 27.7825 51.8541 28.0489C51.9976 28.1924 52.0693 28.3768 52.0693 28.6022C52.0693 28.9711 51.7311 29.381 51.0549 29.8319C50.3786 30.2827 49.4666 30.6619 48.319 30.9693C47.1918 31.2767 45.9724 31.4304 44.6608 31.4304ZM56.2827 11.3261C56.2827 10.8138 56.129 10.4346 55.8215 10.1887C55.5346 9.92229 54.9916 9.78908 54.1923 9.78908V8.55946C54.9301 8.14959 55.8625 7.80119 56.9897 7.51428C58.1168 7.22737 59.0288 7.08392 59.7256 7.08392C60.2174 7.08392 60.5658 7.18639 60.7708 7.39132C60.9757 7.59626 61.0782 7.9549 61.0782 8.46724V27.6493C61.0782 28.2846 61.2011 28.7252 61.4471 28.9711C61.7135 29.2171 62.1541 29.34 62.7689 29.34C62.7689 29.9138 62.523 30.4672 62.0311 31H55.299C54.8276 30.4877 54.5919 29.9343 54.5919 29.34C55.1862 29.34 55.6166 29.2171 55.883 28.9711C56.1494 28.7047 56.2827 28.2641 56.2827 27.6493V11.3261ZM71.3866 9.26649C71.3866 10.1477 71.1099 10.8547 70.5566 11.3876C70.0237 11.8999 69.3064 12.1561 68.4047 12.1561C67.5235 12.1561 66.8165 11.8999 66.2836 11.3876C65.7713 10.8547 65.5151 10.1477 65.5151 9.26649C65.5151 8.40576 65.7815 7.70897 66.3144 7.17614C66.8677 6.6433 67.585 6.37689 68.4662 6.37689C69.3474 6.37689 70.0545 6.6433 70.5873 7.17614C71.1201 7.70897 71.3866 8.40576 71.3866 9.26649ZM70.8025 27.68C70.8025 28.2743 70.9459 28.7047 71.2328 28.9711C71.5403 29.2171 72.0014 29.34 72.6162 29.34C72.6162 29.9753 72.3805 30.5286 71.9091 31H64.9618C64.4904 30.5286 64.2548 29.9753 64.2548 29.34C64.8696 29.34 65.3102 29.2171 65.5766 28.9711C65.8635 28.7047 66.007 28.2641 66.007 27.6493V18.7346C66.007 18.1607 65.8635 17.7509 65.5766 17.5049C65.3102 17.259 64.7773 17.136 63.9781 17.136V15.7835C64.4699 15.4761 65.2999 15.1584 66.4681 14.8305C67.6567 14.4821 68.6609 14.3079 69.4806 14.3079C69.952 14.3079 70.2901 14.4206 70.4951 14.6461C70.7 14.851 70.8025 15.2096 70.8025 15.722V27.68ZM98.8539 27.68C98.8539 28.5613 99.356 29.0941 100.36 29.2785V30.17C99.5814 30.8463 98.321 31.1844 96.5791 31.1844C95.7183 31.1844 95.0421 31.0717 94.5502 30.8463C94.0584 30.6004 93.8124 30.1803 93.8124 29.5859V19.3494C93.8124 18.6936 93.628 18.1915 93.2591 17.8431C92.9107 17.4742 92.4394 17.2898 91.845 17.2898C91.1073 17.2898 90.472 17.5357 89.9391 18.0275C89.9596 18.13 89.9699 18.2837 89.9699 18.4886V27.68C89.9699 28.2743 90.0928 28.7047 90.3388 28.9711C90.5847 29.2171 90.9741 29.34 91.5069 29.34C91.5069 29.9548 91.261 30.5082 90.7691 31H84.2214C83.7501 30.4877 83.5144 29.9343 83.5144 29.34C84.0267 29.34 84.3956 29.2171 84.621 28.9711C84.8465 28.7047 84.9592 28.2743 84.9592 27.68V19.3494C84.9592 18.7141 84.7747 18.212 84.4059 17.8431C84.037 17.4742 83.5759 17.2898 83.0225 17.2898C82.6127 17.2898 82.2028 17.3922 81.7929 17.5972C81.383 17.7816 81.0449 18.0378 80.7785 18.3657V27.68C80.7785 28.2743 80.8809 28.7047 81.0859 28.9711C81.3113 29.2171 81.6802 29.34 82.1925 29.34C82.1925 29.9753 81.9466 30.5286 81.4548 31H74.7841C74.2922 30.5082 74.0463 29.9548 74.0463 29.34C74.6611 29.34 75.1017 29.2171 75.3682 28.9711C75.6346 28.7047 75.7678 28.2743 75.7678 27.68V18.6731C75.7678 18.1197 75.6141 17.7304 75.3067 17.5049C74.9993 17.259 74.4664 17.136 73.7082 17.136V15.7835C74.364 15.3941 75.2862 15.0457 76.4748 14.7383C77.6839 14.4309 78.5959 14.2772 79.2107 14.2772C79.6616 14.2772 80.01 14.4206 80.2559 14.7076C80.5223 14.974 80.6965 15.4863 80.7785 16.2446C81.3113 15.6298 81.9876 15.1482 82.8074 14.7998C83.6271 14.4514 84.5391 14.2772 85.5433 14.2772C87.5926 14.2772 88.9247 14.9637 89.5395 16.3368C90.0723 15.681 90.7589 15.1789 91.5991 14.8305C92.4599 14.4616 93.4128 14.2772 94.458 14.2772C95.913 14.2772 97.0094 14.6358 97.7472 15.3531C98.485 16.0704 98.8539 17.1156 98.8539 18.4886V27.68ZM109.221 31.3381C109.037 31.3381 108.637 31.3177 108.022 31.2767V33.5207C108.022 34.074 108.217 34.4942 108.606 34.7811C109.016 35.068 109.477 35.2114 109.99 35.2114C109.99 35.8263 109.754 36.3693 109.283 36.8407H102.489C101.997 36.3488 101.751 35.8058 101.751 35.2114C102.345 35.2114 102.735 35.0885 102.919 34.8426C103.104 34.5966 103.196 34.156 103.196 33.5207V18.796C103.196 18.2427 103.042 17.8533 102.735 17.6279C102.427 17.382 101.895 17.259 101.136 17.259V15.8757C101.792 15.4863 102.622 15.1482 103.626 14.8613C104.651 14.5539 105.44 14.4001 105.993 14.4001C106.424 14.4001 106.772 14.4924 107.039 14.6768C107.305 14.8408 107.5 15.1584 107.623 15.6298C108.463 14.81 109.703 14.4001 111.342 14.4001C112.469 14.4001 113.504 14.6871 114.447 15.2609C115.39 15.8347 116.138 16.7057 116.691 17.8738C117.265 19.0215 117.552 20.4253 117.552 22.0853C117.552 23.9912 117.183 25.6409 116.445 27.0345C115.707 28.428 114.703 29.4937 113.433 30.2315C112.162 30.9693 110.758 31.3381 109.221 31.3381ZM112.234 22.823C112.234 20.8352 111.926 19.3904 111.311 18.4886C110.697 17.5869 109.887 17.136 108.883 17.136C108.555 17.136 108.268 17.1975 108.022 17.3205V28.7867C108.371 28.9916 108.76 29.0941 109.19 29.0941C110.092 29.0941 110.82 28.5715 111.373 27.5263C111.947 26.4812 112.234 24.9134 112.234 22.823ZM125.525 31.3074C124.52 31.3074 123.516 31.1639 122.512 30.877C121.528 30.5696 120.719 30.1393 120.084 29.5859C119.448 29.0326 119.131 28.3768 119.131 27.6185C119.131 26.9013 119.336 26.3274 119.745 25.8971C120.155 25.4462 120.678 25.2208 121.313 25.2208C121.887 25.2208 122.369 25.4052 122.758 25.7741C123.168 26.143 123.373 26.6246 123.373 27.2189C123.373 27.4853 123.332 27.721 123.25 27.926C123.188 28.1104 123.065 28.3153 122.881 28.5408C123.045 28.7047 123.352 28.8379 123.803 28.9404C124.254 29.0224 124.736 29.0634 125.248 29.0634C125.945 29.0634 126.488 28.9404 126.877 28.6945C127.287 28.428 127.492 28.0899 127.492 27.68C127.492 27.1267 127.236 26.6553 126.723 26.266C126.211 25.8561 125.391 25.354 124.264 24.7597C123.117 24.1449 122.246 23.6428 121.651 23.2534C121.057 22.8435 120.524 22.3004 120.053 21.6242C119.602 20.9274 119.377 20.0769 119.377 19.0727C119.377 17.6791 119.95 16.552 121.098 15.6912C122.246 14.8305 123.834 14.4001 125.863 14.4001C127.851 14.4001 129.326 14.7588 130.289 15.4761C131.273 16.1728 131.765 17.0131 131.765 17.9968C131.765 18.6116 131.56 19.1137 131.15 19.5031C130.761 19.8924 130.279 20.0871 129.705 20.0871C129.172 20.0871 128.711 19.9334 128.322 19.626C127.953 19.2981 127.769 18.878 127.769 18.3657C127.769 18.0993 127.81 17.8328 127.892 17.5664C127.974 17.2795 128.086 17.0438 128.23 16.8594C127.82 16.5315 127.205 16.3675 126.385 16.3675C125.73 16.3675 125.217 16.5212 124.848 16.8286C124.479 17.136 124.295 17.5254 124.295 17.9968C124.295 18.6321 124.551 19.1547 125.063 19.5645C125.576 19.9744 126.396 20.4663 127.523 21.0401C128.588 21.5934 129.429 22.075 130.043 22.4849C130.658 22.8948 131.191 23.4378 131.642 24.1141C132.093 24.7904 132.318 25.6204 132.318 26.6041C132.318 28.2026 131.662 29.3912 130.351 30.17C129.06 30.9283 127.451 31.3074 125.525 31.3074ZM142.85 27.8645C144.141 27.8645 145.34 27.4546 146.447 26.6349C146.611 26.7988 146.754 27.0447 146.877 27.3726C147 27.7005 147.062 27.9874 147.062 28.2334C147.062 28.6022 146.816 29.0326 146.324 29.5245C145.832 29.9958 145.145 30.4057 144.264 30.7541C143.404 31.1025 142.43 31.2767 141.344 31.2767C139.827 31.2767 138.495 30.9488 137.348 30.293C136.221 29.6372 135.35 28.6842 134.735 27.4341C134.12 26.184 133.813 24.7085 133.813 23.0075C133.813 21.2655 134.14 19.7387 134.796 18.4271C135.472 17.1156 136.395 16.1114 137.563 15.4146C138.731 14.6973 140.053 14.3387 141.528 14.3387C143.393 14.3387 144.879 14.8817 145.986 15.9679C147.092 17.0541 147.646 18.5604 147.646 20.4868C147.646 21.3885 147.502 22.1058 147.215 22.6386C146.928 23.1509 146.416 23.4071 145.678 23.4071H139.038C139.161 26.3787 140.432 27.8645 142.85 27.8645ZM141.344 16.4598C140.709 16.4598 140.176 16.8184 139.745 17.5357C139.315 18.2325 139.079 19.4108 139.038 21.0708H142.143C142.471 21.0708 142.686 20.9581 142.789 20.7327C142.891 20.5073 142.942 20.1589 142.942 19.6875C142.942 18.4784 142.799 17.6381 142.512 17.1668C142.225 16.6954 141.836 16.4598 141.344 16.4598Z" fill="black"/>
</svg>
