<svg width="168" height="38" viewBox="0 0 168 38" fill="none" xmlns="http://www.w3.org/2000/svg">
<path d="M25.517 5.88631C26.1307 5.27108 26.5103 4.42227 26.5103 3.48471C26.5103 1.60651 24.9877 0.0839844 23.1095 0.0839844C21.9222 0.0839844 20.8782 0.693401 20.27 1.61557C20.1084 1.7775 1.43582 24.7898 1.30946 24.9815C0.695761 25.5968 0.316162 26.4456 0.316162 27.3831C0.316162 29.2613 1.83869 30.7838 3.71689 30.7838C4.90427 30.7838 5.94818 30.1744 6.5564 29.2522C6.71782 29.0901 25.3906 6.07783 25.517 5.88631Z" fill="black"/>
<path d="M29.6301 18.4159C30.2454 17.8005 30.6258 16.9505 30.6258 16.0116C30.6258 14.1334 29.1033 12.6108 27.2251 12.6108C26.0372 12.6108 24.993 13.221 24.3847 14.1438C24.2218 14.3068 11.5371 29.9954 11.4098 30.1886C10.7945 30.804 10.4141 31.654 10.4141 32.5929C10.4141 34.4711 11.9366 35.9937 13.8148 35.9937C15.0027 35.9937 16.0469 35.3837 16.6552 34.4607C16.8181 34.2977 29.5029 18.6091 29.6301 18.4159Z" fill="black"/>
<path d="M36.9377 8.93495C37.4016 7.115 36.3023 5.26358 34.4823 4.79967C32.6624 4.33576 30.811 5.43505 30.3471 7.25499C29.8832 9.07494 30.9824 10.9264 32.8024 11.3903C34.6223 11.8542 36.4738 10.7549 36.9377 8.93495Z" fill="black"/>
<path d="M6.33763 11.2699C8.09297 10.602 8.97453 8.63762 8.30665 6.88228C7.63878 5.12694 5.67437 4.24538 3.91904 4.91326C2.1637 5.58114 1.28214 7.54554 1.95002 9.30087C2.6179 11.0562 4.5823 11.9378 6.33763 11.2699Z" fill="black"/>
<g clip-path="url(#clip0_60_379)">
<path d="M53.2563 27.1113L48.2074 10.1395H49.9851L53.4222 21.8017C53.6592 22.6313 53.8725 23.4847 54.0859 24.5987C54.3703 23.3661 54.6074 22.6313 54.8681 21.8017L58.5659 10.1395H60.3437L64.0414 21.8017C64.3022 22.655 64.5392 23.5084 64.8 24.5987C65.0607 23.295 65.274 22.4654 65.4637 21.8254L68.9718 10.1395H70.7022L65.6059 27.1113H63.994L59.4429 12.6995L54.8918 27.1113H53.2563ZM71.465 27.1113H69.7346L75.9687 10.1395H78.0783L84.3835 27.1113H82.6057L80.9464 22.6076H73.1242L71.465 27.1113ZM76.7983 12.5336L73.6457 21.1143H80.4012L77.225 12.5336C77.1538 12.2965 77.0353 12.0121 77.0116 11.8461C76.9879 11.9884 76.8931 12.2965 76.7983 12.5336ZM89.0572 20.0239L83.2972 10.1395H85.2172L89.4127 17.4639C89.6024 17.8195 89.7446 18.1039 89.9105 18.4832C90.1238 18.0565 90.1238 18.0565 90.432 17.4639L94.5801 10.1395H96.4527L90.7638 20.0239V27.1113H89.0572V20.0239ZM101.648 9.78392V24.3143H108.902V27.1113H98.6144V9.78392H101.648ZM114.403 9.78392V27.1113H111.369V9.78392H114.403ZM121.231 27.1113H118.244V9.78392H121.254L129.385 22.0624V9.78392H132.371V27.1113H129.385L121.231 14.8328V27.1113ZM146.968 27.1113H136.207V9.78392L146.968 9.78392V12.581H139.241V17.0373H146.163V19.7158H139.241V24.3143H146.968V27.1113Z" fill="black"/>
</g>
<defs>
<clipPath id="clip0_60_379">
<rect width="119.259" height="37.037" fill="white" transform="translate(48.1482)"/>
</clipPath>
</defs>
</svg>
