<svg width="160" height="38" viewBox="0 0 160 38" fill="none" xmlns="http://www.w3.org/2000/svg">
<path fill-rule="evenodd" clip-rule="evenodd" d="M18.6323 0.887695C18.2835 0.887695 18.0045 0.887695 17.6558 0.957445C17.307 0.957445 17.028 1.02719 16.6793 1.09694C16.4003 1.16669 16.0515 1.23644 15.7725 1.30619C15.4935 1.37594 15.1448 1.51544 14.8658 1.65494C14.5868 1.79444 14.3078 1.93394 14.0288 2.07344C13.7498 2.21294 13.4708 2.42219 13.1918 2.56169C12.9128 2.77093 12.7036 2.91043 12.4246 3.11968C12.2153 3.32893 11.9363 3.53818 11.7271 3.74743C11.5178 3.95668 11.3086 4.23568 11.0993 4.44492C10.8901 4.72392 10.6808 4.93317 10.5413 5.21217C10.4018 5.49117 10.1926 5.77017 10.0531 6.04917C9.91358 6.32816 9.77408 6.60716 9.63458 6.95591C9.49508 7.23491 9.42533 7.58366 9.35558 7.86265C9.28583 8.14165 9.21608 8.4904 9.14634 8.7694C9.07659 9.0484 9.07659 9.39715 9.00684 9.74589C9.00684 9.95514 9.00684 10.1644 9.00684 10.4434C9.00684 10.7921 9.00684 11.0711 9.07659 11.4199C9.07659 11.7686 9.14634 12.0476 9.21608 12.3964C9.28583 12.6754 9.35558 13.0241 9.42533 13.3031C9.49508 13.5821 9.63458 13.9309 9.77408 14.2099C9.91358 14.4889 9.98333 14.6981 10.1228 14.9074C10.3321 14.9074 10.5413 14.9074 10.7506 14.9771C10.9598 14.9771 11.0993 15.0469 11.3086 15.0469C11.5178 15.0469 11.6573 15.1166 11.8666 15.1166C12.2153 15.1864 12.5641 15.2561 12.9128 15.3956C13.1221 15.4654 13.2616 15.5351 13.4708 15.6049C13.6103 15.6746 13.8196 15.7444 13.9591 15.8141C14.3078 15.9536 14.6566 16.0931 14.9356 16.3024C15.0053 16.3721 15.0751 16.3721 15.1448 16.4419C15.2843 16.5116 15.4238 16.5814 15.4935 16.6511L15.5633 16.7209C15.633 16.7906 15.7028 16.7906 15.7725 16.8604C15.8423 16.9301 15.912 16.9999 15.9818 16.9999C16.0515 17.0696 16.1213 17.1394 16.191 17.1394C16.3305 17.2788 16.47 17.3486 16.6095 17.4881C16.8885 17.6973 17.1675 17.9763 17.4465 18.2553C17.7255 18.5343 17.9348 18.8133 18.144 19.0923C18.2138 19.1621 18.2835 19.2318 18.2835 19.3016C18.423 19.5108 18.6323 19.7201 18.7718 19.9991C18.7718 19.9991 18.7718 19.9991 18.7718 20.0688C18.8415 20.0688 18.9113 20.0688 18.981 20.0688C19.0508 20.0688 19.1205 20.0688 19.1903 20.0688C19.3298 20.0688 19.539 20.0688 19.6785 19.9991C19.8878 19.9293 20.1668 19.9293 20.376 19.8596C20.4458 19.8596 20.5155 19.7898 20.5853 19.7898C20.655 19.7898 20.7248 19.7201 20.7945 19.7201C20.934 19.6503 21.0735 19.6503 21.2828 19.5806C21.3525 19.5806 21.4223 19.5108 21.492 19.5108C21.5618 19.5108 21.6315 19.4411 21.7013 19.4411C21.9105 19.3713 22.1198 19.2318 22.329 19.1621C22.608 19.0226 22.887 18.8831 23.166 18.6738C23.445 18.5343 23.724 18.3251 23.9332 18.1158C24.2122 17.9066 24.4215 17.6973 24.7005 17.4881C24.9097 17.2788 25.1887 17.0696 25.398 16.7906C25.5375 16.6511 25.6072 16.5814 25.677 16.4419C25.7467 16.3721 25.7467 16.3024 25.8165 16.2326C25.8862 16.1629 25.8862 16.0931 25.956 16.0234C26.1652 15.7444 26.3047 15.4654 26.4442 15.1864C26.5837 14.9074 26.7232 14.6284 26.8627 14.3494C27.0022 14.0704 27.1417 13.7914 27.2115 13.4426C27.2812 13.1636 27.4207 12.8149 27.4905 12.5359C27.5602 12.2569 27.63 11.9081 27.63 11.5594C27.6997 11.2106 27.6997 10.9316 27.6997 10.5829C27.6997 10.5131 27.6997 10.4434 27.6997 10.3736C27.6997 10.0249 27.6997 9.74589 27.63 9.39715C27.63 9.0484 27.5602 8.7694 27.4905 8.42065C27.4207 8.14165 27.351 7.79291 27.2812 7.51391C27.2115 7.23491 27.072 6.88616 26.9325 6.60716C27.351 6.46766 27.2115 6.18866 27.072 5.90967C26.9325 5.63067 26.7232 5.35167 26.5837 5.07267C26.3745 4.79367 26.235 4.58442 26.0257 4.30543C25.8165 4.09618 25.6072 3.81718 25.398 3.60793C25.1887 3.39868 24.9097 3.18943 24.7005 2.98018C24.4215 2.77093 24.2122 2.56169 23.9332 2.42219C23.6543 2.21294 23.3753 2.07344 23.0963 1.93394C22.8173 1.79444 22.5383 1.65494 22.1895 1.51544C21.9105 1.37594 21.5618 1.30619 21.2828 1.23644C21.0038 1.16669 20.655 1.09694 20.376 1.02719C19.9575 0.957445 19.6785 0.957445 19.3298 0.887695C19.1205 0.887695 18.9113 0.887695 18.6323 0.887695Z" fill="black"/>
<path opacity="0.8" fill-rule="evenodd" clip-rule="evenodd" d="M9.77364 16.3721C9.42489 16.3721 9.14589 16.3721 8.79714 16.4418C8.4484 16.4418 8.1694 16.5116 7.82065 16.5813C7.4719 16.6511 7.1929 16.7208 6.9139 16.7906C6.63491 16.8603 6.28616 16.9998 6.00716 17.1393C5.72816 17.2788 5.44916 17.4183 5.17016 17.5578C5.10041 17.5578 5.03067 17.6276 4.96092 17.6276C4.68192 17.7671 4.40292 17.9763 4.12392 18.1158C3.84492 18.3251 3.63567 18.5343 3.35667 18.7436C3.14743 18.9528 2.86843 19.1621 2.65918 19.4411C2.44993 19.6503 2.24068 19.9293 2.03143 20.2083C1.89193 20.4175 1.68268 20.6965 1.54319 20.9755C1.40369 21.2545 1.19444 21.5335 1.05494 21.8125C0.915439 22.0915 0.77594 22.3705 0.70619 22.7193C0.566691 22.9983 0.496941 23.347 0.427192 23.626C0.357442 23.905 0.287693 24.2538 0.217943 24.5328C0.217943 24.8118 0.148193 25.1605 0.148193 25.5093C0.148193 25.858 0.148193 26.137 0.148193 26.4858C0.148193 26.8345 0.217943 27.1135 0.217943 27.4623C0.287693 27.7413 0.357442 28.09 0.427192 28.369C0.496941 28.648 0.636441 28.9967 0.70619 29.2757C0.845689 29.5547 0.915439 29.9035 1.05494 30.1825C1.12469 30.3917 1.26419 30.601 1.40369 30.8102C1.54319 31.0892 1.75243 31.3682 1.89193 31.6472C2.10118 31.9262 2.31043 32.1355 2.51968 32.4145C2.72893 32.6237 2.93818 32.9027 3.21718 33.112C3.42642 33.3212 3.70542 33.5305 3.98442 33.7397C4.26342 33.949 4.47267 34.0885 4.75167 34.2977C5.03067 34.4372 5.30966 34.6465 5.58866 34.786C5.86766 34.9255 6.14666 35.065 6.49541 35.1347C6.77441 35.2742 7.12315 35.344 7.40215 35.4137C7.68115 35.4835 8.0299 35.5532 8.3089 35.623C8.58789 35.6927 8.93664 35.6927 9.28539 35.6927C9.63414 35.6927 9.91314 35.6927 10.2619 35.6927C10.6106 35.6927 10.8896 35.623 11.2384 35.623C11.5871 35.5532 11.8661 35.4835 12.1451 35.4137C12.4241 35.344 12.7729 35.2045 13.0519 35.1347C13.3309 34.9952 13.6796 34.9255 13.9586 34.786C14.1679 34.7162 14.3771 34.5767 14.5864 34.4372C14.8654 34.2977 15.1444 34.0885 15.4234 33.949C15.7024 33.7397 15.9116 33.5305 16.1906 33.3212C16.3999 33.112 16.6788 32.9027 16.8881 32.6237C17.0973 32.4145 17.3066 32.1355 17.5158 31.8565C17.6553 31.6472 17.7948 31.438 17.9343 31.159C17.8646 30.9497 17.7251 30.7405 17.6553 30.5312C17.5856 30.3917 17.5158 30.1825 17.4461 30.043C17.3763 29.9035 17.3066 29.6942 17.2368 29.5547C17.0973 29.206 17.0276 28.8572 16.9578 28.5085C16.8881 28.2993 16.8881 28.1598 16.8183 27.9505C16.8183 27.7413 16.7486 27.6018 16.7486 27.3925C16.6788 27.0438 16.6788 26.6253 16.6788 26.2765C16.6788 26.0673 16.6788 25.9278 16.6788 25.7185C16.6788 25.6488 16.6788 25.5093 16.6788 25.4395C16.6788 25.3698 16.6788 25.2303 16.6788 25.1605C16.6788 24.8118 16.7486 24.3933 16.8183 24.0445C16.8881 23.6958 16.9578 23.347 17.0973 22.9983C17.1671 22.6495 17.3066 22.3008 17.4461 21.952C17.5856 21.6033 17.7251 21.2545 17.9343 20.9755C17.9343 20.9755 17.9343 20.9755 17.9343 20.9058C17.7948 20.6268 17.5856 20.3478 17.3763 20.1385C17.3066 20.0688 17.3066 19.999 17.2368 19.9293C17.0973 19.7201 16.9578 19.5806 16.7486 19.3713C16.5393 19.1621 16.2604 18.9528 16.0511 18.7436C15.7721 18.5343 15.5629 18.3251 15.2839 18.1856C15.0049 17.9763 14.7259 17.8368 14.4469 17.6973C14.1679 17.5578 13.8889 17.4183 13.6099 17.2788C13.3309 17.1393 12.9821 17.0696 12.7031 16.9301C12.4241 16.8603 12.0754 16.7208 11.7964 16.7208C11.4476 16.6511 11.1686 16.5813 10.8199 16.5813C10.4014 16.3721 10.0526 16.3721 9.77364 16.3721Z" fill="black"/>
<path opacity="0.5" fill-rule="evenodd" clip-rule="evenodd" d="M27.9785 16.3721C27.839 16.5813 27.7692 16.7208 27.6297 16.9301C27.56 16.9998 27.4902 17.0696 27.4902 17.1393C27.4205 17.2091 27.3507 17.2788 27.3507 17.3486C27.2112 17.4881 27.1415 17.6276 27.002 17.7671C26.8625 17.9066 26.723 18.0461 26.6533 18.1856C26.5835 18.2553 26.5138 18.3251 26.444 18.3948C26.3743 18.4646 26.3045 18.5343 26.2348 18.6041C25.9558 18.8831 25.6768 19.0923 25.3978 19.3016C25.1188 19.5108 24.77 19.7201 24.491 19.9293C24.212 20.1385 23.8633 20.278 23.5145 20.4873C23.1658 20.6268 22.817 20.7663 22.4683 20.9058C22.3985 20.9058 22.3288 20.9755 22.1893 20.9755C21.9103 21.0453 21.6313 21.115 21.422 21.1848C21.0733 21.2545 20.7245 21.3243 20.306 21.394C20.0968 21.394 19.9573 21.4638 19.748 21.4638C19.6783 21.4638 19.5388 21.4638 19.469 21.4638C19.3993 21.4638 19.2598 21.4638 19.19 21.4638H19.1203C19.0505 21.6033 18.9808 21.7428 18.911 21.8823C18.911 21.952 18.8413 22.0218 18.8413 22.0915C18.8413 22.1613 18.7715 22.231 18.7715 22.3008C18.632 22.5798 18.5623 22.9285 18.4925 23.2075C18.4228 23.4865 18.353 23.8353 18.2833 24.1143C18.2135 24.3933 18.2135 24.742 18.1438 25.0908C18.1438 25.2303 18.1438 25.4395 18.1438 25.579C18.1438 25.6488 18.1438 25.7185 18.1438 25.7883C18.1438 25.858 18.1438 25.9278 18.1438 25.9975C18.1438 26.3463 18.1438 26.6253 18.2135 26.974C18.2833 27.3228 18.2833 27.6018 18.353 27.9505C18.4228 28.09 18.4228 28.2295 18.4925 28.4388C18.4925 28.5085 18.5623 28.5782 18.5623 28.648C18.5623 28.7177 18.632 28.7875 18.632 28.8572C18.632 28.927 18.7018 28.9967 18.7018 29.0665C18.7715 29.2757 18.8413 29.485 18.9808 29.764C19.1203 30.043 19.2598 30.322 19.3993 30.601C19.5388 30.88 19.748 31.159 19.8875 31.438C20.0968 31.717 20.306 31.9262 20.5153 32.2052C20.7245 32.4145 20.9338 32.6935 21.2128 32.9027C21.422 33.112 21.701 33.3212 21.9103 33.5305C22.1893 33.7397 22.3985 33.8792 22.6775 34.0885C22.7473 34.1582 22.817 34.1582 22.8868 34.228C23.1658 34.3675 23.4448 34.507 23.7238 34.6465C24.0028 34.786 24.2818 34.9255 24.6305 34.9952C24.9095 35.065 25.2583 35.2045 25.5373 35.2742C25.8163 35.344 26.165 35.4137 26.5138 35.4137C26.8625 35.4137 27.1415 35.4835 27.4902 35.4835C27.839 35.4835 28.118 35.4835 28.4667 35.4835C28.8155 35.4835 29.0945 35.4137 29.4432 35.344C29.7222 35.2742 30.071 35.2045 30.35 35.1347C30.629 35.065 30.9777 34.9255 31.2567 34.8557C31.5357 34.7162 31.8147 34.5767 32.1635 34.4372C32.4425 34.2977 32.7215 34.1582 33.0005 33.949C33.2795 33.7397 33.5585 33.6002 33.7677 33.391C34.0467 33.1817 34.256 32.9725 34.4652 32.7632C34.6745 32.554 34.8837 32.275 35.093 32.0657C35.3022 31.7867 35.5115 31.5775 35.6509 31.2985C35.7904 31.0892 35.9299 30.9497 35.9997 30.7405C36.1392 30.4615 36.2787 30.1825 36.4182 29.9035C36.5577 29.6245 36.6972 29.3455 36.7669 28.9967C36.8367 28.7177 36.9762 28.369 37.0459 28.09C37.1157 27.811 37.1854 27.4623 37.1854 27.1135C37.2552 26.7648 37.2552 26.4858 37.2552 26.137C37.2552 25.7883 37.2552 25.5093 37.2552 25.1605C37.2552 24.8118 37.1854 24.5328 37.1157 24.184C37.0459 23.905 36.9762 23.5563 36.9064 23.2773C36.8367 22.9983 36.6972 22.6495 36.6274 22.3705C36.4879 22.0915 36.3484 21.8125 36.2089 21.4638C36.0694 21.1848 35.9299 20.9058 35.7207 20.6268C35.5114 20.3478 35.372 20.0688 35.1627 19.8596C34.9535 19.5806 34.7442 19.3713 34.535 19.1621C34.3257 18.9528 34.0467 18.7436 33.8375 18.5343C33.5585 18.3251 33.3492 18.1158 33.0702 17.9763C32.861 17.8368 32.7215 17.6973 32.5122 17.6276C32.2332 17.4881 31.9542 17.3486 31.6752 17.2091C31.3962 17.0696 31.1172 16.9301 30.7685 16.8603C30.4895 16.7906 30.1407 16.6511 29.8617 16.5813C29.5827 16.5116 29.234 16.4418 28.8852 16.4418C28.4667 16.3721 28.2575 16.3721 27.9785 16.3721Z" fill="black"/>
<g clip-path="url(#clip0_60_358)">
<path d="M61.2164 26.8521H54.3697L48.2164 9.83649H55.6697L60.1186 22.9809L65.1452 9.83649H67.7452L61.2164 26.8521ZM76.6972 27.1409C71.9594 27.1409 67.6839 25.1476 67.6839 20.0921C67.6839 15.0076 71.9594 12.8698 76.6972 12.8698C81.4061 12.8698 85.6816 14.2276 85.6816 18.9076C85.6816 19.3409 85.6527 19.7454 85.595 20.1787H74.7327C74.7039 20.6409 74.7039 21.0743 74.7039 21.4498C74.7039 24.3676 75.2816 25.0609 76.6972 25.0609C78.0261 25.0609 78.4305 24.2521 78.4305 22.8076C78.4305 22.6054 78.4016 22.4032 78.4016 22.1721H85.4216C85.4216 22.2876 85.4505 22.4032 85.4505 22.5187C85.4505 25.7254 81.4927 27.1409 76.6972 27.1409ZM74.7616 18.4165H78.4883C78.5172 18.1565 78.5172 17.8965 78.5172 17.6654C78.5172 15.8165 77.8239 15.0076 76.6105 15.0076C75.455 15.0076 74.7327 15.8165 74.7327 17.6943C74.7327 17.9254 74.7327 18.1565 74.7616 18.4165ZM96.2446 27.1409C90.409 27.1409 87.3757 24.7143 87.3757 20.0054C87.3757 15.3254 90.409 12.8698 96.2446 12.8698C102.051 12.8698 105.113 14.4298 105.113 17.4054C105.113 17.6076 105.085 17.8098 105.056 18.0409H98.0935C98.1224 17.6943 98.1513 17.4054 98.1513 17.1165C98.1513 15.7009 97.3713 14.9787 96.389 14.9787C95.1179 14.9787 94.309 16.0187 94.309 20.0054C94.309 24.0209 95.1179 25.0609 96.389 25.0609C97.3713 25.0609 98.1513 24.8587 98.1513 22.8365C98.1513 22.4321 98.1224 21.9409 98.0935 21.3921H105.056C105.085 21.7098 105.113 22.0276 105.113 22.2876C105.113 25.4943 102.051 27.1409 96.2446 27.1409ZM113.891 27.1409C110.482 27.1409 108.402 25.9854 108.402 23.2121V15.3543H106.842V13.1587H108.402V10.4143L114.902 9.77872V13.1587H118.571V15.3543H114.902V22.9809C114.902 23.9054 115.393 24.3387 116.202 24.3387C116.924 24.3387 117.386 23.9632 117.82 23.2698L119.149 24.3098C118.166 26.0432 116.664 27.1409 113.891 27.1409ZM127.926 26.8521H121.426V13.1587H126.019C126.654 13.4187 127.434 14.2854 127.694 15.8165C128.619 13.8521 130.121 12.8698 132.432 12.8698C135.668 12.8698 137.863 15.0076 137.863 18.0121C137.863 18.9365 137.661 19.9765 137.199 20.8721H131.132C131.277 20.1787 131.306 19.5143 131.306 19.0232C131.306 17.3476 130.786 16.5387 129.659 16.5387C128.792 16.5387 127.926 17.2032 127.926 19.1098V26.8521ZM144.91 27.1409C141.53 27.1409 139.71 25.6387 139.71 23.6165C139.71 21.5076 140.952 20.6121 146.181 19.2543C149.128 18.4743 149.677 17.8387 149.677 16.5098C149.677 15.5276 149.128 15.0076 148.377 15.0076C147.597 15.0076 147.077 15.5565 147.077 16.7409C147.077 16.9721 147.106 17.2609 147.163 17.5209H140.172C140.143 17.3187 140.114 17.1165 140.114 16.9432C140.114 14.7476 142.426 12.8698 148.29 12.8698C153.634 12.8698 156.177 14.8632 156.177 18.8498V23.2409C156.177 23.8476 156.408 24.1365 156.87 24.1365C157.274 24.1365 157.563 23.9343 157.794 23.5009L159.094 24.4254C158.286 26.0432 156.754 27.1409 154.328 27.1409C152.103 27.1409 150.832 26.3321 150.168 25.1187C149.186 26.3898 147.654 27.1409 144.91 27.1409ZM148.03 24.5409C148.897 24.5409 149.677 23.8476 149.677 22.2876V19.8032C149.243 20.2654 148.897 20.4676 148.174 20.8432C147.279 21.3054 146.701 21.8254 146.701 22.9809C146.701 23.9343 147.163 24.5409 148.03 24.5409Z" fill="black"/>
</g>
<defs>
<clipPath id="clip0_60_358">
<rect width="111.852" height="37.037" fill="white" transform="translate(48.1482)"/>
</clipPath>
</defs>
</svg>
