<svg width="136" height="38" viewBox="0 0 136 38" fill="none" xmlns="http://www.w3.org/2000/svg">
<path opacity="0.5" fill-rule="evenodd" clip-rule="evenodd" d="M14.909 0C11.4564 0 8.31763 1.25549 5.80664 3.13873L22.9127 23.6974L36.8801 13.1827C36.2523 5.80665 29.9749 0 22.285 0" fill="black"/>
<path fill-rule="evenodd" clip-rule="evenodd" d="M22.285 37.0371C30.4457 37.0371 37.037 30.4457 37.037 22.285V21.5003L24.3252 30.9165C22.9127 32.0151 20.8726 31.7012 19.774 30.4457L1.56937 8.47461C0.627746 10.3578 0 12.555 0 14.7521V22.1281C0 30.2888 6.59134 36.8801 14.752 36.8801" fill="black"/>
<g clip-path="url(#clip0_60_381)">
<path d="M55.1401 11.092L55.4616 11.3676C55.5993 12.929 55.6453 14.5594 55.6453 16.1209C55.6453 19.2898 55.2319 22.5276 54.9334 24.6631L55.5075 24.6861C57.7579 22.4357 59.8475 18.8305 59.8475 16.1898C59.8475 14.0772 58.9749 12.6764 58.1253 11.7809L58.1712 11.4824C59.5719 11.2068 61.1105 11.115 62.2356 11.092C62.7179 11.4594 63.0164 11.9646 63.0164 12.9061C63.0164 13.549 62.8556 14.3298 62.5342 15.3631C61.5927 18.4172 55.9897 25.7424 53.2801 27.4416C52.109 27.3498 50.9838 26.9824 50.1342 26.5001C50.3867 23.5838 50.5705 20.5527 50.5705 17.7283C50.5705 16.0979 50.4786 14.6053 50.3638 13.3653L48.2971 11.735L48.343 11.4364C49.9505 11.2757 53.5327 11.092 55.1401 11.092ZM67.1885 13.0209C66.2929 13.0209 65.627 12.4468 65.627 11.6431C65.627 10.4261 66.8211 9.69126 67.8085 9.69126C68.704 9.69126 69.347 10.2653 69.347 11.0461C69.347 12.2861 68.1759 13.0209 67.1885 13.0209ZM70.7707 24.4794C69.6685 25.7194 67.4181 27.4416 65.4892 27.4416C63.8588 27.4416 62.5959 26.592 62.5959 24.8698C62.5959 24.0431 62.9174 22.9409 63.3307 21.632C63.744 20.3461 64.1803 18.8994 64.4788 17.2231L63.6062 15.9142L63.6751 15.5698C65.7418 15.3401 67.487 15.2483 69.1862 15.2253L69.5077 15.455C69.5077 16.3735 69.2322 18.3253 68.6811 20.2772C68.084 22.3898 67.0966 24.709 67.0966 25.8801C67.0966 26.0868 67.1196 26.3394 67.1885 26.4313C68.2448 25.972 69.8522 24.8238 70.7018 23.8824L70.7707 23.9513V24.4794ZM80.3154 23.7905C80.3154 26.4083 77.6287 27.4416 75.4013 27.4416C72.9672 27.4416 70.4413 26.6838 69.5917 25.5127C70.028 24.4564 70.7628 23.515 71.5206 22.7342H71.7502C72.2783 24.089 73.5872 26.8905 75.0798 26.8905C75.7687 26.8905 76.3887 26.4772 76.3887 25.6276C76.3887 24.4335 75.5391 24.0431 74.4369 23.3542C72.6228 22.229 71.4517 21.4253 71.4517 19.772C71.4517 16.4424 75.4472 15.2253 78.088 15.2253C80.545 15.2253 82.1754 16.1209 82.1754 17.5676C82.1754 18.4631 81.6472 19.0142 80.8895 19.4046C79.7413 19.5424 78.6161 19.5653 77.468 19.5653L77.3991 19.3357C77.9502 18.7157 78.5013 18.1187 78.5013 17.5216C78.5013 16.8557 77.8124 15.9601 76.8939 15.9601C76.182 15.9601 75.4702 16.4424 75.4702 17.6364C75.4702 18.8305 76.228 19.5194 77.3302 20.2083C79.1443 21.3335 80.3154 22.1372 80.3154 23.7905ZM98.9068 24.4794C97.8045 25.7194 95.0949 27.4416 93.166 27.4416C91.5357 27.4416 90.6401 26.592 90.6401 25.0994C90.6401 23.8594 91.306 21.7927 92.2705 19.8868L91.9031 19.772C91.8342 19.9098 91.4668 20.7364 91.3749 20.9201C89.9053 24.112 88.3668 27.4416 85.1749 27.4416C83.3608 27.4416 82.4194 26.3624 82.4194 24.8698C82.4194 24.0661 82.9934 22.5735 83.5445 21.035C84.1186 19.4964 84.6927 17.935 84.6927 16.9705C84.6927 16.6261 84.5549 16.5342 84.3483 16.5342C83.9808 16.5342 83.4297 16.7409 82.9705 17.0164L82.9016 16.9705L82.9934 16.3735C84.0268 15.8224 85.4505 15.2253 86.7134 15.2253C88.4586 15.2253 89.2394 16.1209 89.2394 17.6135C89.2394 18.4401 88.7571 20.0016 88.2749 21.4713C87.7927 22.9638 87.3105 24.3646 87.3105 24.8927C87.3105 25.3061 87.5401 25.4438 87.7927 25.4438C88.2979 25.4438 89.0327 24.4794 89.8823 22.8261C90.8238 21.012 91.949 18.3713 93.166 15.2253C94.7964 15.3401 96.6564 16.1438 97.3223 16.7868C97.3223 18.3942 94.7964 23.7676 94.7964 26.0868C94.7964 26.2246 94.8194 26.3624 94.8653 26.4313C96.7712 25.6505 98.0342 24.6861 98.8379 23.8364L98.9068 23.9053V24.4794ZM114.149 24.2498C113.047 25.4898 110.108 27.4416 108.179 27.4416C106.548 27.4416 105.653 26.592 105.653 25.0994C105.653 24.2498 105.974 23.469 107.145 21.4024L106.365 21.4713C105.446 23.6757 103.839 27.4416 101.29 27.4416C99.4529 27.4416 98.144 25.6046 98.144 23.0327C98.144 18.4172 100.67 15.2253 104.321 15.2253C105.538 15.2253 106.48 15.7305 107.077 16.7638L106.847 17.3379C106.342 16.672 105.768 15.9601 105.033 15.9601C104 15.9601 103.104 19.129 103.104 22.7113C103.104 24.1579 103.334 24.9616 103.77 24.9616C104.137 24.9616 104.551 24.2038 105.4 22.1831C106.043 20.6905 106.916 18.532 107.972 15.4779C109.648 15.7076 111.485 16.6261 112.266 17.4987C112.266 18.3024 111.646 20.1164 111.026 21.8846C110.429 23.6527 109.809 25.3979 109.809 26.0868C109.809 26.2246 109.832 26.3624 109.878 26.4313C111.784 25.6505 113.277 24.4564 114.08 23.6068L114.149 23.6757V24.2498ZM115.988 27.4416C114.197 27.4416 113.095 26.4542 113.095 24.8698C113.095 23.9742 113.301 23.0327 113.784 21.5631L115.781 15.4779C116.31 13.8705 116.539 12.929 116.654 12.0335L115.827 10.5409L115.896 10.1964C117.71 9.98977 119.501 9.87496 121.407 9.852L121.706 10.0587C121.706 10.9083 121.27 13.6868 120.053 17.5216C119.387 19.6113 117.619 24.2038 117.619 25.8801C117.619 26.0868 117.664 26.3394 117.687 26.4313C118.904 25.9261 120.833 24.6631 121.614 23.7905L121.683 23.8594V24.3876C120.236 26.0179 117.55 27.4416 115.988 27.4416ZM132.26 26.7987C130.79 30.3809 127.369 32.815 123.695 32.815C121.559 32.815 119.217 32.1261 118.964 30.0594C119.653 28.7046 121.307 27.189 122.661 26.592C121.559 26.2476 121.008 25.329 121.008 24.1809C121.008 23.3542 121.605 22.0224 122.225 20.6676C122.822 19.2898 123.419 17.889 123.419 16.9476C123.419 16.6031 123.281 16.5113 123.075 16.5113C122.845 16.5113 122.34 16.649 122.133 16.7868L122.064 16.7409L122.156 16.2127C122.868 15.7305 124.177 15.2253 125.44 15.2253C127.185 15.2253 127.966 16.0979 127.966 17.5905C127.966 18.4172 127.438 19.8179 126.933 21.1498C126.404 22.4587 125.899 23.6757 125.899 24.2038C125.899 24.6172 126.129 24.755 126.381 24.755C126.749 24.755 127.3 24.1579 127.989 23.0098C128.907 21.4253 130.055 18.8535 131.204 15.455C132.604 15.6846 134.694 16.4653 135.498 17.4987C135.222 18.1876 133.224 24.4794 132.26 26.7987ZM122.937 28.0616C122.937 29.9676 123.993 31.9653 125.761 31.9653C126.381 31.9653 127.07 30.1283 127.782 27.8779C128.471 25.6505 129.183 23.0327 129.872 21.3794L129.413 21.4713C129.091 22.1142 128.747 22.7342 128.379 23.3313C127.208 25.2142 125.738 26.7527 123.764 26.7527C123.534 26.7527 123.327 26.7298 123.121 26.7068C123.006 27.1431 122.937 27.6024 122.937 28.0616Z" fill="black"/>
</g>
<defs>
<clipPath id="clip0_60_381">
<rect width="87.4074" height="37.037" fill="white" transform="translate(48.1482)"/>
</clipPath>
</defs>
</svg>
