<svg width="135" height="38" viewBox="0 0 135 38" fill="none" xmlns="http://www.w3.org/2000/svg">
<path d="M30.566 18.5415C30.566 26.1141 26.8485 32.7688 21.1116 36.8994C30.107 35.6143 37.0371 27.8581 37.0371 18.5415C37.0371 9.17896 30.107 1.46865 21.1116 0.183593C26.8026 4.26822 30.566 10.9689 30.566 18.5415Z" fill="black"/>
<path d="M12.9424 36.165C14.2274 36.5781 15.5125 36.8535 16.8893 36.9453C21.8919 32.3558 25.0127 25.7928 25.0127 18.4956C25.0127 11.1983 21.846 4.63537 16.8893 0.0917965C15.5125 0.229481 14.1815 0.504849 12.9424 0.872006C17.1647 5.50737 19.7348 11.7032 19.7348 18.5415C19.7348 25.3798 17.1647 31.5297 12.9424 36.165Z" fill="black"/>
<path d="M-1.79287e-05 18.5412C-1.82076e-05 24.9206 3.21261 30.5657 8.16924 33.8701C12.2539 30.0149 14.824 24.5534 14.824 18.5412C14.824 12.4831 12.2539 7.02166 8.16924 3.2124C3.21261 6.51682 -1.76479e-05 12.116 -1.79287e-05 18.5412Z" fill="black"/>
<g clip-path="url(#clip0_60_356)">
<path d="M57.3563 12.1384C54.0267 12.1384 52.1208 14.5495 52.1208 18.1777C52.1208 21.9206 54.2793 23.9643 57.3793 23.9643C60.2956 23.9643 62.0637 22.3569 62.0637 19.6703V19.6014H56.9889V17.0066H64.7963V26.4443H62.3163L62.1326 24.5154C61.2141 25.8014 59.3082 26.6969 57.0349 26.6969C52.3275 26.6969 49.0437 23.2754 49.0437 18.1088C49.0437 13.011 52.3734 9.38285 57.4252 9.38285C61.26 9.38285 64.2223 11.6103 64.7045 15.0317H61.6045C61.0763 13.0569 59.3771 12.1384 57.3563 12.1384ZM74.6756 15.0547V17.6495H73.6423C71.6215 17.6495 70.3586 18.7288 70.3586 20.9332V26.4443H67.5571V15.1236H70.1978L70.3586 16.7769C70.8408 15.6517 71.9201 14.894 73.4356 14.894C73.826 14.894 74.2164 14.9399 74.6756 15.0547ZM79.4989 26.7429C77.0878 26.7429 75.6182 25.3421 75.6182 23.2066C75.6182 21.1169 77.1337 19.808 79.8204 19.6014L83.2189 19.3488V19.0962C83.2189 17.5577 82.3004 16.9377 80.8767 16.9377C79.2234 16.9377 78.3048 17.6266 78.3048 18.8206H75.9167C75.9167 16.3636 77.9374 14.7562 81.0145 14.7562C84.0685 14.7562 85.9515 16.4095 85.9515 19.5554V26.4443H83.4945L83.2878 24.768C82.8056 25.9392 81.2671 26.7429 79.4989 26.7429ZM80.4174 24.6303C82.1397 24.6303 83.2419 23.5969 83.2419 21.8517V21.2547L80.8767 21.4384C79.1315 21.5992 78.4656 22.1732 78.4656 23.0917C78.4656 24.1251 79.1545 24.6303 80.4174 24.6303ZM88.7037 31.7029V15.1006H91.2985L91.4822 16.8229C92.1711 15.514 93.6637 14.7562 95.3859 14.7562C98.5777 14.7562 100.69 17.0754 100.69 20.6347C100.69 24.171 98.7614 26.7429 95.3859 26.7429C93.6866 26.7429 92.217 26.0769 91.5051 24.9288V31.7029H88.7037ZM91.5281 20.7725C91.5281 22.8162 92.7911 24.2169 94.72 24.2169C96.6948 24.2169 97.8659 22.7932 97.8659 20.7725C97.8659 18.7517 96.6948 17.3051 94.72 17.3051C92.7911 17.3051 91.5281 18.7288 91.5281 20.7725ZM105.722 26.4443H102.921V9.35989H105.745V16.5703C106.457 15.468 107.789 14.7562 109.419 14.7562C112.221 14.7562 113.691 16.5243 113.691 19.4636V26.4443H110.889V20.1295C110.889 18.2236 109.948 17.3051 108.524 17.3051C106.756 17.3051 105.722 18.5451 105.722 20.2443V26.4443ZM115.777 20.7495C115.777 17.2132 118.326 14.7792 121.839 14.7792C125.353 14.7792 127.902 17.2132 127.902 20.7495C127.902 24.2858 125.353 26.7199 121.839 26.7199C118.326 26.7199 115.777 24.2858 115.777 20.7495ZM118.579 20.7495C118.579 22.8162 119.911 24.2169 121.839 24.2169C123.768 24.2169 125.1 22.8162 125.1 20.7495C125.1 18.6829 123.768 17.2821 121.839 17.2821C119.911 17.2821 118.579 18.6829 118.579 20.7495Z" fill="black"/>
</g>
<defs>
<clipPath id="clip0_60_356">
<rect width="86.6667" height="37.037" fill="white" transform="translate(48.1482)"/>
</clipPath>
</defs>
</svg>
