<svg width="122" height="38" viewBox="0 0 122 38" fill="none" xmlns="http://www.w3.org/2000/svg">
<path fill-rule="evenodd" clip-rule="evenodd" d="M11.9969 1.18555C7.04471 3.06879 3.06898 7.04451 1.25549 11.9967C0.488247 14.0892 0.0697496 16.3212 0 18.4834C0 20.7154 0.418498 22.9474 1.18574 25.0399L18.4836 7.74201L11.9969 1.18555Z" fill="black"/>
<path opacity="0.5" fill-rule="evenodd" clip-rule="evenodd" d="M18.4835 0C16.2515 0 14.0195 0.418498 11.927 1.18574L18.4835 7.74221L29.2947 18.4836L35.7814 11.9272C33.8981 7.04471 29.9921 3.06898 25.0399 1.18574C22.9474 0.418498 20.7155 0 18.4835 0Z" fill="black"/>
<path opacity="0.5" fill-rule="evenodd" clip-rule="evenodd" d="M7.74201 18.4839L1.18555 25.0403C3.06879 29.9926 6.97476 33.8985 11.9967 35.7818C14.0892 36.549 16.3212 36.9675 18.5532 36.9675C20.7852 36.9675 23.0172 36.549 25.1097 35.7818L18.4834 29.2951L7.74201 18.4839Z" fill="black"/>
<path fill-rule="evenodd" clip-rule="evenodd" d="M35.7818 11.9971L29.2951 18.4838L18.4839 29.295L25.0403 35.8514C29.9926 33.8984 33.8985 29.9925 35.7818 25.0402C36.549 22.9478 36.9675 20.7158 36.9675 18.4838C37.0373 16.2518 36.6188 14.0896 35.7818 11.9971Z" fill="black"/>
<g clip-path="url(#clip0_60_382)">
<path d="M51.443 23.3713H54.2445C54.964 23.3713 55.63 23.2488 56.2423 23.0039C56.87 22.7436 57.4134 22.3839 57.8727 21.9246C58.3472 21.4653 58.707 20.9295 58.9519 20.3172C59.2122 19.7049 59.3423 19.0389 59.3423 18.3194C59.3423 17.5999 59.2122 16.934 58.9519 16.3216C58.6917 15.694 58.3319 15.1505 57.8727 14.6913C57.4134 14.232 56.87 13.8723 56.2423 13.612C55.63 13.3518 54.964 13.2216 54.2445 13.2216H51.443V23.3713ZM48.1134 26.3335V10.2594H54.2905C55.4998 10.2594 56.6174 10.4661 57.643 10.8794C58.6687 11.2774 59.5643 11.8439 60.3297 12.5787C61.0951 13.3135 61.6922 14.1708 62.1208 15.1505C62.5648 16.1303 62.7867 17.1866 62.7867 18.3194C62.7867 19.4676 62.5724 20.5239 62.1438 21.4883C61.7151 22.4528 61.1105 23.3024 60.3297 24.0372C59.5643 24.7567 58.6687 25.3231 57.643 25.7365C56.6174 26.1345 55.4998 26.3335 54.2905 26.3335H48.1134ZM70.7154 26.5631C69.5214 26.5631 68.4344 26.2876 67.4547 25.7365C66.4902 25.1853 65.7248 24.4429 65.1584 23.5091C64.592 22.5752 64.3088 21.5266 64.3088 20.3631C64.3088 19.1997 64.5767 18.151 65.1125 17.2172C65.6636 16.2834 66.406 15.5409 67.3399 14.9898C68.2737 14.4387 69.3147 14.1631 70.4628 14.1631C71.611 14.1631 72.629 14.4463 73.5169 15.0128C74.4048 15.5792 75.1014 16.3446 75.6065 17.3091C76.127 18.2735 76.3873 19.3681 76.3873 20.5928V21.4194H67.5236C67.6614 21.894 67.8833 22.3226 68.1895 22.7053C68.511 23.0881 68.9014 23.3866 69.3606 23.6009C69.8352 23.8152 70.3404 23.9224 70.8762 23.9224C71.412 23.9224 71.9018 23.8382 72.3458 23.6698C72.8051 23.5014 73.1954 23.2641 73.5169 22.9579L75.5836 24.8409C74.8488 25.4379 74.091 25.8742 73.3102 26.1498C72.5448 26.4253 71.6799 26.5631 70.7154 26.5631ZM67.4777 19.1691H73.2873C73.1801 18.6945 72.9811 18.2811 72.6902 17.9291C72.4147 17.5616 72.0779 17.2784 71.6799 17.0794C71.2972 16.8651 70.8685 16.7579 70.3939 16.7579C69.9041 16.7579 69.4601 16.8574 69.0621 17.0565C68.6641 17.2555 68.3273 17.5387 68.0517 17.9061C67.7915 18.2582 67.6001 18.6792 67.4777 19.1691ZM76.1318 26.3335L80.7244 20.2483L76.2466 14.3698H79.8977L82.5385 17.9291L85.1563 14.3698H88.6926L84.2837 20.2024L88.9681 26.3335H85.294L82.4696 22.5216L79.6452 26.3335H76.1318ZM90.155 26.3335V14.3698H93.3009V26.3335H90.155ZM91.7165 12.9461C91.2266 12.9461 90.8056 12.77 90.4535 12.4179C90.1014 12.0658 89.9254 11.6449 89.9254 11.155C89.9254 10.6498 90.1014 10.2288 90.4535 9.89201C90.8056 9.53992 91.2266 9.36387 91.7165 9.36387C92.2217 9.36387 92.6427 9.53992 92.9795 9.89201C93.3316 10.2288 93.5076 10.6498 93.5076 11.155C93.5076 11.6449 93.3316 12.0658 92.9795 12.4179C92.6427 12.77 92.2217 12.9461 91.7165 12.9461ZM101.778 31.2476C100.859 31.2476 99.9711 31.1481 99.1138 30.9491C98.2565 30.7653 97.4834 30.4974 96.7945 30.1453L97.8968 27.7113C98.555 28.0328 99.198 28.27 99.8257 28.4231C100.453 28.5762 101.081 28.6528 101.709 28.6528C102.642 28.6528 103.347 28.4537 103.821 28.0557C104.311 27.6577 104.556 27.0607 104.556 26.2646V25.3231C103.576 26.0426 102.482 26.4024 101.272 26.4024C100.139 26.4024 99.1138 26.1345 98.1953 25.5987C97.2921 25.0476 96.5649 24.3051 96.0138 23.3713C95.478 22.4374 95.2101 21.4041 95.2101 20.2713C95.2101 19.1384 95.478 18.1128 96.0138 17.1942C96.5649 16.2757 97.3074 15.5486 98.2412 15.0128C99.175 14.4616 100.216 14.1861 101.364 14.1861C101.946 14.1861 102.512 14.2703 103.063 14.4387C103.615 14.6071 104.127 14.8444 104.602 15.1505V14.3698H107.702V26.3105C107.702 27.8873 107.189 29.1044 106.163 29.9616C105.153 30.8189 103.691 31.2476 101.778 31.2476ZM101.755 23.7387C102.336 23.7387 102.864 23.6468 103.339 23.4631C103.814 23.2641 104.219 22.9886 104.556 22.6365V17.952C104.219 17.6152 103.806 17.355 103.316 17.1713C102.841 16.9723 102.329 16.8728 101.778 16.8728C101.119 16.8728 100.53 17.0258 100.009 17.332C99.4889 17.6229 99.0755 18.0286 98.7694 18.5491C98.4632 19.0542 98.3101 19.6283 98.3101 20.2713C98.3101 20.9295 98.4555 21.5189 98.7464 22.0394C99.0526 22.5599 99.4659 22.9732 99.9864 23.2794C100.522 23.5856 101.112 23.7387 101.755 23.7387ZM110.158 26.3335V14.3698L113.304 14.3698V15.3572C114.207 14.5458 115.325 14.1402 116.656 14.1402C117.59 14.1402 118.409 14.3468 119.113 14.7602C119.833 15.1582 120.392 15.717 120.79 16.4365C121.188 17.1407 121.387 17.9673 121.387 18.9165V26.3335H118.241V19.3757C118.241 18.595 118.019 17.9826 117.575 17.5387C117.131 17.0794 116.526 16.8498 115.761 16.8498C115.225 16.8498 114.751 16.957 114.337 17.1713C113.924 17.3703 113.579 17.6612 113.304 18.0439V26.3335H110.158Z" fill="black"/>
<path d="M99.2854 13.6648C99.2854 13.5989 99.2752 13.5399 99.255 13.4875C99.2364 13.4335 99.201 13.3846 99.1487 13.3407C99.0963 13.2951 99.0229 13.2504 98.9284 13.2065C98.8339 13.1626 98.7115 13.117 98.5613 13.0698C98.3942 13.0158 98.2355 12.955 98.0853 12.8875C97.9368 12.82 97.8051 12.7415 97.6903 12.652C97.5772 12.5609 97.4878 12.4554 97.4219 12.3356C97.3578 12.2157 97.3257 12.0765 97.3257 11.9178C97.3257 11.7642 97.3595 11.625 97.427 11.5001C97.4945 11.3735 97.589 11.2654 97.7106 11.176C97.8321 11.0848 97.9756 11.0148 98.141 10.9658C98.3081 10.9169 98.4912 10.8924 98.6904 10.8924C98.9621 10.8924 99.1993 10.9414 99.4018 11.0393C99.6044 11.1372 99.7614 11.2713 99.8728 11.4418C99.9858 11.6123 100.042 11.8072 100.042 12.0267H99.2879C99.2879 11.9187 99.2651 11.8241 99.2195 11.7431C99.1757 11.6604 99.1081 11.5954 99.017 11.5482C98.9275 11.5009 98.8145 11.4773 98.6777 11.4773C98.5461 11.4773 98.4364 11.4975 98.3486 11.538C98.2608 11.5769 98.195 11.63 98.1511 11.6975C98.1072 11.7634 98.0853 11.8376 98.0853 11.9203C98.0853 11.9828 98.1005 12.0393 98.1309 12.09C98.1629 12.1406 98.2102 12.1879 98.2726 12.2318C98.3351 12.2756 98.4119 12.317 98.503 12.3558C98.5942 12.3946 98.6997 12.4326 98.8195 12.4697C99.0204 12.5305 99.1968 12.5989 99.3487 12.6748C99.5023 12.7508 99.6305 12.836 99.7335 12.9305C99.8365 13.0251 99.9141 13.1322 99.9664 13.2521C100.019 13.3719 100.045 13.5078 100.045 13.6597C100.045 13.8201 100.014 13.9635 99.9512 14.0901C99.8888 14.2167 99.7985 14.3239 99.6803 14.4117C99.5622 14.4994 99.4212 14.5661 99.2575 14.6117C99.0938 14.6572 98.9107 14.68 98.7081 14.68C98.5258 14.68 98.3461 14.6564 98.1688 14.6091C97.9916 14.5602 97.8304 14.4868 97.6853 14.3889C97.5418 14.291 97.427 14.1661 97.3409 14.0142C97.2548 13.8623 97.2118 13.6825 97.2118 13.4749H97.9739C97.9739 13.5897 97.9916 13.6867 98.0271 13.766C98.0625 13.8454 98.1123 13.9095 98.1764 13.9585C98.2423 14.0074 98.3199 14.0429 98.4094 14.0648C98.5005 14.0867 98.6001 14.0977 98.7081 14.0977C98.8398 14.0977 98.9478 14.0791 99.0322 14.042C99.1183 14.0049 99.1816 13.9534 99.2221 13.8876C99.2643 13.8217 99.2854 13.7475 99.2854 13.6648ZM103.299 10.9431V14.6294H102.542V10.9431H103.299ZM104.433 10.9431V11.538H101.425V10.9431H104.433ZM107.99 10.9431H108.747V13.3787C108.747 13.6622 108.686 13.9011 108.565 14.0952C108.445 14.2893 108.279 14.4353 108.066 14.5332C107.855 14.6311 107.612 14.68 107.337 14.68C107.062 14.68 106.817 14.6311 106.603 14.5332C106.39 14.4353 106.223 14.2893 106.101 14.0952C105.982 13.9011 105.922 13.6622 105.922 13.3787V10.9431H106.681V13.3787C106.681 13.5441 106.707 13.6791 106.76 13.7838C106.812 13.8884 106.887 13.9652 106.985 14.0142C107.085 14.0631 107.202 14.0876 107.337 14.0876C107.475 14.0876 107.593 14.0631 107.689 14.0142C107.787 13.9652 107.861 13.8884 107.912 13.7838C107.964 13.6791 107.99 13.5441 107.99 13.3787V10.9431ZM111.593 14.6294H110.791L110.796 14.0369H111.593C111.792 14.0369 111.96 13.9922 112.097 13.9028C112.234 13.8116 112.337 13.6791 112.406 13.5053C112.477 13.3314 112.512 13.1213 112.512 12.8748V12.6951C112.512 12.506 112.492 12.3398 112.451 12.1963C112.413 12.0528 112.354 11.9322 112.277 11.8343C112.199 11.7364 112.104 11.6629 111.991 11.614C111.878 11.5634 111.748 11.538 111.601 11.538H110.775V10.9431H111.601C111.847 10.9431 112.073 10.9852 112.277 11.0696C112.483 11.1523 112.661 11.2713 112.811 11.4266C112.961 11.5819 113.077 11.7676 113.158 11.9836C113.241 12.198 113.282 12.4368 113.282 12.7001V12.8748C113.282 13.1365 113.241 13.3753 113.158 13.5913C113.077 13.8074 112.961 13.9931 112.811 14.1483C112.662 14.3019 112.484 14.4209 112.277 14.5053C112.071 14.588 111.843 14.6294 111.593 14.6294ZM111.221 10.9431V14.6294H110.461V10.9431H111.221ZM115.73 10.9431V14.6294H114.973V10.9431H115.73ZM120.559 12.7001V12.8748C120.559 13.155 120.521 13.4065 120.445 13.6293C120.369 13.8521 120.262 14.042 120.123 14.199C119.985 14.3543 119.82 14.4733 119.627 14.556C119.436 14.6387 119.225 14.68 118.992 14.68C118.76 14.68 118.549 14.6387 118.356 14.556C118.165 14.4733 118 14.3543 117.86 14.199C117.72 14.042 117.611 13.8521 117.533 13.6293C117.457 13.4065 117.419 13.155 117.419 12.8748V12.7001C117.419 12.4183 117.457 12.1668 117.533 11.9457C117.609 11.7229 117.716 11.533 117.855 11.376C117.995 11.219 118.16 11.0992 118.351 11.0165C118.543 10.9338 118.755 10.8924 118.987 10.8924C119.219 10.8924 119.431 10.9338 119.622 11.0165C119.814 11.0992 119.98 11.219 120.118 11.376C120.258 11.533 120.366 11.7229 120.442 11.9457C120.52 12.1668 120.559 12.4183 120.559 12.7001ZM119.792 12.8748V12.6951C119.792 12.4993 119.774 12.3271 119.738 12.1786C119.703 12.0301 119.651 11.9051 119.582 11.8039C119.512 11.7026 119.428 11.6266 119.328 11.576C119.229 11.5237 119.115 11.4975 118.987 11.4975C118.858 11.4975 118.744 11.5237 118.645 11.576C118.547 11.6266 118.463 11.7026 118.394 11.8039C118.327 11.9051 118.275 12.0301 118.24 12.1786C118.204 12.3271 118.186 12.4993 118.186 12.6951V12.8748C118.186 13.0689 118.204 13.2411 118.24 13.3913C118.275 13.5399 118.327 13.6656 118.397 13.7686C118.466 13.8698 118.55 13.9466 118.65 13.999C118.749 14.0513 118.863 14.0775 118.992 14.0775C119.12 14.0775 119.234 14.0513 119.333 13.999C119.433 13.9466 119.517 13.8698 119.584 13.7686C119.652 13.6656 119.703 13.5399 119.738 13.3913C119.774 13.2411 119.792 13.0689 119.792 12.8748Z" fill="black"/>
</g>
<defs>
<clipPath id="clip0_60_382">
<rect width="73.3333" height="37.037" fill="white" transform="translate(48.1482)"/>
</clipPath>
</defs>
</svg>
