<svg width="154" height="40" viewBox="0 0 154 40" fill="none" xmlns="http://www.w3.org/2000/svg">
<path d="M6.80851 28.5142C6.80851 30.3865 5.2766 31.9185 3.40426 31.9185C1.53191 31.9185 -6.69621e-08 30.3865 -1.48805e-07 28.5142L-1.06023e-06 3.66314C-1.14208e-06 1.7908 1.53191 0.258883 3.40425 0.258883C5.27659 0.258883 6.80851 1.7908 6.80851 3.66314L6.80851 28.5142Z" fill="black"/>
<path d="M17.8722 36.5957C17.8722 38.4681 16.3403 40 14.468 40C12.5956 40 11.0637 38.4681 11.0637 36.5957L11.0637 11.7447C11.0637 9.87234 12.5956 8.34043 14.468 8.34043C16.3403 8.34043 17.8722 9.87234 17.8722 11.7447L17.8722 36.5957Z" fill="black"/>
<path d="M28.9362 28.5142C28.9362 30.3865 27.4043 31.9185 25.5319 31.9185C23.6596 31.9185 22.1277 30.3865 22.1277 28.5142L22.1277 3.66314C22.1277 1.7908 23.6596 0.258883 25.5319 0.258883C27.4043 0.258883 28.9362 1.7908 28.9362 3.66314L28.9362 28.5142Z" fill="black"/>
<path d="M39.9999 36.5957C39.9999 38.4681 38.468 40 36.5957 40C34.7233 40 33.1914 38.4681 33.1914 36.5957L33.1914 12.5447C33.1914 10.6723 34.7233 9.14043 36.5957 9.14043C38.468 9.14043 39.9999 10.6723 39.9999 12.5447L39.9999 36.5957Z" fill="black"/>
<g clip-path="url(#clip0_60_371)">
<path d="M64.2335 24.9151V28.3999H52.1687V9.9199H64.2335V13.4047H56.2607V17.4967H63.1775V20.8231H56.2607V24.9151H64.2335ZM71.2629 28.3999H67.2765V14.6455H70.6293L70.9461 16.5199C72.2397 15.1207 73.7709 14.4079 75.6453 14.4079C77.3349 14.4079 78.4701 14.9095 79.1829 15.8599C79.3941 16.1239 79.5525 16.3879 79.6845 16.7047C81.0309 15.1471 82.5621 14.4079 84.4629 14.4079C86.2053 14.4079 87.3669 14.9095 88.0797 15.8599C88.8189 16.8367 89.0301 17.9719 89.0301 20.7703V28.3999H85.0701V21.6679C85.0701 20.0839 84.9645 19.3975 84.5421 18.8431C84.0933 18.3151 83.4861 18.1039 82.5357 18.1039C81.6645 18.1039 80.8989 18.3679 80.1069 19.0279C80.1597 19.5295 80.1597 20.0839 80.1597 20.7703V28.3999H76.1733V21.6679C76.1733 20.0839 76.0941 19.3975 75.6453 18.8431C75.2229 18.3151 74.6157 18.1039 73.7181 18.1039C72.7413 18.1039 71.8437 18.4471 71.2629 19.0543V28.3999ZM98.7983 28.6111C97.7687 28.6111 96.6599 28.4263 95.6039 28.0303L92.5679 28.3999V8.3359H96.5543V16.4407C97.5311 15.0943 98.8511 14.3815 100.646 14.3815C103.709 14.3815 105.768 16.6783 105.768 20.9815C105.768 25.8919 102.97 28.6111 98.7983 28.6111ZM96.5543 19.7143V25.0471C97.1615 25.3111 97.7423 25.4167 98.3495 25.4167C100.277 25.4167 101.623 24.1495 101.623 21.3775C101.623 19.0543 100.62 17.9191 99.1679 17.9191C98.0063 17.9191 97.1615 18.5527 96.5543 19.7143ZM112.281 28.3999H108.294V8.3359H112.281V28.3999ZM122.343 28.6111C117.327 28.6111 114.819 26.2879 114.819 21.4831C114.819 16.8895 117.935 14.3815 121.499 14.3815C125.274 14.3815 127.095 16.6519 127.095 20.6119C127.095 21.3511 127.043 22.0111 126.99 22.6711H118.885C119.281 24.7303 120.68 25.4431 123.241 25.4431C124.297 25.4431 125.379 25.3375 126.303 25.2055L126.119 28.3471C125.168 28.5055 123.875 28.6111 122.343 28.6111ZM121.393 17.3383C120.02 17.3383 119.017 18.3151 118.806 20.5063L123.32 20.2687C123.32 18.2623 122.713 17.3383 121.393 17.3383ZM133.757 28.3999H129.77V14.6455H133.123L133.44 16.5199C134.733 15.1207 136.265 14.4079 138.139 14.4079C139.829 14.4079 140.964 14.9095 141.677 15.8599C141.888 16.1239 142.046 16.3879 142.178 16.7047C143.525 15.1471 145.056 14.4079 146.957 14.4079C148.699 14.4079 149.861 14.9095 150.573 15.8599C151.313 16.8367 151.524 17.9719 151.524 20.7703V28.3999H147.564V21.6679C147.564 20.0839 147.458 19.3975 147.036 18.8431C146.587 18.3151 145.98 18.1039 145.029 18.1039C144.158 18.1039 143.393 18.3679 142.601 19.0279C142.653 19.5295 142.653 20.0839 142.653 20.7703V28.3999H138.667V21.6679C138.667 20.0839 138.588 19.3975 138.139 18.8431C137.717 18.3151 137.109 18.1039 136.212 18.1039C135.235 18.1039 134.337 18.4471 133.757 19.0543V28.3999Z" fill="black"/>
</g>
<defs>
<clipPath id="clip0_60_371">
<rect width="101.6" height="40" fill="white" transform="translate(52)"/>
</clipPath>
</defs>
</svg>
