<svg width="45" height="30" viewBox="0 0 45 30" fill="none" xmlns="http://www.w3.org/2000/svg">
<path fill-rule="evenodd" clip-rule="evenodd" d="M44.2349 30V27.8524L44.2356 17.1544C44.237 15.7364 44.0627 14.3237 43.7166 12.9485C43.7189 12.9337 43.7189 12.9186 43.7166 12.9038C42.7725 9.21242 40.6263 5.94039 37.6166 3.6039C34.6068 1.26741 30.9049 -0.000555432 27.0947 2.22114e-06H12.8531C10.5174 -0.00137156 8.22557 0.634544 6.22454 1.83926C4.22351 3.04398 2.58909 4.77184 1.49737 6.83669C0.617637 8.4963 0.1053 10.3878 0.015625 12.264V12.8904C0.015625 13.3378 0.0335224 13.7852 0.0648423 14.2327C0.118398 14.9116 0.211018 15.5868 0.342245 16.255C0.339705 16.2668 0.339705 16.279 0.342245 16.2908C0.356803 16.32 0.358099 16.3434 0.359694 16.3722C0.36055 16.3877 0.361492 16.4047 0.364618 16.4251C0.367949 16.4467 0.375002 16.4702 0.382543 16.4954C0.395258 16.5378 0.409363 16.5848 0.409363 16.6354C1.27108 20.4323 3.39815 23.8234 6.44137 26.2519C9.48459 28.6805 13.2631 30.0022 17.1566 30H44.2349ZM13.0134 20.3043C12.5087 20.027 12.0347 19.697 11.5995 19.3199C10.6644 18.5212 9.91451 17.5291 9.40005 16.4122C8.88559 15.2952 8.61959 14.0799 8.62041 12.8501C8.62041 11.7307 9.06479 10.657 9.85593 9.86507C10.6471 9.0731 11.7202 8.62758 12.8397 8.6264H27.0813C28.2454 8.62255 29.3978 8.85898 30.4664 9.3209C31.535 9.78283 32.4736 10.4514 33.2684 11.302C33.6197 11.6715 33.9358 12.0729 34.2125 12.5011C34.7383 13.3075 35.1241 14.197 35.3534 15.132C35.512 15.7868 35.5916 16.4582 35.5906 17.132V21.3557H17.1297C16.0566 21.3577 14.9931 21.1527 13.9977 20.7517C13.6598 20.6252 13.3309 20.4757 13.0134 20.3043Z" fill="white"/>
</svg>
